G04 #@! TF.GenerationSoftware,KiCad,Pcbnew,(5.1.2)-2*
G04 #@! TF.CreationDate,2019-07-24T13:36:26-05:00*
G04 #@! TF.ProjectId,ECE 597 PCB,45434520-3539-4372-9050-43422e6b6963,rev?*
G04 #@! TF.SameCoordinates,Original*
G04 #@! TF.FileFunction,Legend,Bot*
G04 #@! TF.FilePolarity,Positive*
%FSLAX46Y46*%
G04 Gerber Fmt 4.6, Leading zero omitted, Abs format (unit mm)*
G04 Created by KiCad (PCBNEW (5.1.2)-2) date 2019-07-24 13:36:26*
%MOMM*%
%LPD*%
G04 APERTURE LIST*
%ADD10C,0.150000*%
%ADD11C,0.500000*%
G04 APERTURE END LIST*
D10*
X161760000Y-75080000D02*
X161760000Y-85240000D01*
X159220000Y-72540000D02*
X161760000Y-75080000D01*
X146520000Y-72540000D02*
X159220000Y-72540000D01*
X161760000Y-120800000D02*
X161760000Y-110640000D01*
X159220000Y-123340000D02*
X161760000Y-120800000D01*
X141440000Y-123340000D02*
X159220000Y-123340000D01*
X161760000Y-85240000D02*
X161760000Y-110640000D01*
X146520000Y-72540000D02*
X141440000Y-72540000D01*
X106839285Y-82025714D02*
X106867857Y-81997142D01*
X106896428Y-81911428D01*
X106896428Y-81854285D01*
X106867857Y-81768571D01*
X106810714Y-81711428D01*
X106753571Y-81682857D01*
X106639285Y-81654285D01*
X106553571Y-81654285D01*
X106439285Y-81682857D01*
X106382142Y-81711428D01*
X106325000Y-81768571D01*
X106296428Y-81854285D01*
X106296428Y-81911428D01*
X106325000Y-81997142D01*
X106353571Y-82025714D01*
X106896428Y-82368571D02*
X106867857Y-82311428D01*
X106839285Y-82282857D01*
X106782142Y-82254285D01*
X106610714Y-82254285D01*
X106553571Y-82282857D01*
X106525000Y-82311428D01*
X106496428Y-82368571D01*
X106496428Y-82454285D01*
X106525000Y-82511428D01*
X106553571Y-82540000D01*
X106610714Y-82568571D01*
X106782142Y-82568571D01*
X106839285Y-82540000D01*
X106867857Y-82511428D01*
X106896428Y-82454285D01*
X106896428Y-82368571D01*
X106896428Y-83082857D02*
X106296428Y-83082857D01*
X106867857Y-83082857D02*
X106896428Y-83025714D01*
X106896428Y-82911428D01*
X106867857Y-82854285D01*
X106839285Y-82825714D01*
X106782142Y-82797142D01*
X106610714Y-82797142D01*
X106553571Y-82825714D01*
X106525000Y-82854285D01*
X106496428Y-82911428D01*
X106496428Y-83025714D01*
X106525000Y-83082857D01*
X106867857Y-83597142D02*
X106896428Y-83540000D01*
X106896428Y-83425714D01*
X106867857Y-83368571D01*
X106810714Y-83340000D01*
X106582142Y-83340000D01*
X106525000Y-83368571D01*
X106496428Y-83425714D01*
X106496428Y-83540000D01*
X106525000Y-83597142D01*
X106582142Y-83625714D01*
X106639285Y-83625714D01*
X106696428Y-83340000D01*
X106896428Y-84425714D02*
X106867857Y-84368571D01*
X106810714Y-84340000D01*
X106296428Y-84340000D01*
X106896428Y-84654285D02*
X106496428Y-84654285D01*
X106296428Y-84654285D02*
X106325000Y-84625714D01*
X106353571Y-84654285D01*
X106325000Y-84682857D01*
X106296428Y-84654285D01*
X106353571Y-84654285D01*
X106496428Y-84940000D02*
X106896428Y-84940000D01*
X106553571Y-84940000D02*
X106525000Y-84968571D01*
X106496428Y-85025714D01*
X106496428Y-85111428D01*
X106525000Y-85168571D01*
X106582142Y-85197142D01*
X106896428Y-85197142D01*
X106896428Y-85482857D02*
X106296428Y-85482857D01*
X106667857Y-85540000D02*
X106896428Y-85711428D01*
X106496428Y-85711428D02*
X106725000Y-85482857D01*
X106839285Y-85968571D02*
X106867857Y-85997142D01*
X106896428Y-85968571D01*
X106867857Y-85940000D01*
X106839285Y-85968571D01*
X106896428Y-85968571D01*
X106525000Y-85968571D02*
X106553571Y-85997142D01*
X106582142Y-85968571D01*
X106553571Y-85940000D01*
X106525000Y-85968571D01*
X106582142Y-85968571D01*
X106896428Y-86711428D02*
X106296428Y-86711428D01*
X106896428Y-86968571D02*
X106582142Y-86968571D01*
X106525000Y-86940000D01*
X106496428Y-86882857D01*
X106496428Y-86797142D01*
X106525000Y-86740000D01*
X106553571Y-86711428D01*
X106496428Y-87168571D02*
X106496428Y-87397142D01*
X106296428Y-87254285D02*
X106810714Y-87254285D01*
X106867857Y-87282857D01*
X106896428Y-87340000D01*
X106896428Y-87397142D01*
X106496428Y-87511428D02*
X106496428Y-87740000D01*
X106296428Y-87597142D02*
X106810714Y-87597142D01*
X106867857Y-87625714D01*
X106896428Y-87682857D01*
X106896428Y-87740000D01*
X106496428Y-87940000D02*
X107096428Y-87940000D01*
X106525000Y-87940000D02*
X106496428Y-87997142D01*
X106496428Y-88111428D01*
X106525000Y-88168571D01*
X106553571Y-88197142D01*
X106610714Y-88225714D01*
X106782142Y-88225714D01*
X106839285Y-88197142D01*
X106867857Y-88168571D01*
X106896428Y-88111428D01*
X106896428Y-87997142D01*
X106867857Y-87940000D01*
X106867857Y-88454285D02*
X106896428Y-88511428D01*
X106896428Y-88625714D01*
X106867857Y-88682857D01*
X106810714Y-88711428D01*
X106782142Y-88711428D01*
X106725000Y-88682857D01*
X106696428Y-88625714D01*
X106696428Y-88540000D01*
X106667857Y-88482857D01*
X106610714Y-88454285D01*
X106582142Y-88454285D01*
X106525000Y-88482857D01*
X106496428Y-88540000D01*
X106496428Y-88625714D01*
X106525000Y-88682857D01*
X106839285Y-88968571D02*
X106867857Y-88997142D01*
X106896428Y-88968571D01*
X106867857Y-88940000D01*
X106839285Y-88968571D01*
X106896428Y-88968571D01*
X106525000Y-88968571D02*
X106553571Y-88997142D01*
X106582142Y-88968571D01*
X106553571Y-88940000D01*
X106525000Y-88968571D01*
X106582142Y-88968571D01*
X106267857Y-89682857D02*
X107039285Y-89168571D01*
X106267857Y-90311428D02*
X107039285Y-89797142D01*
X106496428Y-90768571D02*
X106982142Y-90768571D01*
X107039285Y-90740000D01*
X107067857Y-90711428D01*
X107096428Y-90654285D01*
X107096428Y-90568571D01*
X107067857Y-90511428D01*
X106867857Y-90768571D02*
X106896428Y-90711428D01*
X106896428Y-90597142D01*
X106867857Y-90540000D01*
X106839285Y-90511428D01*
X106782142Y-90482857D01*
X106610714Y-90482857D01*
X106553571Y-90511428D01*
X106525000Y-90540000D01*
X106496428Y-90597142D01*
X106496428Y-90711428D01*
X106525000Y-90768571D01*
X106896428Y-91054285D02*
X106496428Y-91054285D01*
X106296428Y-91054285D02*
X106325000Y-91025714D01*
X106353571Y-91054285D01*
X106325000Y-91082857D01*
X106296428Y-91054285D01*
X106353571Y-91054285D01*
X106496428Y-91254285D02*
X106496428Y-91482857D01*
X106296428Y-91340000D02*
X106810714Y-91340000D01*
X106867857Y-91368571D01*
X106896428Y-91425714D01*
X106896428Y-91482857D01*
X106896428Y-91682857D02*
X106296428Y-91682857D01*
X106896428Y-91940000D02*
X106582142Y-91940000D01*
X106525000Y-91911428D01*
X106496428Y-91854285D01*
X106496428Y-91768571D01*
X106525000Y-91711428D01*
X106553571Y-91682857D01*
X106496428Y-92482857D02*
X106896428Y-92482857D01*
X106496428Y-92225714D02*
X106810714Y-92225714D01*
X106867857Y-92254285D01*
X106896428Y-92311428D01*
X106896428Y-92397142D01*
X106867857Y-92454285D01*
X106839285Y-92482857D01*
X106896428Y-92768571D02*
X106296428Y-92768571D01*
X106525000Y-92768571D02*
X106496428Y-92825714D01*
X106496428Y-92940000D01*
X106525000Y-92997142D01*
X106553571Y-93025714D01*
X106610714Y-93054285D01*
X106782142Y-93054285D01*
X106839285Y-93025714D01*
X106867857Y-92997142D01*
X106896428Y-92940000D01*
X106896428Y-92825714D01*
X106867857Y-92768571D01*
X106839285Y-93311428D02*
X106867857Y-93340000D01*
X106896428Y-93311428D01*
X106867857Y-93282857D01*
X106839285Y-93311428D01*
X106896428Y-93311428D01*
X106867857Y-93854285D02*
X106896428Y-93797142D01*
X106896428Y-93682857D01*
X106867857Y-93625714D01*
X106839285Y-93597142D01*
X106782142Y-93568571D01*
X106610714Y-93568571D01*
X106553571Y-93597142D01*
X106525000Y-93625714D01*
X106496428Y-93682857D01*
X106496428Y-93797142D01*
X106525000Y-93854285D01*
X106896428Y-94197142D02*
X106867857Y-94140000D01*
X106839285Y-94111428D01*
X106782142Y-94082857D01*
X106610714Y-94082857D01*
X106553571Y-94111428D01*
X106525000Y-94140000D01*
X106496428Y-94197142D01*
X106496428Y-94282857D01*
X106525000Y-94340000D01*
X106553571Y-94368571D01*
X106610714Y-94397142D01*
X106782142Y-94397142D01*
X106839285Y-94368571D01*
X106867857Y-94340000D01*
X106896428Y-94282857D01*
X106896428Y-94197142D01*
X106896428Y-94654285D02*
X106496428Y-94654285D01*
X106553571Y-94654285D02*
X106525000Y-94682857D01*
X106496428Y-94740000D01*
X106496428Y-94825714D01*
X106525000Y-94882857D01*
X106582142Y-94911428D01*
X106896428Y-94911428D01*
X106582142Y-94911428D02*
X106525000Y-94940000D01*
X106496428Y-94997142D01*
X106496428Y-95082857D01*
X106525000Y-95140000D01*
X106582142Y-95168571D01*
X106896428Y-95168571D01*
X106267857Y-95882857D02*
X107039285Y-95368571D01*
X106896428Y-96082857D02*
X106296428Y-96082857D01*
X106896428Y-96425714D01*
X106296428Y-96425714D01*
X106867857Y-96940000D02*
X106896428Y-96882857D01*
X106896428Y-96768571D01*
X106867857Y-96711428D01*
X106810714Y-96682857D01*
X106582142Y-96682857D01*
X106525000Y-96711428D01*
X106496428Y-96768571D01*
X106496428Y-96882857D01*
X106525000Y-96940000D01*
X106582142Y-96968571D01*
X106639285Y-96968571D01*
X106696428Y-96682857D01*
X106896428Y-97225714D02*
X106496428Y-97225714D01*
X106553571Y-97225714D02*
X106525000Y-97254285D01*
X106496428Y-97311428D01*
X106496428Y-97397142D01*
X106525000Y-97454285D01*
X106582142Y-97482857D01*
X106896428Y-97482857D01*
X106582142Y-97482857D02*
X106525000Y-97511428D01*
X106496428Y-97568571D01*
X106496428Y-97654285D01*
X106525000Y-97711428D01*
X106582142Y-97740000D01*
X106896428Y-97740000D01*
X106896428Y-98025714D02*
X106496428Y-98025714D01*
X106296428Y-98025714D02*
X106325000Y-97997142D01*
X106353571Y-98025714D01*
X106325000Y-98054285D01*
X106296428Y-98025714D01*
X106353571Y-98025714D01*
X106896428Y-98397142D02*
X106867857Y-98340000D01*
X106810714Y-98311428D01*
X106296428Y-98311428D01*
X106896428Y-98882857D02*
X106582142Y-98882857D01*
X106525000Y-98854285D01*
X106496428Y-98797142D01*
X106496428Y-98682857D01*
X106525000Y-98625714D01*
X106867857Y-98882857D02*
X106896428Y-98825714D01*
X106896428Y-98682857D01*
X106867857Y-98625714D01*
X106810714Y-98597142D01*
X106753571Y-98597142D01*
X106696428Y-98625714D01*
X106667857Y-98682857D01*
X106667857Y-98825714D01*
X106639285Y-98882857D01*
X106496428Y-99168571D02*
X106896428Y-99168571D01*
X106553571Y-99168571D02*
X106525000Y-99197142D01*
X106496428Y-99254285D01*
X106496428Y-99340000D01*
X106525000Y-99397142D01*
X106582142Y-99425714D01*
X106896428Y-99425714D01*
X106896428Y-99968571D02*
X106296428Y-99968571D01*
X106867857Y-99968571D02*
X106896428Y-99911428D01*
X106896428Y-99797142D01*
X106867857Y-99740000D01*
X106839285Y-99711428D01*
X106782142Y-99682857D01*
X106610714Y-99682857D01*
X106553571Y-99711428D01*
X106525000Y-99740000D01*
X106496428Y-99797142D01*
X106496428Y-99911428D01*
X106525000Y-99968571D01*
X106267857Y-100682857D02*
X107039285Y-100168571D01*
X106582142Y-100882857D02*
X106582142Y-101082857D01*
X106896428Y-101168571D02*
X106896428Y-100882857D01*
X106296428Y-100882857D01*
X106296428Y-101168571D01*
X106839285Y-101768571D02*
X106867857Y-101740000D01*
X106896428Y-101654285D01*
X106896428Y-101597142D01*
X106867857Y-101511428D01*
X106810714Y-101454285D01*
X106753571Y-101425714D01*
X106639285Y-101397142D01*
X106553571Y-101397142D01*
X106439285Y-101425714D01*
X106382142Y-101454285D01*
X106325000Y-101511428D01*
X106296428Y-101597142D01*
X106296428Y-101654285D01*
X106325000Y-101740000D01*
X106353571Y-101768571D01*
X106582142Y-102025714D02*
X106582142Y-102225714D01*
X106896428Y-102311428D02*
X106896428Y-102025714D01*
X106296428Y-102025714D01*
X106296428Y-102311428D01*
X106667857Y-102568571D02*
X106667857Y-103025714D01*
X106296428Y-103597142D02*
X106296428Y-103311428D01*
X106582142Y-103282857D01*
X106553571Y-103311428D01*
X106525000Y-103368571D01*
X106525000Y-103511428D01*
X106553571Y-103568571D01*
X106582142Y-103597142D01*
X106639285Y-103625714D01*
X106782142Y-103625714D01*
X106839285Y-103597142D01*
X106867857Y-103568571D01*
X106896428Y-103511428D01*
X106896428Y-103368571D01*
X106867857Y-103311428D01*
X106839285Y-103282857D01*
X106896428Y-103911428D02*
X106896428Y-104025714D01*
X106867857Y-104082857D01*
X106839285Y-104111428D01*
X106753571Y-104168571D01*
X106639285Y-104197142D01*
X106410714Y-104197142D01*
X106353571Y-104168571D01*
X106325000Y-104140000D01*
X106296428Y-104082857D01*
X106296428Y-103968571D01*
X106325000Y-103911428D01*
X106353571Y-103882857D01*
X106410714Y-103854285D01*
X106553571Y-103854285D01*
X106610714Y-103882857D01*
X106639285Y-103911428D01*
X106667857Y-103968571D01*
X106667857Y-104082857D01*
X106639285Y-104140000D01*
X106610714Y-104168571D01*
X106553571Y-104197142D01*
X106296428Y-104397142D02*
X106296428Y-104797142D01*
X106896428Y-104540000D01*
X106667857Y-105025714D02*
X106667857Y-105482857D01*
X106725000Y-105740000D02*
X106725000Y-106025714D01*
X106896428Y-105682857D02*
X106296428Y-105882857D01*
X106896428Y-106082857D01*
X106496428Y-106540000D02*
X106896428Y-106540000D01*
X106496428Y-106282857D02*
X106810714Y-106282857D01*
X106867857Y-106311428D01*
X106896428Y-106368571D01*
X106896428Y-106454285D01*
X106867857Y-106511428D01*
X106839285Y-106540000D01*
X106496428Y-106740000D02*
X106496428Y-106968571D01*
X106296428Y-106825714D02*
X106810714Y-106825714D01*
X106867857Y-106854285D01*
X106896428Y-106911428D01*
X106896428Y-106968571D01*
X106896428Y-107254285D02*
X106867857Y-107197142D01*
X106839285Y-107168571D01*
X106782142Y-107140000D01*
X106610714Y-107140000D01*
X106553571Y-107168571D01*
X106525000Y-107197142D01*
X106496428Y-107254285D01*
X106496428Y-107340000D01*
X106525000Y-107397142D01*
X106553571Y-107425714D01*
X106610714Y-107454285D01*
X106782142Y-107454285D01*
X106839285Y-107425714D01*
X106867857Y-107397142D01*
X106896428Y-107340000D01*
X106896428Y-107254285D01*
X106896428Y-107711428D02*
X106496428Y-107711428D01*
X106553571Y-107711428D02*
X106525000Y-107740000D01*
X106496428Y-107797142D01*
X106496428Y-107882857D01*
X106525000Y-107940000D01*
X106582142Y-107968571D01*
X106896428Y-107968571D01*
X106582142Y-107968571D02*
X106525000Y-107997142D01*
X106496428Y-108054285D01*
X106496428Y-108140000D01*
X106525000Y-108197142D01*
X106582142Y-108225714D01*
X106896428Y-108225714D01*
X106896428Y-108597142D02*
X106867857Y-108540000D01*
X106839285Y-108511428D01*
X106782142Y-108482857D01*
X106610714Y-108482857D01*
X106553571Y-108511428D01*
X106525000Y-108540000D01*
X106496428Y-108597142D01*
X106496428Y-108682857D01*
X106525000Y-108740000D01*
X106553571Y-108768571D01*
X106610714Y-108797142D01*
X106782142Y-108797142D01*
X106839285Y-108768571D01*
X106867857Y-108740000D01*
X106896428Y-108682857D01*
X106896428Y-108597142D01*
X106496428Y-109054285D02*
X106896428Y-109054285D01*
X106553571Y-109054285D02*
X106525000Y-109082857D01*
X106496428Y-109140000D01*
X106496428Y-109225714D01*
X106525000Y-109282857D01*
X106582142Y-109311428D01*
X106896428Y-109311428D01*
X106896428Y-109682857D02*
X106867857Y-109625714D01*
X106839285Y-109597142D01*
X106782142Y-109568571D01*
X106610714Y-109568571D01*
X106553571Y-109597142D01*
X106525000Y-109625714D01*
X106496428Y-109682857D01*
X106496428Y-109768571D01*
X106525000Y-109825714D01*
X106553571Y-109854285D01*
X106610714Y-109882857D01*
X106782142Y-109882857D01*
X106839285Y-109854285D01*
X106867857Y-109825714D01*
X106896428Y-109768571D01*
X106896428Y-109682857D01*
X106496428Y-110397142D02*
X106896428Y-110397142D01*
X106496428Y-110140000D02*
X106810714Y-110140000D01*
X106867857Y-110168571D01*
X106896428Y-110225714D01*
X106896428Y-110311428D01*
X106867857Y-110368571D01*
X106839285Y-110397142D01*
X106867857Y-110654285D02*
X106896428Y-110711428D01*
X106896428Y-110825714D01*
X106867857Y-110882857D01*
X106810714Y-110911428D01*
X106782142Y-110911428D01*
X106725000Y-110882857D01*
X106696428Y-110825714D01*
X106696428Y-110740000D01*
X106667857Y-110682857D01*
X106610714Y-110654285D01*
X106582142Y-110654285D01*
X106525000Y-110682857D01*
X106496428Y-110740000D01*
X106496428Y-110825714D01*
X106525000Y-110882857D01*
X106667857Y-111168571D02*
X106667857Y-111625714D01*
X106896428Y-112254285D02*
X106610714Y-112054285D01*
X106896428Y-111911428D02*
X106296428Y-111911428D01*
X106296428Y-112140000D01*
X106325000Y-112197142D01*
X106353571Y-112225714D01*
X106410714Y-112254285D01*
X106496428Y-112254285D01*
X106553571Y-112225714D01*
X106582142Y-112197142D01*
X106610714Y-112140000D01*
X106610714Y-111911428D01*
X106896428Y-112597142D02*
X106867857Y-112540000D01*
X106839285Y-112511428D01*
X106782142Y-112482857D01*
X106610714Y-112482857D01*
X106553571Y-112511428D01*
X106525000Y-112540000D01*
X106496428Y-112597142D01*
X106496428Y-112682857D01*
X106525000Y-112740000D01*
X106553571Y-112768571D01*
X106610714Y-112797142D01*
X106782142Y-112797142D01*
X106839285Y-112768571D01*
X106867857Y-112740000D01*
X106896428Y-112682857D01*
X106896428Y-112597142D01*
X106896428Y-113054285D02*
X106296428Y-113054285D01*
X106525000Y-113054285D02*
X106496428Y-113111428D01*
X106496428Y-113225714D01*
X106525000Y-113282857D01*
X106553571Y-113311428D01*
X106610714Y-113340000D01*
X106782142Y-113340000D01*
X106839285Y-113311428D01*
X106867857Y-113282857D01*
X106896428Y-113225714D01*
X106896428Y-113111428D01*
X106867857Y-113054285D01*
X106896428Y-113682857D02*
X106867857Y-113625714D01*
X106839285Y-113597142D01*
X106782142Y-113568571D01*
X106610714Y-113568571D01*
X106553571Y-113597142D01*
X106525000Y-113625714D01*
X106496428Y-113682857D01*
X106496428Y-113768571D01*
X106525000Y-113825714D01*
X106553571Y-113854285D01*
X106610714Y-113882857D01*
X106782142Y-113882857D01*
X106839285Y-113854285D01*
X106867857Y-113825714D01*
X106896428Y-113768571D01*
X106896428Y-113682857D01*
X106496428Y-114054285D02*
X106496428Y-114282857D01*
X106296428Y-114140000D02*
X106810714Y-114140000D01*
X106867857Y-114168571D01*
X106896428Y-114225714D01*
X106896428Y-114282857D01*
X107946428Y-81925714D02*
X107346428Y-81925714D01*
X107346428Y-82154285D01*
X107375000Y-82211428D01*
X107403571Y-82240000D01*
X107460714Y-82268571D01*
X107546428Y-82268571D01*
X107603571Y-82240000D01*
X107632142Y-82211428D01*
X107660714Y-82154285D01*
X107660714Y-81925714D01*
X107889285Y-82525714D02*
X107917857Y-82554285D01*
X107946428Y-82525714D01*
X107917857Y-82497142D01*
X107889285Y-82525714D01*
X107946428Y-82525714D01*
X107917857Y-82782857D02*
X107946428Y-82868571D01*
X107946428Y-83011428D01*
X107917857Y-83068571D01*
X107889285Y-83097142D01*
X107832142Y-83125714D01*
X107775000Y-83125714D01*
X107717857Y-83097142D01*
X107689285Y-83068571D01*
X107660714Y-83011428D01*
X107632142Y-82897142D01*
X107603571Y-82840000D01*
X107575000Y-82811428D01*
X107517857Y-82782857D01*
X107460714Y-82782857D01*
X107403571Y-82811428D01*
X107375000Y-82840000D01*
X107346428Y-82897142D01*
X107346428Y-83040000D01*
X107375000Y-83125714D01*
X107889285Y-83382857D02*
X107917857Y-83411428D01*
X107946428Y-83382857D01*
X107917857Y-83354285D01*
X107889285Y-83382857D01*
X107946428Y-83382857D01*
X107660714Y-84240000D02*
X107946428Y-84240000D01*
X107346428Y-84040000D02*
X107660714Y-84240000D01*
X107346428Y-84440000D01*
X107917857Y-84868571D02*
X107946428Y-84811428D01*
X107946428Y-84697142D01*
X107917857Y-84640000D01*
X107860714Y-84611428D01*
X107632142Y-84611428D01*
X107575000Y-84640000D01*
X107546428Y-84697142D01*
X107546428Y-84811428D01*
X107575000Y-84868571D01*
X107632142Y-84897142D01*
X107689285Y-84897142D01*
X107746428Y-84611428D01*
X107917857Y-85125714D02*
X107946428Y-85182857D01*
X107946428Y-85297142D01*
X107917857Y-85354285D01*
X107860714Y-85382857D01*
X107832142Y-85382857D01*
X107775000Y-85354285D01*
X107746428Y-85297142D01*
X107746428Y-85211428D01*
X107717857Y-85154285D01*
X107660714Y-85125714D01*
X107632142Y-85125714D01*
X107575000Y-85154285D01*
X107546428Y-85211428D01*
X107546428Y-85297142D01*
X107575000Y-85354285D01*
X107917857Y-85668571D02*
X107946428Y-85668571D01*
X108003571Y-85640000D01*
X108032142Y-85611428D01*
X107546428Y-86297142D02*
X107546428Y-86525714D01*
X107346428Y-86382857D02*
X107860714Y-86382857D01*
X107917857Y-86411428D01*
X107946428Y-86468571D01*
X107946428Y-86525714D01*
X107946428Y-86725714D02*
X107346428Y-86725714D01*
X107946428Y-86982857D02*
X107632142Y-86982857D01*
X107575000Y-86954285D01*
X107546428Y-86897142D01*
X107546428Y-86811428D01*
X107575000Y-86754285D01*
X107603571Y-86725714D01*
X107917857Y-87497142D02*
X107946428Y-87440000D01*
X107946428Y-87325714D01*
X107917857Y-87268571D01*
X107860714Y-87240000D01*
X107632142Y-87240000D01*
X107575000Y-87268571D01*
X107546428Y-87325714D01*
X107546428Y-87440000D01*
X107575000Y-87497142D01*
X107632142Y-87525714D01*
X107689285Y-87525714D01*
X107746428Y-87240000D01*
X107946428Y-87782857D02*
X107546428Y-87782857D01*
X107660714Y-87782857D02*
X107603571Y-87811428D01*
X107575000Y-87840000D01*
X107546428Y-87897142D01*
X107546428Y-87954285D01*
X107917857Y-88382857D02*
X107946428Y-88325714D01*
X107946428Y-88211428D01*
X107917857Y-88154285D01*
X107860714Y-88125714D01*
X107632142Y-88125714D01*
X107575000Y-88154285D01*
X107546428Y-88211428D01*
X107546428Y-88325714D01*
X107575000Y-88382857D01*
X107632142Y-88411428D01*
X107689285Y-88411428D01*
X107746428Y-88125714D01*
X107346428Y-88697142D02*
X107460714Y-88640000D01*
X107917857Y-88925714D02*
X107946428Y-88982857D01*
X107946428Y-89097142D01*
X107917857Y-89154285D01*
X107860714Y-89182857D01*
X107832142Y-89182857D01*
X107775000Y-89154285D01*
X107746428Y-89097142D01*
X107746428Y-89011428D01*
X107717857Y-88954285D01*
X107660714Y-88925714D01*
X107632142Y-88925714D01*
X107575000Y-88954285D01*
X107546428Y-89011428D01*
X107546428Y-89097142D01*
X107575000Y-89154285D01*
X107946428Y-90154285D02*
X107632142Y-90154285D01*
X107575000Y-90125714D01*
X107546428Y-90068571D01*
X107546428Y-89954285D01*
X107575000Y-89897142D01*
X107917857Y-90154285D02*
X107946428Y-90097142D01*
X107946428Y-89954285D01*
X107917857Y-89897142D01*
X107860714Y-89868571D01*
X107803571Y-89868571D01*
X107746428Y-89897142D01*
X107717857Y-89954285D01*
X107717857Y-90097142D01*
X107689285Y-90154285D01*
X107546428Y-90811428D02*
X107546428Y-91040000D01*
X107346428Y-90897142D02*
X107860714Y-90897142D01*
X107917857Y-90925714D01*
X107946428Y-90982857D01*
X107946428Y-91040000D01*
X107546428Y-91182857D02*
X107946428Y-91325714D01*
X107546428Y-91468571D02*
X107946428Y-91325714D01*
X108089285Y-91268571D01*
X108117857Y-91240000D01*
X108146428Y-91182857D01*
X107546428Y-91697142D02*
X108146428Y-91697142D01*
X107575000Y-91697142D02*
X107546428Y-91754285D01*
X107546428Y-91868571D01*
X107575000Y-91925714D01*
X107603571Y-91954285D01*
X107660714Y-91982857D01*
X107832142Y-91982857D01*
X107889285Y-91954285D01*
X107917857Y-91925714D01*
X107946428Y-91868571D01*
X107946428Y-91754285D01*
X107917857Y-91697142D01*
X107946428Y-92325714D02*
X107917857Y-92268571D01*
X107889285Y-92240000D01*
X107832142Y-92211428D01*
X107660714Y-92211428D01*
X107603571Y-92240000D01*
X107575000Y-92268571D01*
X107546428Y-92325714D01*
X107546428Y-92411428D01*
X107575000Y-92468571D01*
X107603571Y-92497142D01*
X107660714Y-92525714D01*
X107832142Y-92525714D01*
X107889285Y-92497142D01*
X107917857Y-92468571D01*
X107946428Y-92411428D01*
X107946428Y-92325714D01*
X107917857Y-92811428D02*
X107946428Y-92811428D01*
X108003571Y-92782857D01*
X108032142Y-92754285D01*
X107575000Y-92782857D02*
X107603571Y-92811428D01*
X107632142Y-92782857D01*
X107603571Y-92754285D01*
X107575000Y-92782857D01*
X107632142Y-92782857D01*
X107946428Y-93525714D02*
X107346428Y-93525714D01*
X107946428Y-93782857D02*
X107632142Y-93782857D01*
X107575000Y-93754285D01*
X107546428Y-93697142D01*
X107546428Y-93611428D01*
X107575000Y-93554285D01*
X107603571Y-93525714D01*
X107946428Y-94154285D02*
X107917857Y-94097142D01*
X107889285Y-94068571D01*
X107832142Y-94040000D01*
X107660714Y-94040000D01*
X107603571Y-94068571D01*
X107575000Y-94097142D01*
X107546428Y-94154285D01*
X107546428Y-94240000D01*
X107575000Y-94297142D01*
X107603571Y-94325714D01*
X107660714Y-94354285D01*
X107832142Y-94354285D01*
X107889285Y-94325714D01*
X107917857Y-94297142D01*
X107946428Y-94240000D01*
X107946428Y-94154285D01*
X107546428Y-94554285D02*
X107946428Y-94668571D01*
X107660714Y-94782857D01*
X107946428Y-94897142D01*
X107546428Y-95011428D01*
X107917857Y-95468571D02*
X107946428Y-95411428D01*
X107946428Y-95297142D01*
X107917857Y-95240000D01*
X107860714Y-95211428D01*
X107632142Y-95211428D01*
X107575000Y-95240000D01*
X107546428Y-95297142D01*
X107546428Y-95411428D01*
X107575000Y-95468571D01*
X107632142Y-95497142D01*
X107689285Y-95497142D01*
X107746428Y-95211428D01*
X107546428Y-95697142D02*
X107946428Y-95840000D01*
X107546428Y-95982857D01*
X107917857Y-96440000D02*
X107946428Y-96382857D01*
X107946428Y-96268571D01*
X107917857Y-96211428D01*
X107860714Y-96182857D01*
X107632142Y-96182857D01*
X107575000Y-96211428D01*
X107546428Y-96268571D01*
X107546428Y-96382857D01*
X107575000Y-96440000D01*
X107632142Y-96468571D01*
X107689285Y-96468571D01*
X107746428Y-96182857D01*
X107946428Y-96725714D02*
X107546428Y-96725714D01*
X107660714Y-96725714D02*
X107603571Y-96754285D01*
X107575000Y-96782857D01*
X107546428Y-96840000D01*
X107546428Y-96897142D01*
X107946428Y-97554285D02*
X107546428Y-97554285D01*
X107346428Y-97554285D02*
X107375000Y-97525714D01*
X107403571Y-97554285D01*
X107375000Y-97582857D01*
X107346428Y-97554285D01*
X107403571Y-97554285D01*
X107546428Y-97754285D02*
X107546428Y-97982857D01*
X107346428Y-97840000D02*
X107860714Y-97840000D01*
X107917857Y-97868571D01*
X107946428Y-97925714D01*
X107946428Y-97982857D01*
X107946428Y-98640000D02*
X107346428Y-98640000D01*
X107946428Y-98897142D02*
X107632142Y-98897142D01*
X107575000Y-98868571D01*
X107546428Y-98811428D01*
X107546428Y-98725714D01*
X107575000Y-98668571D01*
X107603571Y-98640000D01*
X107917857Y-99411428D02*
X107946428Y-99354285D01*
X107946428Y-99240000D01*
X107917857Y-99182857D01*
X107860714Y-99154285D01*
X107632142Y-99154285D01*
X107575000Y-99182857D01*
X107546428Y-99240000D01*
X107546428Y-99354285D01*
X107575000Y-99411428D01*
X107632142Y-99440000D01*
X107689285Y-99440000D01*
X107746428Y-99154285D01*
X107946428Y-99782857D02*
X107917857Y-99725714D01*
X107860714Y-99697142D01*
X107346428Y-99697142D01*
X107546428Y-100011428D02*
X108146428Y-100011428D01*
X107575000Y-100011428D02*
X107546428Y-100068571D01*
X107546428Y-100182857D01*
X107575000Y-100240000D01*
X107603571Y-100268571D01*
X107660714Y-100297142D01*
X107832142Y-100297142D01*
X107889285Y-100268571D01*
X107917857Y-100240000D01*
X107946428Y-100182857D01*
X107946428Y-100068571D01*
X107917857Y-100011428D01*
X107917857Y-100525714D02*
X107946428Y-100582857D01*
X107946428Y-100697142D01*
X107917857Y-100754285D01*
X107860714Y-100782857D01*
X107832142Y-100782857D01*
X107775000Y-100754285D01*
X107746428Y-100697142D01*
X107746428Y-100611428D01*
X107717857Y-100554285D01*
X107660714Y-100525714D01*
X107632142Y-100525714D01*
X107575000Y-100554285D01*
X107546428Y-100611428D01*
X107546428Y-100697142D01*
X107575000Y-100754285D01*
X107546428Y-101440000D02*
X107946428Y-101554285D01*
X107660714Y-101668571D01*
X107946428Y-101782857D01*
X107546428Y-101897142D01*
X107946428Y-102125714D02*
X107546428Y-102125714D01*
X107346428Y-102125714D02*
X107375000Y-102097142D01*
X107403571Y-102125714D01*
X107375000Y-102154285D01*
X107346428Y-102125714D01*
X107403571Y-102125714D01*
X107546428Y-102325714D02*
X107546428Y-102554285D01*
X107346428Y-102411428D02*
X107860714Y-102411428D01*
X107917857Y-102440000D01*
X107946428Y-102497142D01*
X107946428Y-102554285D01*
X107946428Y-102754285D02*
X107346428Y-102754285D01*
X107946428Y-103011428D02*
X107632142Y-103011428D01*
X107575000Y-102982857D01*
X107546428Y-102925714D01*
X107546428Y-102840000D01*
X107575000Y-102782857D01*
X107603571Y-102754285D01*
X107946428Y-103754285D02*
X107346428Y-103754285D01*
X107575000Y-103754285D02*
X107546428Y-103811428D01*
X107546428Y-103925714D01*
X107575000Y-103982857D01*
X107603571Y-104011428D01*
X107660714Y-104040000D01*
X107832142Y-104040000D01*
X107889285Y-104011428D01*
X107917857Y-103982857D01*
X107946428Y-103925714D01*
X107946428Y-103811428D01*
X107917857Y-103754285D01*
X107946428Y-104297142D02*
X107546428Y-104297142D01*
X107660714Y-104297142D02*
X107603571Y-104325714D01*
X107575000Y-104354285D01*
X107546428Y-104411428D01*
X107546428Y-104468571D01*
X107946428Y-104754285D02*
X107917857Y-104697142D01*
X107889285Y-104668571D01*
X107832142Y-104640000D01*
X107660714Y-104640000D01*
X107603571Y-104668571D01*
X107575000Y-104697142D01*
X107546428Y-104754285D01*
X107546428Y-104840000D01*
X107575000Y-104897142D01*
X107603571Y-104925714D01*
X107660714Y-104954285D01*
X107832142Y-104954285D01*
X107889285Y-104925714D01*
X107917857Y-104897142D01*
X107946428Y-104840000D01*
X107946428Y-104754285D01*
X107546428Y-105154285D02*
X107946428Y-105268571D01*
X107660714Y-105382857D01*
X107946428Y-105497142D01*
X107546428Y-105611428D01*
X107917857Y-105811428D02*
X107946428Y-105868571D01*
X107946428Y-105982857D01*
X107917857Y-106040000D01*
X107860714Y-106068571D01*
X107832142Y-106068571D01*
X107775000Y-106040000D01*
X107746428Y-105982857D01*
X107746428Y-105897142D01*
X107717857Y-105840000D01*
X107660714Y-105811428D01*
X107632142Y-105811428D01*
X107575000Y-105840000D01*
X107546428Y-105897142D01*
X107546428Y-105982857D01*
X107575000Y-106040000D01*
X107917857Y-106554285D02*
X107946428Y-106497142D01*
X107946428Y-106382857D01*
X107917857Y-106325714D01*
X107860714Y-106297142D01*
X107632142Y-106297142D01*
X107575000Y-106325714D01*
X107546428Y-106382857D01*
X107546428Y-106497142D01*
X107575000Y-106554285D01*
X107632142Y-106582857D01*
X107689285Y-106582857D01*
X107746428Y-106297142D01*
X107946428Y-106840000D02*
X107546428Y-106840000D01*
X107660714Y-106840000D02*
X107603571Y-106868571D01*
X107575000Y-106897142D01*
X107546428Y-106954285D01*
X107546428Y-107011428D01*
X107946428Y-107668571D02*
X107346428Y-107668571D01*
X107946428Y-107925714D02*
X107632142Y-107925714D01*
X107575000Y-107897142D01*
X107546428Y-107840000D01*
X107546428Y-107754285D01*
X107575000Y-107697142D01*
X107603571Y-107668571D01*
X107946428Y-108211428D02*
X107546428Y-108211428D01*
X107346428Y-108211428D02*
X107375000Y-108182857D01*
X107403571Y-108211428D01*
X107375000Y-108240000D01*
X107346428Y-108211428D01*
X107403571Y-108211428D01*
X107917857Y-108468571D02*
X107946428Y-108525714D01*
X107946428Y-108640000D01*
X107917857Y-108697142D01*
X107860714Y-108725714D01*
X107832142Y-108725714D01*
X107775000Y-108697142D01*
X107746428Y-108640000D01*
X107746428Y-108554285D01*
X107717857Y-108497142D01*
X107660714Y-108468571D01*
X107632142Y-108468571D01*
X107575000Y-108497142D01*
X107546428Y-108554285D01*
X107546428Y-108640000D01*
X107575000Y-108697142D01*
X107546428Y-108897142D02*
X107546428Y-109125714D01*
X107346428Y-108982857D02*
X107860714Y-108982857D01*
X107917857Y-109011428D01*
X107946428Y-109068571D01*
X107946428Y-109125714D01*
X107946428Y-109411428D02*
X107917857Y-109354285D01*
X107889285Y-109325714D01*
X107832142Y-109297142D01*
X107660714Y-109297142D01*
X107603571Y-109325714D01*
X107575000Y-109354285D01*
X107546428Y-109411428D01*
X107546428Y-109497142D01*
X107575000Y-109554285D01*
X107603571Y-109582857D01*
X107660714Y-109611428D01*
X107832142Y-109611428D01*
X107889285Y-109582857D01*
X107917857Y-109554285D01*
X107946428Y-109497142D01*
X107946428Y-109411428D01*
X107946428Y-109868571D02*
X107546428Y-109868571D01*
X107660714Y-109868571D02*
X107603571Y-109897142D01*
X107575000Y-109925714D01*
X107546428Y-109982857D01*
X107546428Y-110040000D01*
X107546428Y-110182857D02*
X107946428Y-110325714D01*
X107546428Y-110468571D02*
X107946428Y-110325714D01*
X108089285Y-110268571D01*
X108117857Y-110240000D01*
X108146428Y-110182857D01*
X107946428Y-111411428D02*
X107632142Y-111411428D01*
X107575000Y-111382857D01*
X107546428Y-111325714D01*
X107546428Y-111211428D01*
X107575000Y-111154285D01*
X107917857Y-111411428D02*
X107946428Y-111354285D01*
X107946428Y-111211428D01*
X107917857Y-111154285D01*
X107860714Y-111125714D01*
X107803571Y-111125714D01*
X107746428Y-111154285D01*
X107717857Y-111211428D01*
X107717857Y-111354285D01*
X107689285Y-111411428D01*
X107946428Y-111782857D02*
X107917857Y-111725714D01*
X107860714Y-111697142D01*
X107346428Y-111697142D01*
X107946428Y-112097142D02*
X107917857Y-112040000D01*
X107889285Y-112011428D01*
X107832142Y-111982857D01*
X107660714Y-111982857D01*
X107603571Y-112011428D01*
X107575000Y-112040000D01*
X107546428Y-112097142D01*
X107546428Y-112182857D01*
X107575000Y-112240000D01*
X107603571Y-112268571D01*
X107660714Y-112297142D01*
X107832142Y-112297142D01*
X107889285Y-112268571D01*
X107917857Y-112240000D01*
X107946428Y-112182857D01*
X107946428Y-112097142D01*
X107546428Y-112468571D02*
X107546428Y-112697142D01*
X107346428Y-112554285D02*
X107860714Y-112554285D01*
X107917857Y-112582857D01*
X107946428Y-112640000D01*
X107946428Y-112697142D01*
X107889285Y-113354285D02*
X107917857Y-113382857D01*
X107946428Y-113354285D01*
X107917857Y-113325714D01*
X107889285Y-113354285D01*
X107946428Y-113354285D01*
X107575000Y-113354285D02*
X107603571Y-113382857D01*
X107632142Y-113354285D01*
X107603571Y-113325714D01*
X107575000Y-113354285D01*
X107632142Y-113354285D01*
X107946428Y-113640000D02*
X107346428Y-113640000D01*
X107346428Y-113868571D01*
X107375000Y-113925714D01*
X107403571Y-113954285D01*
X107460714Y-113982857D01*
X107546428Y-113982857D01*
X107603571Y-113954285D01*
X107632142Y-113925714D01*
X107660714Y-113868571D01*
X107660714Y-113640000D01*
D11*
X122104285Y-89210000D02*
X122104285Y-90543333D01*
X124199523Y-91114761D02*
X124199523Y-89210000D01*
X120199523Y-89210000D01*
X120199523Y-91114761D01*
X123818571Y-95114761D02*
X124009047Y-94924285D01*
X124199523Y-94352857D01*
X124199523Y-93971904D01*
X124009047Y-93400476D01*
X123628095Y-93019523D01*
X123247142Y-92829047D01*
X122485238Y-92638571D01*
X121913809Y-92638571D01*
X121151904Y-92829047D01*
X120770952Y-93019523D01*
X120390000Y-93400476D01*
X120199523Y-93971904D01*
X120199523Y-94352857D01*
X120390000Y-94924285D01*
X120580476Y-95114761D01*
X123056666Y-96638571D02*
X123056666Y-98543333D01*
X124199523Y-96257619D02*
X120199523Y-97590952D01*
X124199523Y-98924285D01*
X124009047Y-100067142D02*
X124199523Y-100638571D01*
X124199523Y-101590952D01*
X124009047Y-101971904D01*
X123818571Y-102162380D01*
X123437619Y-102352857D01*
X123056666Y-102352857D01*
X122675714Y-102162380D01*
X122485238Y-101971904D01*
X122294761Y-101590952D01*
X122104285Y-100829047D01*
X121913809Y-100448095D01*
X121723333Y-100257619D01*
X121342380Y-100067142D01*
X120961428Y-100067142D01*
X120580476Y-100257619D01*
X120390000Y-100448095D01*
X120199523Y-100829047D01*
X120199523Y-101781428D01*
X120390000Y-102352857D01*
X124199523Y-104067142D02*
X120199523Y-104067142D01*
X120199523Y-105590952D01*
X120390000Y-105971904D01*
X120580476Y-106162380D01*
X120961428Y-106352857D01*
X121532857Y-106352857D01*
X121913809Y-106162380D01*
X122104285Y-105971904D01*
X122294761Y-105590952D01*
X122294761Y-104067142D01*
D10*
X157577380Y-83201904D02*
X156577380Y-83201904D01*
X157291666Y-83535238D01*
X156577380Y-83868571D01*
X157577380Y-83868571D01*
X157577380Y-84773333D02*
X157053571Y-84773333D01*
X156958333Y-84725714D01*
X156910714Y-84630476D01*
X156910714Y-84440000D01*
X156958333Y-84344761D01*
X157529761Y-84773333D02*
X157577380Y-84678095D01*
X157577380Y-84440000D01*
X157529761Y-84344761D01*
X157434523Y-84297142D01*
X157339285Y-84297142D01*
X157244047Y-84344761D01*
X157196428Y-84440000D01*
X157196428Y-84678095D01*
X157148809Y-84773333D01*
X157577380Y-85678095D02*
X156577380Y-85678095D01*
X157529761Y-85678095D02*
X157577380Y-85582857D01*
X157577380Y-85392380D01*
X157529761Y-85297142D01*
X157482142Y-85249523D01*
X157386904Y-85201904D01*
X157101190Y-85201904D01*
X157005952Y-85249523D01*
X156958333Y-85297142D01*
X156910714Y-85392380D01*
X156910714Y-85582857D01*
X156958333Y-85678095D01*
X157529761Y-86535238D02*
X157577380Y-86440000D01*
X157577380Y-86249523D01*
X157529761Y-86154285D01*
X157434523Y-86106666D01*
X157053571Y-86106666D01*
X156958333Y-86154285D01*
X156910714Y-86249523D01*
X156910714Y-86440000D01*
X156958333Y-86535238D01*
X157053571Y-86582857D01*
X157148809Y-86582857D01*
X157244047Y-86106666D01*
X157577380Y-87773333D02*
X156577380Y-87773333D01*
X156958333Y-87773333D02*
X156910714Y-87868571D01*
X156910714Y-88059047D01*
X156958333Y-88154285D01*
X157005952Y-88201904D01*
X157101190Y-88249523D01*
X157386904Y-88249523D01*
X157482142Y-88201904D01*
X157529761Y-88154285D01*
X157577380Y-88059047D01*
X157577380Y-87868571D01*
X157529761Y-87773333D01*
X156910714Y-88582857D02*
X157577380Y-88820952D01*
X156910714Y-89059047D02*
X157577380Y-88820952D01*
X157815476Y-88725714D01*
X157863095Y-88678095D01*
X157910714Y-88582857D01*
X157291666Y-90154285D02*
X157291666Y-90630476D01*
X157577380Y-90059047D02*
X156577380Y-90392380D01*
X157577380Y-90725714D01*
X156910714Y-91059047D02*
X157577380Y-91059047D01*
X157005952Y-91059047D02*
X156958333Y-91106666D01*
X156910714Y-91201904D01*
X156910714Y-91344761D01*
X156958333Y-91440000D01*
X157053571Y-91487619D01*
X157577380Y-91487619D01*
X157577380Y-92392380D02*
X156577380Y-92392380D01*
X157529761Y-92392380D02*
X157577380Y-92297142D01*
X157577380Y-92106666D01*
X157529761Y-92011428D01*
X157482142Y-91963809D01*
X157386904Y-91916190D01*
X157101190Y-91916190D01*
X157005952Y-91963809D01*
X156958333Y-92011428D01*
X156910714Y-92106666D01*
X156910714Y-92297142D01*
X156958333Y-92392380D01*
X157577380Y-92868571D02*
X156910714Y-92868571D01*
X157101190Y-92868571D02*
X157005952Y-92916190D01*
X156958333Y-92963809D01*
X156910714Y-93059047D01*
X156910714Y-93154285D01*
X157529761Y-93868571D02*
X157577380Y-93773333D01*
X157577380Y-93582857D01*
X157529761Y-93487619D01*
X157434523Y-93440000D01*
X157053571Y-93440000D01*
X156958333Y-93487619D01*
X156910714Y-93582857D01*
X156910714Y-93773333D01*
X156958333Y-93868571D01*
X157053571Y-93916190D01*
X157148809Y-93916190D01*
X157244047Y-93440000D01*
X156910714Y-94249523D02*
X157577380Y-94440000D01*
X157101190Y-94630476D01*
X157577380Y-94820952D01*
X156910714Y-95011428D01*
X157577380Y-96154285D02*
X156577380Y-96154285D01*
X157577380Y-96725714D01*
X156577380Y-96725714D01*
X157529761Y-97582857D02*
X157577380Y-97487619D01*
X157577380Y-97297142D01*
X157529761Y-97201904D01*
X157434523Y-97154285D01*
X157053571Y-97154285D01*
X156958333Y-97201904D01*
X156910714Y-97297142D01*
X156910714Y-97487619D01*
X156958333Y-97582857D01*
X157053571Y-97630476D01*
X157148809Y-97630476D01*
X157244047Y-97154285D01*
X156910714Y-97963809D02*
X157577380Y-98154285D01*
X157101190Y-98344761D01*
X157577380Y-98535238D01*
X156910714Y-98725714D01*
X157577380Y-99106666D02*
X156910714Y-99106666D01*
X157005952Y-99106666D02*
X156958333Y-99154285D01*
X156910714Y-99249523D01*
X156910714Y-99392380D01*
X156958333Y-99487619D01*
X157053571Y-99535238D01*
X157577380Y-99535238D01*
X157053571Y-99535238D02*
X156958333Y-99582857D01*
X156910714Y-99678095D01*
X156910714Y-99820952D01*
X156958333Y-99916190D01*
X157053571Y-99963809D01*
X157577380Y-99963809D01*
X157577380Y-100868571D02*
X157053571Y-100868571D01*
X156958333Y-100820952D01*
X156910714Y-100725714D01*
X156910714Y-100535238D01*
X156958333Y-100440000D01*
X157529761Y-100868571D02*
X157577380Y-100773333D01*
X157577380Y-100535238D01*
X157529761Y-100440000D01*
X157434523Y-100392380D01*
X157339285Y-100392380D01*
X157244047Y-100440000D01*
X157196428Y-100535238D01*
X157196428Y-100773333D01*
X157148809Y-100868571D01*
X156910714Y-101344761D02*
X157577380Y-101344761D01*
X157005952Y-101344761D02*
X156958333Y-101392380D01*
X156910714Y-101487619D01*
X156910714Y-101630476D01*
X156958333Y-101725714D01*
X157053571Y-101773333D01*
X157577380Y-101773333D01*
X157958333Y-102535238D02*
X157910714Y-102487619D01*
X157767857Y-102392380D01*
X157672619Y-102344761D01*
X157529761Y-102297142D01*
X157291666Y-102249523D01*
X157101190Y-102249523D01*
X156863095Y-102297142D01*
X156720238Y-102344761D01*
X156625000Y-102392380D01*
X156482142Y-102487619D01*
X156434523Y-102535238D01*
X157577380Y-102916190D02*
X156577380Y-102916190D01*
X157291666Y-103249523D01*
X156577380Y-103582857D01*
X157577380Y-103582857D01*
X157529761Y-104011428D02*
X157577380Y-104154285D01*
X157577380Y-104392380D01*
X157529761Y-104487619D01*
X157482142Y-104535238D01*
X157386904Y-104582857D01*
X157291666Y-104582857D01*
X157196428Y-104535238D01*
X157148809Y-104487619D01*
X157101190Y-104392380D01*
X157053571Y-104201904D01*
X157005952Y-104106666D01*
X156958333Y-104059047D01*
X156863095Y-104011428D01*
X156767857Y-104011428D01*
X156672619Y-104059047D01*
X156625000Y-104106666D01*
X156577380Y-104201904D01*
X156577380Y-104440000D01*
X156625000Y-104582857D01*
X157482142Y-105582857D02*
X157529761Y-105535238D01*
X157577380Y-105392380D01*
X157577380Y-105297142D01*
X157529761Y-105154285D01*
X157434523Y-105059047D01*
X157339285Y-105011428D01*
X157148809Y-104963809D01*
X157005952Y-104963809D01*
X156815476Y-105011428D01*
X156720238Y-105059047D01*
X156625000Y-105154285D01*
X156577380Y-105297142D01*
X156577380Y-105392380D01*
X156625000Y-105535238D01*
X156672619Y-105582857D01*
X157577380Y-106011428D02*
X156577380Y-106011428D01*
X156577380Y-106392380D01*
X156625000Y-106487619D01*
X156672619Y-106535238D01*
X156767857Y-106582857D01*
X156910714Y-106582857D01*
X157005952Y-106535238D01*
X157053571Y-106487619D01*
X157101190Y-106392380D01*
X157101190Y-106011428D01*
X157053571Y-107011428D02*
X157053571Y-107344761D01*
X157577380Y-107487619D02*
X157577380Y-107011428D01*
X156577380Y-107011428D01*
X156577380Y-107487619D01*
X156672619Y-108630476D02*
X156625000Y-108678095D01*
X156577380Y-108773333D01*
X156577380Y-109011428D01*
X156625000Y-109106666D01*
X156672619Y-109154285D01*
X156767857Y-109201904D01*
X156863095Y-109201904D01*
X157005952Y-109154285D01*
X157577380Y-108582857D01*
X157577380Y-109201904D01*
X156577380Y-109820952D02*
X156577380Y-109916190D01*
X156625000Y-110011428D01*
X156672619Y-110059047D01*
X156767857Y-110106666D01*
X156958333Y-110154285D01*
X157196428Y-110154285D01*
X157386904Y-110106666D01*
X157482142Y-110059047D01*
X157529761Y-110011428D01*
X157577380Y-109916190D01*
X157577380Y-109820952D01*
X157529761Y-109725714D01*
X157482142Y-109678095D01*
X157386904Y-109630476D01*
X157196428Y-109582857D01*
X156958333Y-109582857D01*
X156767857Y-109630476D01*
X156672619Y-109678095D01*
X156625000Y-109725714D01*
X156577380Y-109820952D01*
X157577380Y-111106666D02*
X157577380Y-110535238D01*
X157577380Y-110820952D02*
X156577380Y-110820952D01*
X156720238Y-110725714D01*
X156815476Y-110630476D01*
X156863095Y-110535238D01*
X157577380Y-111582857D02*
X157577380Y-111773333D01*
X157529761Y-111868571D01*
X157482142Y-111916190D01*
X157339285Y-112011428D01*
X157148809Y-112059047D01*
X156767857Y-112059047D01*
X156672619Y-112011428D01*
X156625000Y-111963809D01*
X156577380Y-111868571D01*
X156577380Y-111678095D01*
X156625000Y-111582857D01*
X156672619Y-111535238D01*
X156767857Y-111487619D01*
X157005952Y-111487619D01*
X157101190Y-111535238D01*
X157148809Y-111582857D01*
X157196428Y-111678095D01*
X157196428Y-111868571D01*
X157148809Y-111963809D01*
X157101190Y-112011428D01*
X157005952Y-112059047D01*
X157958333Y-112392380D02*
X157910714Y-112440000D01*
X157767857Y-112535238D01*
X157672619Y-112582857D01*
X157529761Y-112630476D01*
X157291666Y-112678095D01*
X157101190Y-112678095D01*
X156863095Y-112630476D01*
X156720238Y-112582857D01*
X156625000Y-112535238D01*
X156482142Y-112440000D01*
X156434523Y-112392380D01*
X159227380Y-82820952D02*
X158227380Y-82820952D01*
X159227380Y-83249523D02*
X158703571Y-83249523D01*
X158608333Y-83201904D01*
X158560714Y-83106666D01*
X158560714Y-82963809D01*
X158608333Y-82868571D01*
X158655952Y-82820952D01*
X158560714Y-83582857D02*
X158560714Y-83963809D01*
X158227380Y-83725714D02*
X159084523Y-83725714D01*
X159179761Y-83773333D01*
X159227380Y-83868571D01*
X159227380Y-83963809D01*
X158560714Y-84154285D02*
X158560714Y-84535238D01*
X158227380Y-84297142D02*
X159084523Y-84297142D01*
X159179761Y-84344761D01*
X159227380Y-84440000D01*
X159227380Y-84535238D01*
X158560714Y-84868571D02*
X159560714Y-84868571D01*
X158608333Y-84868571D02*
X158560714Y-84963809D01*
X158560714Y-85154285D01*
X158608333Y-85249523D01*
X158655952Y-85297142D01*
X158751190Y-85344761D01*
X159036904Y-85344761D01*
X159132142Y-85297142D01*
X159179761Y-85249523D01*
X159227380Y-85154285D01*
X159227380Y-84963809D01*
X159179761Y-84868571D01*
X159179761Y-85725714D02*
X159227380Y-85820952D01*
X159227380Y-86011428D01*
X159179761Y-86106666D01*
X159084523Y-86154285D01*
X159036904Y-86154285D01*
X158941666Y-86106666D01*
X158894047Y-86011428D01*
X158894047Y-85868571D01*
X158846428Y-85773333D01*
X158751190Y-85725714D01*
X158703571Y-85725714D01*
X158608333Y-85773333D01*
X158560714Y-85868571D01*
X158560714Y-86011428D01*
X158608333Y-86106666D01*
X159132142Y-86582857D02*
X159179761Y-86630476D01*
X159227380Y-86582857D01*
X159179761Y-86535238D01*
X159132142Y-86582857D01*
X159227380Y-86582857D01*
X158608333Y-86582857D02*
X158655952Y-86630476D01*
X158703571Y-86582857D01*
X158655952Y-86535238D01*
X158608333Y-86582857D01*
X158703571Y-86582857D01*
X158179761Y-87773333D02*
X159465476Y-86916190D01*
X158179761Y-88820952D02*
X159465476Y-87963809D01*
X158560714Y-89059047D02*
X159227380Y-89249523D01*
X158751190Y-89440000D01*
X159227380Y-89630476D01*
X158560714Y-89820952D01*
X158560714Y-90106666D02*
X159227380Y-90297142D01*
X158751190Y-90487619D01*
X159227380Y-90678095D01*
X158560714Y-90868571D01*
X158560714Y-91154285D02*
X159227380Y-91344761D01*
X158751190Y-91535238D01*
X159227380Y-91725714D01*
X158560714Y-91916190D01*
X159132142Y-92297142D02*
X159179761Y-92344761D01*
X159227380Y-92297142D01*
X159179761Y-92249523D01*
X159132142Y-92297142D01*
X159227380Y-92297142D01*
X159227380Y-92916190D02*
X159179761Y-92820952D01*
X159084523Y-92773333D01*
X158227380Y-92773333D01*
X159227380Y-93297142D02*
X158560714Y-93297142D01*
X158227380Y-93297142D02*
X158275000Y-93249523D01*
X158322619Y-93297142D01*
X158275000Y-93344761D01*
X158227380Y-93297142D01*
X158322619Y-93297142D01*
X158560714Y-93773333D02*
X159227380Y-93773333D01*
X158655952Y-93773333D02*
X158608333Y-93820952D01*
X158560714Y-93916190D01*
X158560714Y-94059047D01*
X158608333Y-94154285D01*
X158703571Y-94201904D01*
X159227380Y-94201904D01*
X159227380Y-94678095D02*
X158227380Y-94678095D01*
X158846428Y-94773333D02*
X159227380Y-95059047D01*
X158560714Y-95059047D02*
X158941666Y-94678095D01*
X159179761Y-95868571D02*
X159227380Y-95773333D01*
X159227380Y-95582857D01*
X159179761Y-95487619D01*
X159084523Y-95440000D01*
X158703571Y-95440000D01*
X158608333Y-95487619D01*
X158560714Y-95582857D01*
X158560714Y-95773333D01*
X158608333Y-95868571D01*
X158703571Y-95916190D01*
X158798809Y-95916190D01*
X158894047Y-95440000D01*
X159227380Y-96773333D02*
X158227380Y-96773333D01*
X159179761Y-96773333D02*
X159227380Y-96678095D01*
X159227380Y-96487619D01*
X159179761Y-96392380D01*
X159132142Y-96344761D01*
X159036904Y-96297142D01*
X158751190Y-96297142D01*
X158655952Y-96344761D01*
X158608333Y-96392380D01*
X158560714Y-96487619D01*
X158560714Y-96678095D01*
X158608333Y-96773333D01*
X159227380Y-97249523D02*
X158560714Y-97249523D01*
X158227380Y-97249523D02*
X158275000Y-97201904D01*
X158322619Y-97249523D01*
X158275000Y-97297142D01*
X158227380Y-97249523D01*
X158322619Y-97249523D01*
X158560714Y-97725714D02*
X159227380Y-97725714D01*
X158655952Y-97725714D02*
X158608333Y-97773333D01*
X158560714Y-97868571D01*
X158560714Y-98011428D01*
X158608333Y-98106666D01*
X158703571Y-98154285D01*
X159227380Y-98154285D01*
X159132142Y-98630476D02*
X159179761Y-98678095D01*
X159227380Y-98630476D01*
X159179761Y-98582857D01*
X159132142Y-98630476D01*
X159227380Y-98630476D01*
X159179761Y-99535238D02*
X159227380Y-99440000D01*
X159227380Y-99249523D01*
X159179761Y-99154285D01*
X159132142Y-99106666D01*
X159036904Y-99059047D01*
X158751190Y-99059047D01*
X158655952Y-99106666D01*
X158608333Y-99154285D01*
X158560714Y-99249523D01*
X158560714Y-99440000D01*
X158608333Y-99535238D01*
X159227380Y-100106666D02*
X159179761Y-100011428D01*
X159132142Y-99963809D01*
X159036904Y-99916190D01*
X158751190Y-99916190D01*
X158655952Y-99963809D01*
X158608333Y-100011428D01*
X158560714Y-100106666D01*
X158560714Y-100249523D01*
X158608333Y-100344761D01*
X158655952Y-100392380D01*
X158751190Y-100440000D01*
X159036904Y-100440000D01*
X159132142Y-100392380D01*
X159179761Y-100344761D01*
X159227380Y-100249523D01*
X159227380Y-100106666D01*
X159227380Y-100868571D02*
X158560714Y-100868571D01*
X158655952Y-100868571D02*
X158608333Y-100916190D01*
X158560714Y-101011428D01*
X158560714Y-101154285D01*
X158608333Y-101249523D01*
X158703571Y-101297142D01*
X159227380Y-101297142D01*
X158703571Y-101297142D02*
X158608333Y-101344761D01*
X158560714Y-101440000D01*
X158560714Y-101582857D01*
X158608333Y-101678095D01*
X158703571Y-101725714D01*
X159227380Y-101725714D01*
X158179761Y-102916190D02*
X159465476Y-102059047D01*
X159227380Y-103249523D02*
X158560714Y-103249523D01*
X158227380Y-103249523D02*
X158275000Y-103201904D01*
X158322619Y-103249523D01*
X158275000Y-103297142D01*
X158227380Y-103249523D01*
X158322619Y-103249523D01*
X158560714Y-103725714D02*
X159227380Y-103725714D01*
X158655952Y-103725714D02*
X158608333Y-103773333D01*
X158560714Y-103868571D01*
X158560714Y-104011428D01*
X158608333Y-104106666D01*
X158703571Y-104154285D01*
X159227380Y-104154285D01*
X158179761Y-105344761D02*
X159465476Y-104487619D01*
X158560714Y-105678095D02*
X159227380Y-105678095D01*
X158655952Y-105678095D02*
X158608333Y-105725714D01*
X158560714Y-105820952D01*
X158560714Y-105963809D01*
X158608333Y-106059047D01*
X158703571Y-106106666D01*
X159227380Y-106106666D01*
X159179761Y-106963809D02*
X159227380Y-106868571D01*
X159227380Y-106678095D01*
X159179761Y-106582857D01*
X159084523Y-106535238D01*
X158703571Y-106535238D01*
X158608333Y-106582857D01*
X158560714Y-106678095D01*
X158560714Y-106868571D01*
X158608333Y-106963809D01*
X158703571Y-107011428D01*
X158798809Y-107011428D01*
X158894047Y-106535238D01*
X159227380Y-107440000D02*
X158560714Y-107440000D01*
X158655952Y-107440000D02*
X158608333Y-107487619D01*
X158560714Y-107582857D01*
X158560714Y-107725714D01*
X158608333Y-107820952D01*
X158703571Y-107868571D01*
X159227380Y-107868571D01*
X158703571Y-107868571D02*
X158608333Y-107916190D01*
X158560714Y-108011428D01*
X158560714Y-108154285D01*
X158608333Y-108249523D01*
X158703571Y-108297142D01*
X159227380Y-108297142D01*
X159227380Y-108773333D02*
X158560714Y-108773333D01*
X158227380Y-108773333D02*
X158275000Y-108725714D01*
X158322619Y-108773333D01*
X158275000Y-108820952D01*
X158227380Y-108773333D01*
X158322619Y-108773333D01*
X159227380Y-109392380D02*
X159179761Y-109297142D01*
X159084523Y-109249523D01*
X158227380Y-109249523D01*
X159227380Y-110201904D02*
X158703571Y-110201904D01*
X158608333Y-110154285D01*
X158560714Y-110059047D01*
X158560714Y-109868571D01*
X158608333Y-109773333D01*
X159179761Y-110201904D02*
X159227380Y-110106666D01*
X159227380Y-109868571D01*
X159179761Y-109773333D01*
X159084523Y-109725714D01*
X158989285Y-109725714D01*
X158894047Y-109773333D01*
X158846428Y-109868571D01*
X158846428Y-110106666D01*
X158798809Y-110201904D01*
X158560714Y-110678095D02*
X159227380Y-110678095D01*
X158655952Y-110678095D02*
X158608333Y-110725714D01*
X158560714Y-110820952D01*
X158560714Y-110963809D01*
X158608333Y-111059047D01*
X158703571Y-111106666D01*
X159227380Y-111106666D01*
X159227380Y-112011428D02*
X158227380Y-112011428D01*
X159179761Y-112011428D02*
X159227380Y-111916190D01*
X159227380Y-111725714D01*
X159179761Y-111630476D01*
X159132142Y-111582857D01*
X159036904Y-111535238D01*
X158751190Y-111535238D01*
X158655952Y-111582857D01*
X158608333Y-111630476D01*
X158560714Y-111725714D01*
X158560714Y-111916190D01*
X158608333Y-112011428D01*
X158179761Y-113201904D02*
X159465476Y-112344761D01*
D11*
X82849523Y-82765714D02*
X80944761Y-81432380D01*
X82849523Y-80480000D02*
X78849523Y-80480000D01*
X78849523Y-82003809D01*
X79040000Y-82384761D01*
X79230476Y-82575238D01*
X79611428Y-82765714D01*
X80182857Y-82765714D01*
X80563809Y-82575238D01*
X80754285Y-82384761D01*
X80944761Y-82003809D01*
X80944761Y-80480000D01*
X82849523Y-85051428D02*
X82659047Y-84670476D01*
X82468571Y-84480000D01*
X82087619Y-84289523D01*
X80944761Y-84289523D01*
X80563809Y-84480000D01*
X80373333Y-84670476D01*
X80182857Y-85051428D01*
X80182857Y-85622857D01*
X80373333Y-86003809D01*
X80563809Y-86194285D01*
X80944761Y-86384761D01*
X82087619Y-86384761D01*
X82468571Y-86194285D01*
X82659047Y-86003809D01*
X82849523Y-85622857D01*
X82849523Y-85051428D01*
X82849523Y-88099047D02*
X78849523Y-88099047D01*
X80373333Y-88099047D02*
X80182857Y-88480000D01*
X80182857Y-89241904D01*
X80373333Y-89622857D01*
X80563809Y-89813333D01*
X80944761Y-90003809D01*
X82087619Y-90003809D01*
X82468571Y-89813333D01*
X82659047Y-89622857D01*
X82849523Y-89241904D01*
X82849523Y-88480000D01*
X82659047Y-88099047D01*
X82849523Y-92289523D02*
X82659047Y-91908571D01*
X82468571Y-91718095D01*
X82087619Y-91527619D01*
X80944761Y-91527619D01*
X80563809Y-91718095D01*
X80373333Y-91908571D01*
X80182857Y-92289523D01*
X80182857Y-92860952D01*
X80373333Y-93241904D01*
X80563809Y-93432380D01*
X80944761Y-93622857D01*
X82087619Y-93622857D01*
X82468571Y-93432380D01*
X82659047Y-93241904D01*
X82849523Y-92860952D01*
X82849523Y-92289523D01*
X80182857Y-94765714D02*
X80182857Y-96289523D01*
X78849523Y-95337142D02*
X82278095Y-95337142D01*
X82659047Y-95527619D01*
X82849523Y-95908571D01*
X82849523Y-96289523D01*
X82468571Y-102956190D02*
X82659047Y-102765714D01*
X82849523Y-102194285D01*
X82849523Y-101813333D01*
X82659047Y-101241904D01*
X82278095Y-100860952D01*
X81897142Y-100670476D01*
X81135238Y-100480000D01*
X80563809Y-100480000D01*
X79801904Y-100670476D01*
X79420952Y-100860952D01*
X79040000Y-101241904D01*
X78849523Y-101813333D01*
X78849523Y-102194285D01*
X79040000Y-102765714D01*
X79230476Y-102956190D01*
X82849523Y-105241904D02*
X82659047Y-104860952D01*
X82468571Y-104670476D01*
X82087619Y-104480000D01*
X80944761Y-104480000D01*
X80563809Y-104670476D01*
X80373333Y-104860952D01*
X80182857Y-105241904D01*
X80182857Y-105813333D01*
X80373333Y-106194285D01*
X80563809Y-106384761D01*
X80944761Y-106575238D01*
X82087619Y-106575238D01*
X82468571Y-106384761D01*
X82659047Y-106194285D01*
X82849523Y-105813333D01*
X82849523Y-105241904D01*
X80182857Y-108289523D02*
X82849523Y-108289523D01*
X80563809Y-108289523D02*
X80373333Y-108480000D01*
X80182857Y-108860952D01*
X80182857Y-109432380D01*
X80373333Y-109813333D01*
X80754285Y-110003809D01*
X82849523Y-110003809D01*
X80182857Y-111337142D02*
X80182857Y-112860952D01*
X78849523Y-111908571D02*
X82278095Y-111908571D01*
X82659047Y-112099047D01*
X82849523Y-112480000D01*
X82849523Y-112860952D01*
X82849523Y-114194285D02*
X80182857Y-114194285D01*
X80944761Y-114194285D02*
X80563809Y-114384761D01*
X80373333Y-114575238D01*
X80182857Y-114956190D01*
X80182857Y-115337142D01*
X82849523Y-117241904D02*
X82659047Y-116860952D01*
X82468571Y-116670476D01*
X82087619Y-116480000D01*
X80944761Y-116480000D01*
X80563809Y-116670476D01*
X80373333Y-116860952D01*
X80182857Y-117241904D01*
X80182857Y-117813333D01*
X80373333Y-118194285D01*
X80563809Y-118384761D01*
X80944761Y-118575238D01*
X82087619Y-118575238D01*
X82468571Y-118384761D01*
X82659047Y-118194285D01*
X82849523Y-117813333D01*
X82849523Y-117241904D01*
X82849523Y-120860952D02*
X82659047Y-120480000D01*
X82278095Y-120289523D01*
X78849523Y-120289523D01*
X87254285Y-80575238D02*
X87444761Y-81146666D01*
X87635238Y-81337142D01*
X88016190Y-81527619D01*
X88587619Y-81527619D01*
X88968571Y-81337142D01*
X89159047Y-81146666D01*
X89349523Y-80765714D01*
X89349523Y-79241904D01*
X85349523Y-79241904D01*
X85349523Y-80575238D01*
X85540000Y-80956190D01*
X85730476Y-81146666D01*
X86111428Y-81337142D01*
X86492380Y-81337142D01*
X86873333Y-81146666D01*
X87063809Y-80956190D01*
X87254285Y-80575238D01*
X87254285Y-79241904D01*
X89349523Y-83813333D02*
X89159047Y-83432380D01*
X88968571Y-83241904D01*
X88587619Y-83051428D01*
X87444761Y-83051428D01*
X87063809Y-83241904D01*
X86873333Y-83432380D01*
X86682857Y-83813333D01*
X86682857Y-84384761D01*
X86873333Y-84765714D01*
X87063809Y-84956190D01*
X87444761Y-85146666D01*
X88587619Y-85146666D01*
X88968571Y-84956190D01*
X89159047Y-84765714D01*
X89349523Y-84384761D01*
X89349523Y-83813333D01*
X89349523Y-88575238D02*
X87254285Y-88575238D01*
X86873333Y-88384761D01*
X86682857Y-88003809D01*
X86682857Y-87241904D01*
X86873333Y-86860952D01*
X89159047Y-88575238D02*
X89349523Y-88194285D01*
X89349523Y-87241904D01*
X89159047Y-86860952D01*
X88778095Y-86670476D01*
X88397142Y-86670476D01*
X88016190Y-86860952D01*
X87825714Y-87241904D01*
X87825714Y-88194285D01*
X87635238Y-88575238D01*
X89349523Y-90480000D02*
X86682857Y-90480000D01*
X87444761Y-90480000D02*
X87063809Y-90670476D01*
X86873333Y-90860952D01*
X86682857Y-91241904D01*
X86682857Y-91622857D01*
X89349523Y-94670476D02*
X85349523Y-94670476D01*
X89159047Y-94670476D02*
X89349523Y-94289523D01*
X89349523Y-93527619D01*
X89159047Y-93146666D01*
X88968571Y-92956190D01*
X88587619Y-92765714D01*
X87444761Y-92765714D01*
X87063809Y-92956190D01*
X86873333Y-93146666D01*
X86682857Y-93527619D01*
X86682857Y-94289523D01*
X86873333Y-94670476D01*
X86682857Y-99241904D02*
X89349523Y-100194285D01*
X86682857Y-101146666D01*
X89159047Y-104194285D02*
X89349523Y-103813333D01*
X89349523Y-103051428D01*
X89159047Y-102670476D01*
X88778095Y-102480000D01*
X87254285Y-102480000D01*
X86873333Y-102670476D01*
X86682857Y-103051428D01*
X86682857Y-103813333D01*
X86873333Y-104194285D01*
X87254285Y-104384761D01*
X87635238Y-104384761D01*
X88016190Y-102480000D01*
X89349523Y-106099047D02*
X86682857Y-106099047D01*
X87444761Y-106099047D02*
X87063809Y-106289523D01*
X86873333Y-106480000D01*
X86682857Y-106860952D01*
X86682857Y-107241904D01*
X88968571Y-108575238D02*
X89159047Y-108765714D01*
X89349523Y-108575238D01*
X89159047Y-108384761D01*
X88968571Y-108575238D01*
X89349523Y-108575238D01*
X85349523Y-111241904D02*
X85349523Y-111622857D01*
X85540000Y-112003809D01*
X85730476Y-112194285D01*
X86111428Y-112384761D01*
X86873333Y-112575238D01*
X87825714Y-112575238D01*
X88587619Y-112384761D01*
X88968571Y-112194285D01*
X89159047Y-112003809D01*
X89349523Y-111622857D01*
X89349523Y-111241904D01*
X89159047Y-110860952D01*
X88968571Y-110670476D01*
X88587619Y-110480000D01*
X87825714Y-110289523D01*
X86873333Y-110289523D01*
X86111428Y-110480000D01*
X85730476Y-110670476D01*
X85540000Y-110860952D01*
X85349523Y-111241904D01*
X88968571Y-114289523D02*
X89159047Y-114480000D01*
X89349523Y-114289523D01*
X89159047Y-114099047D01*
X88968571Y-114289523D01*
X89349523Y-114289523D01*
X89349523Y-118289523D02*
X89349523Y-116003809D01*
X89349523Y-117146666D02*
X85349523Y-117146666D01*
X85920952Y-116765714D01*
X86301904Y-116384761D01*
X86492380Y-116003809D01*
X86682857Y-120003809D02*
X90682857Y-120003809D01*
X86873333Y-120003809D02*
X86682857Y-120384761D01*
X86682857Y-121146666D01*
X86873333Y-121527619D01*
X87063809Y-121718095D01*
X87444761Y-121908571D01*
X88587619Y-121908571D01*
X88968571Y-121718095D01*
X89159047Y-121527619D01*
X89349523Y-121146666D01*
X89349523Y-120384761D01*
X89159047Y-120003809D01*
D10*
X102070000Y-72540000D02*
X141440000Y-72540000D01*
X95720000Y-66190000D02*
X102070000Y-72540000D01*
X94450000Y-66190000D02*
X95720000Y-66190000D01*
X74130000Y-66190000D02*
X94450000Y-66190000D01*
X72860000Y-67460000D02*
X74130000Y-66190000D01*
X72860000Y-128420000D02*
X72860000Y-67460000D01*
X74130000Y-129690000D02*
X72860000Y-128420000D01*
X95720000Y-129690000D02*
X74130000Y-129690000D01*
X102070000Y-123340000D02*
X95720000Y-129690000D01*
X141440000Y-123340000D02*
X102070000Y-123340000D01*
M02*
