G04 #@! TF.GenerationSoftware,KiCad,Pcbnew,(5.1.2)-2*
G04 #@! TF.CreationDate,2019-07-24T13:36:26-05:00*
G04 #@! TF.ProjectId,ECE 597 PCB,45434520-3539-4372-9050-43422e6b6963,rev?*
G04 #@! TF.SameCoordinates,Original*
G04 #@! TF.FileFunction,Copper,L1,Top*
G04 #@! TF.FilePolarity,Positive*
%FSLAX46Y46*%
G04 Gerber Fmt 4.6, Leading zero omitted, Abs format (unit mm)*
G04 Created by KiCad (PCBNEW (5.1.2)-2) date 2019-07-24 13:36:26*
%MOMM*%
%LPD*%
G04 APERTURE LIST*
G04 #@! TA.AperFunction,NonConductor*
%ADD10C,0.150000*%
G04 #@! TD*
G04 #@! TA.AperFunction,ComponentPad*
%ADD11R,1.524000X1.524000*%
G04 #@! TD*
G04 #@! TA.AperFunction,ComponentPad*
%ADD12C,1.524000*%
G04 #@! TD*
G04 #@! TA.AperFunction,Conductor*
%ADD13C,0.100000*%
G04 #@! TD*
G04 #@! TA.AperFunction,ComponentPad*
%ADD14C,1.200000*%
G04 #@! TD*
G04 #@! TA.AperFunction,ComponentPad*
%ADD15O,1.200000X1.750000*%
G04 #@! TD*
G04 #@! TA.AperFunction,Conductor*
%ADD16C,0.250000*%
G04 #@! TD*
G04 #@! TA.AperFunction,Conductor*
%ADD17C,0.254000*%
G04 #@! TD*
G04 APERTURE END LIST*
D10*
X161760000Y-75080000D02*
X161760000Y-85240000D01*
X159220000Y-72540000D02*
X161760000Y-75080000D01*
X146520000Y-72540000D02*
X159220000Y-72540000D01*
X161760000Y-120800000D02*
X161760000Y-110640000D01*
X159220000Y-123340000D02*
X161760000Y-120800000D01*
X141440000Y-123340000D02*
X159220000Y-123340000D01*
X161760000Y-85240000D02*
X161760000Y-110640000D01*
X146520000Y-72540000D02*
X141440000Y-72540000D01*
X102070000Y-72540000D02*
X141440000Y-72540000D01*
X95720000Y-66190000D02*
X102070000Y-72540000D01*
X94450000Y-66190000D02*
X95720000Y-66190000D01*
X74130000Y-66190000D02*
X94450000Y-66190000D01*
X72860000Y-67460000D02*
X74130000Y-66190000D01*
X72860000Y-128420000D02*
X72860000Y-67460000D01*
X74130000Y-129690000D02*
X72860000Y-128420000D01*
X95720000Y-129690000D02*
X74130000Y-129690000D01*
X102070000Y-123340000D02*
X95720000Y-129690000D01*
X141440000Y-123340000D02*
X102070000Y-123340000D01*
D11*
G04 #@! TO.P,U6,19*
G04 #@! TO.N,N/C*
X91910000Y-91590000D03*
D12*
G04 #@! TO.P,U6,18*
X91910000Y-95400000D03*
G04 #@! TO.P,U6,17*
X91910000Y-96670000D03*
G04 #@! TO.P,U6,16*
X84290000Y-68730000D03*
G04 #@! TO.P,U6,15*
X84290000Y-71270000D03*
G04 #@! TO.P,U6,14*
X86830000Y-71270000D03*
G04 #@! TO.P,U6,13*
X86830000Y-68730000D03*
G04 #@! TO.P,U6,12*
G04 #@! TO.N,Net-(U1-Pad10)*
X91910000Y-68730000D03*
G04 #@! TO.P,U6,11*
X94450000Y-68730000D03*
G04 #@! TO.P,U6,10*
G04 #@! TO.N,Net-(U6-Pad10)*
X94450000Y-71270000D03*
G04 #@! TO.P,U6,9*
G04 #@! TO.N,Net-(U6-Pad9)*
X94450000Y-73810000D03*
G04 #@! TO.P,U6,8*
G04 #@! TO.N,Net-(U1-Pad7)*
X94450000Y-76350000D03*
G04 #@! TO.P,U6,7*
G04 #@! TO.N,Net-(U1-Pad8)*
X94450000Y-78890000D03*
G04 #@! TO.P,U6,6*
G04 #@! TO.N,Net-(U1-Pad11)*
X94450000Y-81430000D03*
G04 #@! TO.P,U6,5*
G04 #@! TO.N,Net-(U1-Pad12)*
X94450000Y-83970000D03*
G04 #@! TO.P,U6,4*
G04 #@! TO.N,Net-(U2-Pad7)*
X94450000Y-86510000D03*
G04 #@! TO.P,U6,3*
G04 #@! TO.N,Net-(U2-Pad8)*
X94450000Y-89050000D03*
G04 #@! TO.P,U6,2*
G04 #@! TO.N,Net-(U6-Pad2)*
X94450000Y-91590000D03*
D11*
G04 #@! TO.P,U6,1*
G04 #@! TO.N,Net-(J1-Pad1)*
X94450000Y-94130000D03*
D12*
G04 #@! TO.P,U6,0*
G04 #@! TO.N,Net-(U6-Pad0)*
X94450000Y-96670000D03*
G04 #@! TD*
D11*
G04 #@! TO.P,U5,19*
G04 #@! TO.N,N/C*
X91910000Y-122070000D03*
D12*
G04 #@! TO.P,U5,18*
X91910000Y-125880000D03*
G04 #@! TO.P,U5,17*
X91910000Y-127150000D03*
G04 #@! TO.P,U5,16*
X84290000Y-99210000D03*
G04 #@! TO.P,U5,15*
X84290000Y-101750000D03*
G04 #@! TO.P,U5,14*
X86830000Y-101750000D03*
G04 #@! TO.P,U5,13*
X86830000Y-99210000D03*
G04 #@! TO.P,U5,12*
G04 #@! TO.N,Net-(U1-Pad10)*
X91910000Y-99210000D03*
G04 #@! TO.P,U5,11*
X94450000Y-99210000D03*
G04 #@! TO.P,U5,10*
G04 #@! TO.N,Net-(U5-Pad10)*
X94450000Y-101750000D03*
G04 #@! TO.P,U5,9*
G04 #@! TO.N,Net-(U5-Pad9)*
X94450000Y-104290000D03*
G04 #@! TO.P,U5,8*
G04 #@! TO.N,Net-(U2-Pad11)*
X94450000Y-106830000D03*
G04 #@! TO.P,U5,7*
G04 #@! TO.N,Net-(U2-Pad12)*
X94450000Y-109370000D03*
G04 #@! TO.P,U5,6*
G04 #@! TO.N,Net-(U3-Pad7)*
X94450000Y-111910000D03*
G04 #@! TO.P,U5,5*
G04 #@! TO.N,Net-(U3-Pad8)*
X94450000Y-114450000D03*
G04 #@! TO.P,U5,4*
G04 #@! TO.N,Net-(U3-Pad11)*
X94450000Y-116990000D03*
G04 #@! TO.P,U5,3*
G04 #@! TO.N,Net-(U3-Pad12)*
X94450000Y-119530000D03*
G04 #@! TO.P,U5,2*
G04 #@! TO.N,Net-(U5-Pad2)*
X94450000Y-122070000D03*
D11*
G04 #@! TO.P,U5,1*
G04 #@! TO.N,Net-(J1-Pad1)*
X94450000Y-124610000D03*
D12*
G04 #@! TO.P,U5,0*
G04 #@! TO.N,Net-(U5-Pad0)*
X94450000Y-127150000D03*
G04 #@! TD*
G04 #@! TO.P,U4,1*
G04 #@! TO.N,Net-(J1-Pad1)*
X117310000Y-76350000D03*
G04 #@! TO.P,U4,2*
G04 #@! TO.N,Net-(U1-Pad10)*
X117310000Y-78890000D03*
G04 #@! TO.P,U4,3*
G04 #@! TO.N,Net-(U1-Pad3)*
X117310000Y-81430000D03*
G04 #@! TO.P,U4,4*
G04 #@! TO.N,Net-(U4-Pad4)*
X117310000Y-83970000D03*
G04 #@! TO.P,U4,5*
G04 #@! TO.N,Net-(U1-Pad6)*
X117310000Y-86510000D03*
G04 #@! TO.P,U4,6*
G04 #@! TO.N,Net-(U1-Pad5)*
X117310000Y-89050000D03*
G04 #@! TO.P,U4,7*
G04 #@! TO.N,Net-(U1-Pad2)*
X117310000Y-91590000D03*
G04 #@! TO.P,U4,8*
G04 #@! TO.N,Net-(U1-Pad1)*
X117310000Y-94130000D03*
G04 #@! TO.P,U4,9*
G04 #@! TO.N,Net-(U2-Pad6)*
X117310000Y-96670000D03*
G04 #@! TO.P,U4,10*
G04 #@! TO.N,Net-(U2-Pad5)*
X117310000Y-99210000D03*
G04 #@! TO.P,U4,11*
G04 #@! TO.N,Net-(U2-Pad2)*
X117310000Y-101750000D03*
G04 #@! TO.P,U4,12*
G04 #@! TO.N,Net-(U2-Pad1)*
X117310000Y-104290000D03*
G04 #@! TO.P,U4,13*
G04 #@! TO.N,Net-(U3-Pad6)*
X117310000Y-106830000D03*
G04 #@! TO.P,U4,14*
G04 #@! TO.N,Net-(U3-Pad5)*
X117310000Y-109370000D03*
G04 #@! TO.P,U4,15*
G04 #@! TO.N,Net-(U3-Pad2)*
X117310000Y-111910000D03*
G04 #@! TO.P,U4,16*
G04 #@! TO.N,Net-(U3-Pad1)*
X117310000Y-114450000D03*
G04 #@! TO.P,U4,17*
G04 #@! TO.N,Net-(U4-Pad17)*
X117310000Y-116990000D03*
G04 #@! TO.P,U4,18*
G04 #@! TO.N,Net-(U4-Pad18)*
X117310000Y-119530000D03*
G04 #@! TO.P,U4,19*
G04 #@! TO.N,Net-(U4-Pad19)*
X140170000Y-119530000D03*
G04 #@! TO.P,U4,20*
G04 #@! TO.N,Net-(U4-Pad20)*
X140170000Y-116990000D03*
G04 #@! TO.P,U4,21*
G04 #@! TO.N,Net-(U4-Pad21)*
X140170000Y-114450000D03*
G04 #@! TO.P,U4,22*
G04 #@! TO.N,Net-(U4-Pad22)*
X140170000Y-111910000D03*
G04 #@! TO.P,U4,23*
G04 #@! TO.N,Net-(U4-Pad23)*
X140170000Y-109370000D03*
G04 #@! TO.P,U4,24*
G04 #@! TO.N,Net-(U4-Pad24)*
X140170000Y-106830000D03*
G04 #@! TO.P,U4,25*
G04 #@! TO.N,Net-(U4-Pad25)*
X140170000Y-104290000D03*
G04 #@! TO.P,U4,26*
G04 #@! TO.N,Net-(U4-Pad26)*
X140170000Y-101750000D03*
G04 #@! TO.P,U4,27*
G04 #@! TO.N,Net-(U4-Pad27)*
X140170000Y-99210000D03*
G04 #@! TO.P,U4,28*
G04 #@! TO.N,Net-(U4-Pad28)*
X140170000Y-96670000D03*
G04 #@! TO.P,U4,29*
G04 #@! TO.N,Net-(U4-Pad29)*
X140170000Y-94130000D03*
G04 #@! TO.P,U4,30*
G04 #@! TO.N,Net-(U4-Pad30)*
X140170000Y-91590000D03*
G04 #@! TO.P,U4,31*
G04 #@! TO.N,Net-(J1-Pad2)*
X140170000Y-89050000D03*
G04 #@! TO.P,U4,32*
G04 #@! TO.N,Net-(J1-Pad3)*
X140170000Y-86510000D03*
G04 #@! TO.P,U4,33*
G04 #@! TO.N,Net-(J1-Pad1)*
X140170000Y-83970000D03*
G04 #@! TO.P,U4,34*
G04 #@! TO.N,Net-(U1-Pad3)*
X140170000Y-81430000D03*
G04 #@! TO.P,U4,35*
G04 #@! TO.N,Net-(U1-Pad10)*
X140170000Y-78890000D03*
G04 #@! TO.P,U4,36*
G04 #@! TO.N,Net-(J1-Pad1)*
X140170000Y-76350000D03*
G04 #@! TD*
G04 #@! TO.P,U1,1*
G04 #@! TO.N,Net-(U1-Pad1)*
X112230000Y-89050000D03*
G04 #@! TO.P,U1,2*
G04 #@! TO.N,Net-(U1-Pad2)*
X112230000Y-86510000D03*
G04 #@! TO.P,U1,3*
G04 #@! TO.N,Net-(U1-Pad3)*
X112230000Y-83970000D03*
G04 #@! TO.P,U1,4*
G04 #@! TO.N,Net-(J1-Pad1)*
X112230000Y-81430000D03*
G04 #@! TO.P,U1,5*
G04 #@! TO.N,Net-(U1-Pad5)*
X112230000Y-78890000D03*
G04 #@! TO.P,U1,6*
G04 #@! TO.N,Net-(U1-Pad6)*
X112230000Y-76350000D03*
G04 #@! TO.P,U1,7*
G04 #@! TO.N,Net-(U1-Pad7)*
X102070000Y-76350000D03*
G04 #@! TO.P,U1,8*
G04 #@! TO.N,Net-(U1-Pad8)*
X102070000Y-78890000D03*
G04 #@! TO.P,U1,9*
G04 #@! TO.N,Net-(J1-Pad1)*
X102070000Y-81430000D03*
G04 #@! TO.P,U1,10*
G04 #@! TO.N,Net-(U1-Pad10)*
X102070000Y-83970000D03*
G04 #@! TO.P,U1,11*
G04 #@! TO.N,Net-(U1-Pad11)*
X102070000Y-86510000D03*
G04 #@! TO.P,U1,12*
G04 #@! TO.N,Net-(U1-Pad12)*
X102070000Y-89050000D03*
G04 #@! TD*
G04 #@! TO.P,U2,12*
G04 #@! TO.N,Net-(U2-Pad12)*
X102070000Y-104290000D03*
G04 #@! TO.P,U2,11*
G04 #@! TO.N,Net-(U2-Pad11)*
X102070000Y-101750000D03*
G04 #@! TO.P,U2,10*
G04 #@! TO.N,Net-(U1-Pad10)*
X102070000Y-99210000D03*
G04 #@! TO.P,U2,9*
G04 #@! TO.N,Net-(J1-Pad1)*
X102070000Y-96670000D03*
G04 #@! TO.P,U2,8*
G04 #@! TO.N,Net-(U2-Pad8)*
X102070000Y-94130000D03*
G04 #@! TO.P,U2,7*
G04 #@! TO.N,Net-(U2-Pad7)*
X102070000Y-91590000D03*
G04 #@! TO.P,U2,6*
G04 #@! TO.N,Net-(U2-Pad6)*
X112230000Y-91590000D03*
G04 #@! TO.P,U2,5*
G04 #@! TO.N,Net-(U2-Pad5)*
X112230000Y-94130000D03*
G04 #@! TO.P,U2,4*
G04 #@! TO.N,Net-(J1-Pad1)*
X112230000Y-96670000D03*
G04 #@! TO.P,U2,3*
G04 #@! TO.N,Net-(U1-Pad3)*
X112230000Y-99210000D03*
G04 #@! TO.P,U2,2*
G04 #@! TO.N,Net-(U2-Pad2)*
X112230000Y-101750000D03*
G04 #@! TO.P,U2,1*
G04 #@! TO.N,Net-(U2-Pad1)*
X112230000Y-104290000D03*
G04 #@! TD*
G04 #@! TO.P,U3,1*
G04 #@! TO.N,Net-(U3-Pad1)*
X112230000Y-119530000D03*
G04 #@! TO.P,U3,2*
G04 #@! TO.N,Net-(U3-Pad2)*
X112230000Y-116990000D03*
G04 #@! TO.P,U3,3*
G04 #@! TO.N,Net-(U1-Pad3)*
X112230000Y-114450000D03*
G04 #@! TO.P,U3,4*
G04 #@! TO.N,Net-(J1-Pad1)*
X112230000Y-111910000D03*
G04 #@! TO.P,U3,5*
G04 #@! TO.N,Net-(U3-Pad5)*
X112230000Y-109370000D03*
G04 #@! TO.P,U3,6*
G04 #@! TO.N,Net-(U3-Pad6)*
X112230000Y-106830000D03*
G04 #@! TO.P,U3,7*
G04 #@! TO.N,Net-(U3-Pad7)*
X102070000Y-106830000D03*
G04 #@! TO.P,U3,8*
G04 #@! TO.N,Net-(U3-Pad8)*
X102070000Y-109370000D03*
G04 #@! TO.P,U3,9*
G04 #@! TO.N,Net-(J1-Pad1)*
X102070000Y-111910000D03*
G04 #@! TO.P,U3,10*
G04 #@! TO.N,Net-(U1-Pad10)*
X102070000Y-114450000D03*
G04 #@! TO.P,U3,11*
G04 #@! TO.N,Net-(U3-Pad11)*
X102070000Y-116990000D03*
G04 #@! TO.P,U3,12*
G04 #@! TO.N,Net-(U3-Pad12)*
X102070000Y-119530000D03*
G04 #@! TD*
D13*
G04 #@! TO.N,Net-(J1-Pad1)*
G04 #@! TO.C,JST-PH*
G36*
X149434505Y-118656204D02*
G01*
X149458773Y-118659804D01*
X149482572Y-118665765D01*
X149505671Y-118674030D01*
X149527850Y-118684520D01*
X149548893Y-118697132D01*
X149568599Y-118711747D01*
X149586777Y-118728223D01*
X149603253Y-118746401D01*
X149617868Y-118766107D01*
X149630480Y-118787150D01*
X149640970Y-118809329D01*
X149649235Y-118832428D01*
X149655196Y-118856227D01*
X149658796Y-118880495D01*
X149660000Y-118904999D01*
X149660000Y-120155001D01*
X149658796Y-120179505D01*
X149655196Y-120203773D01*
X149649235Y-120227572D01*
X149640970Y-120250671D01*
X149630480Y-120272850D01*
X149617868Y-120293893D01*
X149603253Y-120313599D01*
X149586777Y-120331777D01*
X149568599Y-120348253D01*
X149548893Y-120362868D01*
X149527850Y-120375480D01*
X149505671Y-120385970D01*
X149482572Y-120394235D01*
X149458773Y-120400196D01*
X149434505Y-120403796D01*
X149410001Y-120405000D01*
X148709999Y-120405000D01*
X148685495Y-120403796D01*
X148661227Y-120400196D01*
X148637428Y-120394235D01*
X148614329Y-120385970D01*
X148592150Y-120375480D01*
X148571107Y-120362868D01*
X148551401Y-120348253D01*
X148533223Y-120331777D01*
X148516747Y-120313599D01*
X148502132Y-120293893D01*
X148489520Y-120272850D01*
X148479030Y-120250671D01*
X148470765Y-120227572D01*
X148464804Y-120203773D01*
X148461204Y-120179505D01*
X148460000Y-120155001D01*
X148460000Y-118904999D01*
X148461204Y-118880495D01*
X148464804Y-118856227D01*
X148470765Y-118832428D01*
X148479030Y-118809329D01*
X148489520Y-118787150D01*
X148502132Y-118766107D01*
X148516747Y-118746401D01*
X148533223Y-118728223D01*
X148551401Y-118711747D01*
X148571107Y-118697132D01*
X148592150Y-118684520D01*
X148614329Y-118674030D01*
X148637428Y-118665765D01*
X148661227Y-118659804D01*
X148685495Y-118656204D01*
X148709999Y-118655000D01*
X149410001Y-118655000D01*
X149434505Y-118656204D01*
X149434505Y-118656204D01*
G37*
D14*
G04 #@! TD*
G04 #@! TO.P,JST-PH,1*
G04 #@! TO.N,Net-(J1-Pad1)*
X149060000Y-119530000D03*
D15*
G04 #@! TO.P,JST-PH,2*
G04 #@! TO.N,Net-(J1-Pad2)*
X151060000Y-119530000D03*
G04 #@! TO.P,JST-PH,3*
G04 #@! TO.N,Net-(J1-Pad3)*
X153060000Y-119530000D03*
G04 #@! TD*
D12*
G04 #@! TO.P,Waveshare 10 DOF IMU Sensor (C/D) ,1*
G04 #@! TO.N,Net-(U7-Pad1)*
X145250000Y-75080000D03*
G04 #@! TO.P,Waveshare 10 DOF IMU Sensor (C/D) ,2*
G04 #@! TO.N,Net-(U7-Pad2)*
X147790000Y-75080000D03*
G04 #@! TO.P,Waveshare 10 DOF IMU Sensor (C/D) ,3*
G04 #@! TO.N,Net-(U4-Pad20)*
X150330000Y-75080000D03*
G04 #@! TO.P,Waveshare 10 DOF IMU Sensor (C/D) ,4*
G04 #@! TO.N,Net-(U4-Pad19)*
X152870000Y-75080000D03*
D11*
G04 #@! TO.P,Waveshare 10 DOF IMU Sensor (C/D) ,5*
G04 #@! TO.N,Net-(J1-Pad1)*
X155410000Y-75080000D03*
D12*
G04 #@! TO.P,Waveshare 10 DOF IMU Sensor (C/D) ,6*
G04 #@! TO.N,Net-(U1-Pad3)*
X157950000Y-75080000D03*
G04 #@! TD*
D16*
G04 #@! TO.N,*
X91910000Y-96670000D02*
X91910000Y-95400000D01*
X91910000Y-125880000D02*
X91910000Y-127150000D01*
G04 #@! TO.N,Net-(U1-Pad1)*
X117310000Y-94130000D02*
X112230000Y-89050000D01*
G04 #@! TO.N,Net-(U1-Pad2)*
X117310000Y-91590000D02*
X112230000Y-86510000D01*
G04 #@! TO.N,Net-(U1-Pad3)*
X151600000Y-81430000D02*
X157950000Y-75080000D01*
X140170000Y-81430000D02*
X151600000Y-81430000D01*
G04 #@! TO.N,Net-(J1-Pad1)*
X96990000Y-96670000D02*
X94450000Y-94130000D01*
X102070000Y-96670000D02*
X96990000Y-96670000D01*
G04 #@! TO.N,Net-(U1-Pad5)*
X117310000Y-89050000D02*
X114770000Y-86510000D01*
X114770000Y-81430000D02*
X112230000Y-78890000D01*
X114770000Y-86510000D02*
X114770000Y-81430000D01*
G04 #@! TO.N,Net-(U1-Pad6)*
X112991999Y-77111999D02*
X112230000Y-76350000D01*
X115220009Y-79340009D02*
X112991999Y-77111999D01*
X115220009Y-84420009D02*
X115220009Y-79340009D01*
X117310000Y-86510000D02*
X115220009Y-84420009D01*
G04 #@! TO.N,Net-(U1-Pad7)*
X94450000Y-76350000D02*
X102070000Y-76350000D01*
G04 #@! TO.N,Net-(U1-Pad8)*
X94450000Y-78890000D02*
X102070000Y-78890000D01*
G04 #@! TO.N,Net-(U1-Pad11)*
X96990000Y-81430000D02*
X102070000Y-86510000D01*
X94450000Y-81430000D02*
X96990000Y-81430000D01*
G04 #@! TO.N,Net-(U1-Pad12)*
X96990000Y-83970000D02*
X102070000Y-89050000D01*
X94450000Y-83970000D02*
X96990000Y-83970000D01*
G04 #@! TO.N,Net-(U2-Pad12)*
X99530000Y-104290000D02*
X94450000Y-109370000D01*
X102070000Y-104290000D02*
X99530000Y-104290000D01*
G04 #@! TO.N,Net-(U2-Pad11)*
X99530000Y-101750000D02*
X94450000Y-106830000D01*
X102070000Y-101750000D02*
X99530000Y-101750000D01*
G04 #@! TO.N,Net-(U2-Pad8)*
X99530000Y-94130000D02*
X94450000Y-89050000D01*
X102070000Y-94130000D02*
X99530000Y-94130000D01*
G04 #@! TO.N,Net-(U2-Pad7)*
X99530000Y-91590000D02*
X94450000Y-86510000D01*
X102070000Y-91590000D02*
X99530000Y-91590000D01*
G04 #@! TO.N,Net-(U2-Pad6)*
X117310000Y-96670000D02*
X112230000Y-91590000D01*
G04 #@! TO.N,Net-(U2-Pad5)*
X117310000Y-99210000D02*
X112230000Y-94130000D01*
G04 #@! TO.N,Net-(U2-Pad2)*
X117310000Y-101750000D02*
X112230000Y-101750000D01*
G04 #@! TO.N,Net-(U2-Pad1)*
X117310000Y-104290000D02*
X112230000Y-104290000D01*
G04 #@! TO.N,Net-(U3-Pad1)*
X117310000Y-114450000D02*
X112230000Y-119530000D01*
G04 #@! TO.N,Net-(U3-Pad2)*
X117310000Y-111910000D02*
X112230000Y-116990000D01*
G04 #@! TO.N,Net-(U3-Pad5)*
X117310000Y-109370000D02*
X112230000Y-109370000D01*
G04 #@! TO.N,Net-(U3-Pad6)*
X117310000Y-106830000D02*
X112230000Y-106830000D01*
G04 #@! TO.N,Net-(U3-Pad7)*
X96990000Y-111910000D02*
X102070000Y-106830000D01*
X94450000Y-111910000D02*
X96990000Y-111910000D01*
G04 #@! TO.N,Net-(U3-Pad8)*
X96990000Y-114450000D02*
X102070000Y-109370000D01*
X94450000Y-114450000D02*
X96990000Y-114450000D01*
G04 #@! TO.N,Net-(U3-Pad11)*
X102070000Y-116990000D02*
X94450000Y-116990000D01*
G04 #@! TO.N,Net-(U3-Pad12)*
X94450000Y-119530000D02*
X102070000Y-119530000D01*
G04 #@! TO.N,Net-(J1-Pad2)*
X151060000Y-99940000D02*
X151060000Y-119530000D01*
X140170000Y-89050000D02*
X151060000Y-99940000D01*
G04 #@! TO.N,Net-(J1-Pad3)*
X153060000Y-99400000D02*
X153060000Y-119530000D01*
X140170000Y-86510000D02*
X153060000Y-99400000D01*
G04 #@! TD*
D17*
G04 #@! TO.N,Net-(J1-Pad1)*
G36*
X83399465Y-67644880D02*
G01*
X83204880Y-67839465D01*
X83051995Y-68068273D01*
X82946686Y-68322510D01*
X82893000Y-68592408D01*
X82893000Y-68867592D01*
X82946686Y-69137490D01*
X83051995Y-69391727D01*
X83204880Y-69620535D01*
X83399465Y-69815120D01*
X83628273Y-69968005D01*
X83705515Y-70000000D01*
X83628273Y-70031995D01*
X83399465Y-70184880D01*
X83204880Y-70379465D01*
X83051995Y-70608273D01*
X82946686Y-70862510D01*
X82893000Y-71132408D01*
X82893000Y-71407592D01*
X82946686Y-71677490D01*
X83051995Y-71931727D01*
X83204880Y-72160535D01*
X83399465Y-72355120D01*
X83628273Y-72508005D01*
X83882510Y-72613314D01*
X84152408Y-72667000D01*
X84427592Y-72667000D01*
X84697490Y-72613314D01*
X84951727Y-72508005D01*
X85180535Y-72355120D01*
X85375120Y-72160535D01*
X85528005Y-71931727D01*
X85560000Y-71854485D01*
X85591995Y-71931727D01*
X85744880Y-72160535D01*
X85939465Y-72355120D01*
X86168273Y-72508005D01*
X86422510Y-72613314D01*
X86692408Y-72667000D01*
X86967592Y-72667000D01*
X87237490Y-72613314D01*
X87491727Y-72508005D01*
X87720535Y-72355120D01*
X87915120Y-72160535D01*
X88068005Y-71931727D01*
X88173314Y-71677490D01*
X88227000Y-71407592D01*
X88227000Y-71132408D01*
X88173314Y-70862510D01*
X88068005Y-70608273D01*
X87915120Y-70379465D01*
X87720535Y-70184880D01*
X87491727Y-70031995D01*
X87414485Y-70000000D01*
X87491727Y-69968005D01*
X87720535Y-69815120D01*
X87915120Y-69620535D01*
X88068005Y-69391727D01*
X88173314Y-69137490D01*
X88227000Y-68867592D01*
X88227000Y-68592408D01*
X88173314Y-68322510D01*
X88068005Y-68068273D01*
X87915120Y-67839465D01*
X87720535Y-67644880D01*
X87633912Y-67587000D01*
X91106088Y-67587000D01*
X91019465Y-67644880D01*
X90824880Y-67839465D01*
X90671995Y-68068273D01*
X90566686Y-68322510D01*
X90513000Y-68592408D01*
X90513000Y-68867592D01*
X90566686Y-69137490D01*
X90671995Y-69391727D01*
X90824880Y-69620535D01*
X91019465Y-69815120D01*
X91248273Y-69968005D01*
X91502510Y-70073314D01*
X91772408Y-70127000D01*
X92047592Y-70127000D01*
X92317490Y-70073314D01*
X92571727Y-69968005D01*
X92800535Y-69815120D01*
X92995120Y-69620535D01*
X93148005Y-69391727D01*
X93180000Y-69314485D01*
X93211995Y-69391727D01*
X93364880Y-69620535D01*
X93559465Y-69815120D01*
X93788273Y-69968005D01*
X93865515Y-70000000D01*
X93788273Y-70031995D01*
X93559465Y-70184880D01*
X93364880Y-70379465D01*
X93211995Y-70608273D01*
X93106686Y-70862510D01*
X93053000Y-71132408D01*
X93053000Y-71407592D01*
X93106686Y-71677490D01*
X93211995Y-71931727D01*
X93364880Y-72160535D01*
X93559465Y-72355120D01*
X93788273Y-72508005D01*
X93865515Y-72540000D01*
X93788273Y-72571995D01*
X93559465Y-72724880D01*
X93364880Y-72919465D01*
X93211995Y-73148273D01*
X93106686Y-73402510D01*
X93053000Y-73672408D01*
X93053000Y-73947592D01*
X93106686Y-74217490D01*
X93211995Y-74471727D01*
X93364880Y-74700535D01*
X93559465Y-74895120D01*
X93788273Y-75048005D01*
X93865515Y-75080000D01*
X93788273Y-75111995D01*
X93559465Y-75264880D01*
X93364880Y-75459465D01*
X93211995Y-75688273D01*
X93106686Y-75942510D01*
X93053000Y-76212408D01*
X93053000Y-76487592D01*
X93106686Y-76757490D01*
X93211995Y-77011727D01*
X93364880Y-77240535D01*
X93559465Y-77435120D01*
X93788273Y-77588005D01*
X93865515Y-77620000D01*
X93788273Y-77651995D01*
X93559465Y-77804880D01*
X93364880Y-77999465D01*
X93211995Y-78228273D01*
X93106686Y-78482510D01*
X93053000Y-78752408D01*
X93053000Y-79027592D01*
X93106686Y-79297490D01*
X93211995Y-79551727D01*
X93364880Y-79780535D01*
X93559465Y-79975120D01*
X93788273Y-80128005D01*
X93865515Y-80160000D01*
X93788273Y-80191995D01*
X93559465Y-80344880D01*
X93364880Y-80539465D01*
X93211995Y-80768273D01*
X93106686Y-81022510D01*
X93053000Y-81292408D01*
X93053000Y-81567592D01*
X93106686Y-81837490D01*
X93211995Y-82091727D01*
X93364880Y-82320535D01*
X93559465Y-82515120D01*
X93788273Y-82668005D01*
X93865515Y-82700000D01*
X93788273Y-82731995D01*
X93559465Y-82884880D01*
X93364880Y-83079465D01*
X93211995Y-83308273D01*
X93106686Y-83562510D01*
X93053000Y-83832408D01*
X93053000Y-84107592D01*
X93106686Y-84377490D01*
X93211995Y-84631727D01*
X93364880Y-84860535D01*
X93559465Y-85055120D01*
X93788273Y-85208005D01*
X93865515Y-85240000D01*
X93788273Y-85271995D01*
X93559465Y-85424880D01*
X93364880Y-85619465D01*
X93211995Y-85848273D01*
X93106686Y-86102510D01*
X93053000Y-86372408D01*
X93053000Y-86647592D01*
X93106686Y-86917490D01*
X93211995Y-87171727D01*
X93364880Y-87400535D01*
X93559465Y-87595120D01*
X93788273Y-87748005D01*
X93865515Y-87780000D01*
X93788273Y-87811995D01*
X93559465Y-87964880D01*
X93364880Y-88159465D01*
X93211995Y-88388273D01*
X93106686Y-88642510D01*
X93053000Y-88912408D01*
X93053000Y-89187592D01*
X93106686Y-89457490D01*
X93211995Y-89711727D01*
X93364880Y-89940535D01*
X93559465Y-90135120D01*
X93788273Y-90288005D01*
X93865515Y-90320000D01*
X93788273Y-90351995D01*
X93559465Y-90504880D01*
X93364880Y-90699465D01*
X93306080Y-90787465D01*
X93297812Y-90703518D01*
X93261502Y-90583820D01*
X93202537Y-90473506D01*
X93123185Y-90376815D01*
X93026494Y-90297463D01*
X92916180Y-90238498D01*
X92796482Y-90202188D01*
X92672000Y-90189928D01*
X91148000Y-90189928D01*
X91023518Y-90202188D01*
X90903820Y-90238498D01*
X90793506Y-90297463D01*
X90696815Y-90376815D01*
X90617463Y-90473506D01*
X90558498Y-90583820D01*
X90522188Y-90703518D01*
X90509928Y-90828000D01*
X90509928Y-92352000D01*
X90522188Y-92476482D01*
X90558498Y-92596180D01*
X90617463Y-92706494D01*
X90696815Y-92803185D01*
X90793506Y-92882537D01*
X90903820Y-92941502D01*
X91023518Y-92977812D01*
X91148000Y-92990072D01*
X92672000Y-92990072D01*
X92796482Y-92977812D01*
X92916180Y-92941502D01*
X93026494Y-92882537D01*
X93123185Y-92803185D01*
X93202537Y-92706494D01*
X93261502Y-92596180D01*
X93297812Y-92476482D01*
X93306080Y-92392535D01*
X93364880Y-92480535D01*
X93559465Y-92675120D01*
X93647465Y-92733920D01*
X93563518Y-92742188D01*
X93443820Y-92778498D01*
X93333506Y-92837463D01*
X93236815Y-92916815D01*
X93157463Y-93013506D01*
X93098498Y-93123820D01*
X93062188Y-93243518D01*
X93049928Y-93368000D01*
X93053000Y-93844250D01*
X93211750Y-94003000D01*
X94323000Y-94003000D01*
X94323000Y-93983000D01*
X94577000Y-93983000D01*
X94577000Y-94003000D01*
X95688250Y-94003000D01*
X95847000Y-93844250D01*
X95850072Y-93368000D01*
X95837812Y-93243518D01*
X95801502Y-93123820D01*
X95742537Y-93013506D01*
X95663185Y-92916815D01*
X95566494Y-92837463D01*
X95456180Y-92778498D01*
X95336482Y-92742188D01*
X95252535Y-92733920D01*
X95340535Y-92675120D01*
X95535120Y-92480535D01*
X95688005Y-92251727D01*
X95793314Y-91997490D01*
X95847000Y-91727592D01*
X95847000Y-91521801D01*
X98966200Y-94641002D01*
X98989999Y-94670001D01*
X99018997Y-94693799D01*
X99105723Y-94764974D01*
X99237753Y-94835546D01*
X99381014Y-94879003D01*
X99492667Y-94890000D01*
X99492677Y-94890000D01*
X99530000Y-94893676D01*
X99567323Y-94890000D01*
X100897659Y-94890000D01*
X100984880Y-95020535D01*
X101179465Y-95215120D01*
X101408273Y-95368005D01*
X101479943Y-95397692D01*
X101466977Y-95402364D01*
X101351020Y-95464344D01*
X101284040Y-95704435D01*
X102070000Y-96490395D01*
X102855960Y-95704435D01*
X102788980Y-95464344D01*
X102653240Y-95400515D01*
X102731727Y-95368005D01*
X102960535Y-95215120D01*
X103155120Y-95020535D01*
X103308005Y-94791727D01*
X103413314Y-94537490D01*
X103467000Y-94267592D01*
X103467000Y-93992408D01*
X103413314Y-93722510D01*
X103308005Y-93468273D01*
X103155120Y-93239465D01*
X102960535Y-93044880D01*
X102731727Y-92891995D01*
X102654485Y-92860000D01*
X102731727Y-92828005D01*
X102960535Y-92675120D01*
X103155120Y-92480535D01*
X103308005Y-92251727D01*
X103413314Y-91997490D01*
X103467000Y-91727592D01*
X103467000Y-91452408D01*
X103413314Y-91182510D01*
X103308005Y-90928273D01*
X103155120Y-90699465D01*
X102960535Y-90504880D01*
X102731727Y-90351995D01*
X102654485Y-90320000D01*
X102731727Y-90288005D01*
X102960535Y-90135120D01*
X103155120Y-89940535D01*
X103308005Y-89711727D01*
X103413314Y-89457490D01*
X103467000Y-89187592D01*
X103467000Y-88912408D01*
X103413314Y-88642510D01*
X103308005Y-88388273D01*
X103155120Y-88159465D01*
X102960535Y-87964880D01*
X102731727Y-87811995D01*
X102654485Y-87780000D01*
X102731727Y-87748005D01*
X102960535Y-87595120D01*
X103155120Y-87400535D01*
X103308005Y-87171727D01*
X103413314Y-86917490D01*
X103467000Y-86647592D01*
X103467000Y-86372408D01*
X103413314Y-86102510D01*
X103308005Y-85848273D01*
X103155120Y-85619465D01*
X102960535Y-85424880D01*
X102731727Y-85271995D01*
X102654485Y-85240000D01*
X102731727Y-85208005D01*
X102960535Y-85055120D01*
X103155120Y-84860535D01*
X103308005Y-84631727D01*
X103413314Y-84377490D01*
X103467000Y-84107592D01*
X103467000Y-83832408D01*
X103413314Y-83562510D01*
X103308005Y-83308273D01*
X103155120Y-83079465D01*
X102960535Y-82884880D01*
X102731727Y-82731995D01*
X102660057Y-82702308D01*
X102673023Y-82697636D01*
X102788980Y-82635656D01*
X102855960Y-82395565D01*
X102070000Y-81609605D01*
X101284040Y-82395565D01*
X101351020Y-82635656D01*
X101486760Y-82699485D01*
X101408273Y-82731995D01*
X101179465Y-82884880D01*
X100984880Y-83079465D01*
X100831995Y-83308273D01*
X100726686Y-83562510D01*
X100673000Y-83832408D01*
X100673000Y-84038198D01*
X98136819Y-81502017D01*
X100668090Y-81502017D01*
X100709078Y-81774133D01*
X100802364Y-82033023D01*
X100864344Y-82148980D01*
X101104435Y-82215960D01*
X101890395Y-81430000D01*
X102249605Y-81430000D01*
X103035565Y-82215960D01*
X103275656Y-82148980D01*
X103392756Y-81899952D01*
X103459023Y-81632865D01*
X103465157Y-81502017D01*
X110828090Y-81502017D01*
X110869078Y-81774133D01*
X110962364Y-82033023D01*
X111024344Y-82148980D01*
X111264435Y-82215960D01*
X112050395Y-81430000D01*
X111264435Y-80644040D01*
X111024344Y-80711020D01*
X110907244Y-80960048D01*
X110840977Y-81227135D01*
X110828090Y-81502017D01*
X103465157Y-81502017D01*
X103471910Y-81357983D01*
X103430922Y-81085867D01*
X103337636Y-80826977D01*
X103275656Y-80711020D01*
X103035565Y-80644040D01*
X102249605Y-81430000D01*
X101890395Y-81430000D01*
X101104435Y-80644040D01*
X100864344Y-80711020D01*
X100747244Y-80960048D01*
X100680977Y-81227135D01*
X100668090Y-81502017D01*
X98136819Y-81502017D01*
X97553804Y-80919003D01*
X97530001Y-80889999D01*
X97414276Y-80795026D01*
X97282247Y-80724454D01*
X97138986Y-80680997D01*
X97027333Y-80670000D01*
X97027322Y-80670000D01*
X96990000Y-80666324D01*
X96952678Y-80670000D01*
X95622341Y-80670000D01*
X95535120Y-80539465D01*
X95340535Y-80344880D01*
X95111727Y-80191995D01*
X95034485Y-80160000D01*
X95111727Y-80128005D01*
X95340535Y-79975120D01*
X95535120Y-79780535D01*
X95622341Y-79650000D01*
X100897659Y-79650000D01*
X100984880Y-79780535D01*
X101179465Y-79975120D01*
X101408273Y-80128005D01*
X101479943Y-80157692D01*
X101466977Y-80162364D01*
X101351020Y-80224344D01*
X101284040Y-80464435D01*
X102070000Y-81250395D01*
X102855960Y-80464435D01*
X102788980Y-80224344D01*
X102653240Y-80160515D01*
X102731727Y-80128005D01*
X102960535Y-79975120D01*
X103155120Y-79780535D01*
X103308005Y-79551727D01*
X103413314Y-79297490D01*
X103467000Y-79027592D01*
X103467000Y-78752408D01*
X103413314Y-78482510D01*
X103308005Y-78228273D01*
X103155120Y-77999465D01*
X102960535Y-77804880D01*
X102731727Y-77651995D01*
X102654485Y-77620000D01*
X102731727Y-77588005D01*
X102960535Y-77435120D01*
X103155120Y-77240535D01*
X103308005Y-77011727D01*
X103413314Y-76757490D01*
X103467000Y-76487592D01*
X103467000Y-76212408D01*
X110833000Y-76212408D01*
X110833000Y-76487592D01*
X110886686Y-76757490D01*
X110991995Y-77011727D01*
X111144880Y-77240535D01*
X111339465Y-77435120D01*
X111568273Y-77588005D01*
X111645515Y-77620000D01*
X111568273Y-77651995D01*
X111339465Y-77804880D01*
X111144880Y-77999465D01*
X110991995Y-78228273D01*
X110886686Y-78482510D01*
X110833000Y-78752408D01*
X110833000Y-79027592D01*
X110886686Y-79297490D01*
X110991995Y-79551727D01*
X111144880Y-79780535D01*
X111339465Y-79975120D01*
X111568273Y-80128005D01*
X111639943Y-80157692D01*
X111626977Y-80162364D01*
X111511020Y-80224344D01*
X111444040Y-80464435D01*
X112230000Y-81250395D01*
X112244143Y-81236253D01*
X112423748Y-81415858D01*
X112409605Y-81430000D01*
X113195565Y-82215960D01*
X113435656Y-82148980D01*
X113552756Y-81899952D01*
X113619023Y-81632865D01*
X113631519Y-81366322D01*
X114010001Y-81744804D01*
X114010000Y-86472677D01*
X114006324Y-86510000D01*
X114010000Y-86547322D01*
X114010000Y-86547332D01*
X114020997Y-86658985D01*
X114064454Y-86802246D01*
X114135026Y-86934276D01*
X114174871Y-86982826D01*
X114229999Y-87050001D01*
X114259003Y-87073804D01*
X115943628Y-88758430D01*
X115913000Y-88912408D01*
X115913000Y-89118198D01*
X113596372Y-86801571D01*
X113627000Y-86647592D01*
X113627000Y-86372408D01*
X113573314Y-86102510D01*
X113468005Y-85848273D01*
X113315120Y-85619465D01*
X113120535Y-85424880D01*
X112891727Y-85271995D01*
X112814485Y-85240000D01*
X112891727Y-85208005D01*
X113120535Y-85055120D01*
X113315120Y-84860535D01*
X113468005Y-84631727D01*
X113573314Y-84377490D01*
X113627000Y-84107592D01*
X113627000Y-83832408D01*
X113573314Y-83562510D01*
X113468005Y-83308273D01*
X113315120Y-83079465D01*
X113120535Y-82884880D01*
X112891727Y-82731995D01*
X112820057Y-82702308D01*
X112833023Y-82697636D01*
X112948980Y-82635656D01*
X113015960Y-82395565D01*
X112230000Y-81609605D01*
X111444040Y-82395565D01*
X111511020Y-82635656D01*
X111646760Y-82699485D01*
X111568273Y-82731995D01*
X111339465Y-82884880D01*
X111144880Y-83079465D01*
X110991995Y-83308273D01*
X110886686Y-83562510D01*
X110833000Y-83832408D01*
X110833000Y-84107592D01*
X110886686Y-84377490D01*
X110991995Y-84631727D01*
X111144880Y-84860535D01*
X111339465Y-85055120D01*
X111568273Y-85208005D01*
X111645515Y-85240000D01*
X111568273Y-85271995D01*
X111339465Y-85424880D01*
X111144880Y-85619465D01*
X110991995Y-85848273D01*
X110886686Y-86102510D01*
X110833000Y-86372408D01*
X110833000Y-86647592D01*
X110886686Y-86917490D01*
X110991995Y-87171727D01*
X111144880Y-87400535D01*
X111339465Y-87595120D01*
X111568273Y-87748005D01*
X111645515Y-87780000D01*
X111568273Y-87811995D01*
X111339465Y-87964880D01*
X111144880Y-88159465D01*
X110991995Y-88388273D01*
X110886686Y-88642510D01*
X110833000Y-88912408D01*
X110833000Y-89187592D01*
X110886686Y-89457490D01*
X110991995Y-89711727D01*
X111144880Y-89940535D01*
X111339465Y-90135120D01*
X111568273Y-90288005D01*
X111645515Y-90320000D01*
X111568273Y-90351995D01*
X111339465Y-90504880D01*
X111144880Y-90699465D01*
X110991995Y-90928273D01*
X110886686Y-91182510D01*
X110833000Y-91452408D01*
X110833000Y-91727592D01*
X110886686Y-91997490D01*
X110991995Y-92251727D01*
X111144880Y-92480535D01*
X111339465Y-92675120D01*
X111568273Y-92828005D01*
X111645515Y-92860000D01*
X111568273Y-92891995D01*
X111339465Y-93044880D01*
X111144880Y-93239465D01*
X110991995Y-93468273D01*
X110886686Y-93722510D01*
X110833000Y-93992408D01*
X110833000Y-94267592D01*
X110886686Y-94537490D01*
X110991995Y-94791727D01*
X111144880Y-95020535D01*
X111339465Y-95215120D01*
X111568273Y-95368005D01*
X111639943Y-95397692D01*
X111626977Y-95402364D01*
X111511020Y-95464344D01*
X111444040Y-95704435D01*
X112230000Y-96490395D01*
X112244143Y-96476253D01*
X112423748Y-96655858D01*
X112409605Y-96670000D01*
X113195565Y-97455960D01*
X113435656Y-97388980D01*
X113552756Y-97139952D01*
X113619023Y-96872865D01*
X113631519Y-96606321D01*
X115943628Y-98918430D01*
X115913000Y-99072408D01*
X115913000Y-99347592D01*
X115966686Y-99617490D01*
X116071995Y-99871727D01*
X116224880Y-100100535D01*
X116419465Y-100295120D01*
X116648273Y-100448005D01*
X116725515Y-100480000D01*
X116648273Y-100511995D01*
X116419465Y-100664880D01*
X116224880Y-100859465D01*
X116137659Y-100990000D01*
X113402341Y-100990000D01*
X113315120Y-100859465D01*
X113120535Y-100664880D01*
X112891727Y-100511995D01*
X112814485Y-100480000D01*
X112891727Y-100448005D01*
X113120535Y-100295120D01*
X113315120Y-100100535D01*
X113468005Y-99871727D01*
X113573314Y-99617490D01*
X113627000Y-99347592D01*
X113627000Y-99072408D01*
X113573314Y-98802510D01*
X113468005Y-98548273D01*
X113315120Y-98319465D01*
X113120535Y-98124880D01*
X112891727Y-97971995D01*
X112820057Y-97942308D01*
X112833023Y-97937636D01*
X112948980Y-97875656D01*
X113015960Y-97635565D01*
X112230000Y-96849605D01*
X111444040Y-97635565D01*
X111511020Y-97875656D01*
X111646760Y-97939485D01*
X111568273Y-97971995D01*
X111339465Y-98124880D01*
X111144880Y-98319465D01*
X110991995Y-98548273D01*
X110886686Y-98802510D01*
X110833000Y-99072408D01*
X110833000Y-99347592D01*
X110886686Y-99617490D01*
X110991995Y-99871727D01*
X111144880Y-100100535D01*
X111339465Y-100295120D01*
X111568273Y-100448005D01*
X111645515Y-100480000D01*
X111568273Y-100511995D01*
X111339465Y-100664880D01*
X111144880Y-100859465D01*
X110991995Y-101088273D01*
X110886686Y-101342510D01*
X110833000Y-101612408D01*
X110833000Y-101887592D01*
X110886686Y-102157490D01*
X110991995Y-102411727D01*
X111144880Y-102640535D01*
X111339465Y-102835120D01*
X111568273Y-102988005D01*
X111645515Y-103020000D01*
X111568273Y-103051995D01*
X111339465Y-103204880D01*
X111144880Y-103399465D01*
X110991995Y-103628273D01*
X110886686Y-103882510D01*
X110833000Y-104152408D01*
X110833000Y-104427592D01*
X110886686Y-104697490D01*
X110991995Y-104951727D01*
X111144880Y-105180535D01*
X111339465Y-105375120D01*
X111568273Y-105528005D01*
X111645515Y-105560000D01*
X111568273Y-105591995D01*
X111339465Y-105744880D01*
X111144880Y-105939465D01*
X110991995Y-106168273D01*
X110886686Y-106422510D01*
X110833000Y-106692408D01*
X110833000Y-106967592D01*
X110886686Y-107237490D01*
X110991995Y-107491727D01*
X111144880Y-107720535D01*
X111339465Y-107915120D01*
X111568273Y-108068005D01*
X111645515Y-108100000D01*
X111568273Y-108131995D01*
X111339465Y-108284880D01*
X111144880Y-108479465D01*
X110991995Y-108708273D01*
X110886686Y-108962510D01*
X110833000Y-109232408D01*
X110833000Y-109507592D01*
X110886686Y-109777490D01*
X110991995Y-110031727D01*
X111144880Y-110260535D01*
X111339465Y-110455120D01*
X111568273Y-110608005D01*
X111639943Y-110637692D01*
X111626977Y-110642364D01*
X111511020Y-110704344D01*
X111444040Y-110944435D01*
X112230000Y-111730395D01*
X113015960Y-110944435D01*
X112948980Y-110704344D01*
X112813240Y-110640515D01*
X112891727Y-110608005D01*
X113120535Y-110455120D01*
X113315120Y-110260535D01*
X113402341Y-110130000D01*
X116137659Y-110130000D01*
X116224880Y-110260535D01*
X116419465Y-110455120D01*
X116648273Y-110608005D01*
X116725515Y-110640000D01*
X116648273Y-110671995D01*
X116419465Y-110824880D01*
X116224880Y-111019465D01*
X116071995Y-111248273D01*
X115966686Y-111502510D01*
X115913000Y-111772408D01*
X115913000Y-112047592D01*
X115943628Y-112201570D01*
X113627000Y-114518199D01*
X113627000Y-114312408D01*
X113573314Y-114042510D01*
X113468005Y-113788273D01*
X113315120Y-113559465D01*
X113120535Y-113364880D01*
X112891727Y-113211995D01*
X112820057Y-113182308D01*
X112833023Y-113177636D01*
X112948980Y-113115656D01*
X113015960Y-112875565D01*
X112230000Y-112089605D01*
X111444040Y-112875565D01*
X111511020Y-113115656D01*
X111646760Y-113179485D01*
X111568273Y-113211995D01*
X111339465Y-113364880D01*
X111144880Y-113559465D01*
X110991995Y-113788273D01*
X110886686Y-114042510D01*
X110833000Y-114312408D01*
X110833000Y-114587592D01*
X110886686Y-114857490D01*
X110991995Y-115111727D01*
X111144880Y-115340535D01*
X111339465Y-115535120D01*
X111568273Y-115688005D01*
X111645515Y-115720000D01*
X111568273Y-115751995D01*
X111339465Y-115904880D01*
X111144880Y-116099465D01*
X110991995Y-116328273D01*
X110886686Y-116582510D01*
X110833000Y-116852408D01*
X110833000Y-117127592D01*
X110886686Y-117397490D01*
X110991995Y-117651727D01*
X111144880Y-117880535D01*
X111339465Y-118075120D01*
X111568273Y-118228005D01*
X111645515Y-118260000D01*
X111568273Y-118291995D01*
X111339465Y-118444880D01*
X111144880Y-118639465D01*
X110991995Y-118868273D01*
X110886686Y-119122510D01*
X110833000Y-119392408D01*
X110833000Y-119667592D01*
X110886686Y-119937490D01*
X110991995Y-120191727D01*
X111144880Y-120420535D01*
X111339465Y-120615120D01*
X111568273Y-120768005D01*
X111822510Y-120873314D01*
X112092408Y-120927000D01*
X112367592Y-120927000D01*
X112637490Y-120873314D01*
X112891727Y-120768005D01*
X113120535Y-120615120D01*
X113315120Y-120420535D01*
X113468005Y-120191727D01*
X113573314Y-119937490D01*
X113627000Y-119667592D01*
X113627000Y-119392408D01*
X113596372Y-119238429D01*
X115913000Y-116921802D01*
X115913000Y-117127592D01*
X115966686Y-117397490D01*
X116071995Y-117651727D01*
X116224880Y-117880535D01*
X116419465Y-118075120D01*
X116648273Y-118228005D01*
X116725515Y-118260000D01*
X116648273Y-118291995D01*
X116419465Y-118444880D01*
X116224880Y-118639465D01*
X116071995Y-118868273D01*
X115966686Y-119122510D01*
X115913000Y-119392408D01*
X115913000Y-119667592D01*
X115966686Y-119937490D01*
X116071995Y-120191727D01*
X116224880Y-120420535D01*
X116419465Y-120615120D01*
X116648273Y-120768005D01*
X116902510Y-120873314D01*
X117172408Y-120927000D01*
X117447592Y-120927000D01*
X117717490Y-120873314D01*
X117971727Y-120768005D01*
X118200535Y-120615120D01*
X118395120Y-120420535D01*
X118548005Y-120191727D01*
X118653314Y-119937490D01*
X118707000Y-119667592D01*
X118707000Y-119392408D01*
X118653314Y-119122510D01*
X118548005Y-118868273D01*
X118395120Y-118639465D01*
X118200535Y-118444880D01*
X117971727Y-118291995D01*
X117894485Y-118260000D01*
X117971727Y-118228005D01*
X118200535Y-118075120D01*
X118395120Y-117880535D01*
X118548005Y-117651727D01*
X118653314Y-117397490D01*
X118707000Y-117127592D01*
X118707000Y-116852408D01*
X118653314Y-116582510D01*
X118548005Y-116328273D01*
X118395120Y-116099465D01*
X118200535Y-115904880D01*
X117971727Y-115751995D01*
X117894485Y-115720000D01*
X117971727Y-115688005D01*
X118200535Y-115535120D01*
X118395120Y-115340535D01*
X118548005Y-115111727D01*
X118653314Y-114857490D01*
X118707000Y-114587592D01*
X118707000Y-114312408D01*
X118653314Y-114042510D01*
X118548005Y-113788273D01*
X118395120Y-113559465D01*
X118200535Y-113364880D01*
X117971727Y-113211995D01*
X117894485Y-113180000D01*
X117971727Y-113148005D01*
X118200535Y-112995120D01*
X118395120Y-112800535D01*
X118548005Y-112571727D01*
X118653314Y-112317490D01*
X118707000Y-112047592D01*
X118707000Y-111772408D01*
X118653314Y-111502510D01*
X118548005Y-111248273D01*
X118395120Y-111019465D01*
X118200535Y-110824880D01*
X117971727Y-110671995D01*
X117894485Y-110640000D01*
X117971727Y-110608005D01*
X118200535Y-110455120D01*
X118395120Y-110260535D01*
X118548005Y-110031727D01*
X118653314Y-109777490D01*
X118707000Y-109507592D01*
X118707000Y-109232408D01*
X118695481Y-109174495D01*
X126755000Y-109174495D01*
X126755000Y-109565505D01*
X126831282Y-109949003D01*
X126980915Y-110310250D01*
X127198149Y-110635364D01*
X127474636Y-110911851D01*
X127799750Y-111129085D01*
X128160997Y-111278718D01*
X128544495Y-111355000D01*
X128935505Y-111355000D01*
X129319003Y-111278718D01*
X129680250Y-111129085D01*
X130005364Y-110911851D01*
X130281851Y-110635364D01*
X130499085Y-110310250D01*
X130648718Y-109949003D01*
X130725000Y-109565505D01*
X130725000Y-109174495D01*
X130648718Y-108790997D01*
X130499085Y-108429750D01*
X130281851Y-108104636D01*
X130005364Y-107828149D01*
X129680250Y-107610915D01*
X129319003Y-107461282D01*
X128935505Y-107385000D01*
X128544495Y-107385000D01*
X128160997Y-107461282D01*
X127799750Y-107610915D01*
X127474636Y-107828149D01*
X127198149Y-108104636D01*
X126980915Y-108429750D01*
X126831282Y-108790997D01*
X126755000Y-109174495D01*
X118695481Y-109174495D01*
X118653314Y-108962510D01*
X118548005Y-108708273D01*
X118395120Y-108479465D01*
X118200535Y-108284880D01*
X117971727Y-108131995D01*
X117894485Y-108100000D01*
X117971727Y-108068005D01*
X118200535Y-107915120D01*
X118395120Y-107720535D01*
X118548005Y-107491727D01*
X118653314Y-107237490D01*
X118707000Y-106967592D01*
X118707000Y-106692408D01*
X118653314Y-106422510D01*
X118548005Y-106168273D01*
X118395120Y-105939465D01*
X118200535Y-105744880D01*
X117971727Y-105591995D01*
X117894485Y-105560000D01*
X117971727Y-105528005D01*
X118200535Y-105375120D01*
X118395120Y-105180535D01*
X118548005Y-104951727D01*
X118653314Y-104697490D01*
X118707000Y-104427592D01*
X118707000Y-104152408D01*
X118653314Y-103882510D01*
X118548005Y-103628273D01*
X118395120Y-103399465D01*
X118200535Y-103204880D01*
X117971727Y-103051995D01*
X117894485Y-103020000D01*
X117971727Y-102988005D01*
X118200535Y-102835120D01*
X118395120Y-102640535D01*
X118548005Y-102411727D01*
X118653314Y-102157490D01*
X118707000Y-101887592D01*
X118707000Y-101612408D01*
X118653314Y-101342510D01*
X118548005Y-101088273D01*
X118395120Y-100859465D01*
X118200535Y-100664880D01*
X117971727Y-100511995D01*
X117894485Y-100480000D01*
X117971727Y-100448005D01*
X118200535Y-100295120D01*
X118395120Y-100100535D01*
X118548005Y-99871727D01*
X118653314Y-99617490D01*
X118707000Y-99347592D01*
X118707000Y-99072408D01*
X118653314Y-98802510D01*
X118548005Y-98548273D01*
X118395120Y-98319465D01*
X118200535Y-98124880D01*
X117971727Y-97971995D01*
X117894485Y-97940000D01*
X117971727Y-97908005D01*
X118200535Y-97755120D01*
X118395120Y-97560535D01*
X118548005Y-97331727D01*
X118653314Y-97077490D01*
X118707000Y-96807592D01*
X118707000Y-96532408D01*
X118653314Y-96262510D01*
X118548005Y-96008273D01*
X118395120Y-95779465D01*
X118200535Y-95584880D01*
X117971727Y-95431995D01*
X117894485Y-95400000D01*
X117971727Y-95368005D01*
X118200535Y-95215120D01*
X118395120Y-95020535D01*
X118548005Y-94791727D01*
X118653314Y-94537490D01*
X118707000Y-94267592D01*
X118707000Y-93992408D01*
X118653314Y-93722510D01*
X118548005Y-93468273D01*
X118395120Y-93239465D01*
X118200535Y-93044880D01*
X117971727Y-92891995D01*
X117894485Y-92860000D01*
X117971727Y-92828005D01*
X118200535Y-92675120D01*
X118395120Y-92480535D01*
X118548005Y-92251727D01*
X118653314Y-91997490D01*
X118707000Y-91727592D01*
X118707000Y-91452408D01*
X118653314Y-91182510D01*
X118548005Y-90928273D01*
X118395120Y-90699465D01*
X118200535Y-90504880D01*
X117971727Y-90351995D01*
X117894485Y-90320000D01*
X117971727Y-90288005D01*
X118200535Y-90135120D01*
X118395120Y-89940535D01*
X118548005Y-89711727D01*
X118653314Y-89457490D01*
X118707000Y-89187592D01*
X118707000Y-88912408D01*
X118653314Y-88642510D01*
X118548005Y-88388273D01*
X118395120Y-88159465D01*
X118200535Y-87964880D01*
X117971727Y-87811995D01*
X117894485Y-87780000D01*
X117971727Y-87748005D01*
X118200535Y-87595120D01*
X118395120Y-87400535D01*
X118548005Y-87171727D01*
X118653314Y-86917490D01*
X118707000Y-86647592D01*
X118707000Y-86372408D01*
X118695481Y-86314495D01*
X126755000Y-86314495D01*
X126755000Y-86705505D01*
X126831282Y-87089003D01*
X126980915Y-87450250D01*
X127198149Y-87775364D01*
X127474636Y-88051851D01*
X127799750Y-88269085D01*
X128160997Y-88418718D01*
X128544495Y-88495000D01*
X128935505Y-88495000D01*
X129319003Y-88418718D01*
X129680250Y-88269085D01*
X130005364Y-88051851D01*
X130281851Y-87775364D01*
X130499085Y-87450250D01*
X130648718Y-87089003D01*
X130725000Y-86705505D01*
X130725000Y-86372408D01*
X138773000Y-86372408D01*
X138773000Y-86647592D01*
X138826686Y-86917490D01*
X138931995Y-87171727D01*
X139084880Y-87400535D01*
X139279465Y-87595120D01*
X139508273Y-87748005D01*
X139585515Y-87780000D01*
X139508273Y-87811995D01*
X139279465Y-87964880D01*
X139084880Y-88159465D01*
X138931995Y-88388273D01*
X138826686Y-88642510D01*
X138773000Y-88912408D01*
X138773000Y-89187592D01*
X138826686Y-89457490D01*
X138931995Y-89711727D01*
X139084880Y-89940535D01*
X139279465Y-90135120D01*
X139508273Y-90288005D01*
X139585515Y-90320000D01*
X139508273Y-90351995D01*
X139279465Y-90504880D01*
X139084880Y-90699465D01*
X138931995Y-90928273D01*
X138826686Y-91182510D01*
X138773000Y-91452408D01*
X138773000Y-91727592D01*
X138826686Y-91997490D01*
X138931995Y-92251727D01*
X139084880Y-92480535D01*
X139279465Y-92675120D01*
X139508273Y-92828005D01*
X139585515Y-92860000D01*
X139508273Y-92891995D01*
X139279465Y-93044880D01*
X139084880Y-93239465D01*
X138931995Y-93468273D01*
X138826686Y-93722510D01*
X138773000Y-93992408D01*
X138773000Y-94267592D01*
X138826686Y-94537490D01*
X138931995Y-94791727D01*
X139084880Y-95020535D01*
X139279465Y-95215120D01*
X139508273Y-95368005D01*
X139585515Y-95400000D01*
X139508273Y-95431995D01*
X139279465Y-95584880D01*
X139084880Y-95779465D01*
X138931995Y-96008273D01*
X138826686Y-96262510D01*
X138773000Y-96532408D01*
X138773000Y-96807592D01*
X138826686Y-97077490D01*
X138931995Y-97331727D01*
X139084880Y-97560535D01*
X139279465Y-97755120D01*
X139508273Y-97908005D01*
X139585515Y-97940000D01*
X139508273Y-97971995D01*
X139279465Y-98124880D01*
X139084880Y-98319465D01*
X138931995Y-98548273D01*
X138826686Y-98802510D01*
X138773000Y-99072408D01*
X138773000Y-99347592D01*
X138826686Y-99617490D01*
X138931995Y-99871727D01*
X139084880Y-100100535D01*
X139279465Y-100295120D01*
X139508273Y-100448005D01*
X139585515Y-100480000D01*
X139508273Y-100511995D01*
X139279465Y-100664880D01*
X139084880Y-100859465D01*
X138931995Y-101088273D01*
X138826686Y-101342510D01*
X138773000Y-101612408D01*
X138773000Y-101887592D01*
X138826686Y-102157490D01*
X138931995Y-102411727D01*
X139084880Y-102640535D01*
X139279465Y-102835120D01*
X139508273Y-102988005D01*
X139585515Y-103020000D01*
X139508273Y-103051995D01*
X139279465Y-103204880D01*
X139084880Y-103399465D01*
X138931995Y-103628273D01*
X138826686Y-103882510D01*
X138773000Y-104152408D01*
X138773000Y-104427592D01*
X138826686Y-104697490D01*
X138931995Y-104951727D01*
X139084880Y-105180535D01*
X139279465Y-105375120D01*
X139508273Y-105528005D01*
X139585515Y-105560000D01*
X139508273Y-105591995D01*
X139279465Y-105744880D01*
X139084880Y-105939465D01*
X138931995Y-106168273D01*
X138826686Y-106422510D01*
X138773000Y-106692408D01*
X138773000Y-106967592D01*
X138826686Y-107237490D01*
X138931995Y-107491727D01*
X139084880Y-107720535D01*
X139279465Y-107915120D01*
X139508273Y-108068005D01*
X139585515Y-108100000D01*
X139508273Y-108131995D01*
X139279465Y-108284880D01*
X139084880Y-108479465D01*
X138931995Y-108708273D01*
X138826686Y-108962510D01*
X138773000Y-109232408D01*
X138773000Y-109507592D01*
X138826686Y-109777490D01*
X138931995Y-110031727D01*
X139084880Y-110260535D01*
X139279465Y-110455120D01*
X139508273Y-110608005D01*
X139585515Y-110640000D01*
X139508273Y-110671995D01*
X139279465Y-110824880D01*
X139084880Y-111019465D01*
X138931995Y-111248273D01*
X138826686Y-111502510D01*
X138773000Y-111772408D01*
X138773000Y-112047592D01*
X138826686Y-112317490D01*
X138931995Y-112571727D01*
X139084880Y-112800535D01*
X139279465Y-112995120D01*
X139508273Y-113148005D01*
X139585515Y-113180000D01*
X139508273Y-113211995D01*
X139279465Y-113364880D01*
X139084880Y-113559465D01*
X138931995Y-113788273D01*
X138826686Y-114042510D01*
X138773000Y-114312408D01*
X138773000Y-114587592D01*
X138826686Y-114857490D01*
X138931995Y-115111727D01*
X139084880Y-115340535D01*
X139279465Y-115535120D01*
X139508273Y-115688005D01*
X139585515Y-115720000D01*
X139508273Y-115751995D01*
X139279465Y-115904880D01*
X139084880Y-116099465D01*
X138931995Y-116328273D01*
X138826686Y-116582510D01*
X138773000Y-116852408D01*
X138773000Y-117127592D01*
X138826686Y-117397490D01*
X138931995Y-117651727D01*
X139084880Y-117880535D01*
X139279465Y-118075120D01*
X139508273Y-118228005D01*
X139585515Y-118260000D01*
X139508273Y-118291995D01*
X139279465Y-118444880D01*
X139084880Y-118639465D01*
X138931995Y-118868273D01*
X138826686Y-119122510D01*
X138773000Y-119392408D01*
X138773000Y-119667592D01*
X138826686Y-119937490D01*
X138931995Y-120191727D01*
X139084880Y-120420535D01*
X139279465Y-120615120D01*
X139508273Y-120768005D01*
X139762510Y-120873314D01*
X140032408Y-120927000D01*
X140307592Y-120927000D01*
X140577490Y-120873314D01*
X140831727Y-120768005D01*
X141060535Y-120615120D01*
X141255120Y-120420535D01*
X141265500Y-120405000D01*
X147821928Y-120405000D01*
X147834188Y-120529482D01*
X147870498Y-120649180D01*
X147929463Y-120759494D01*
X148008815Y-120856185D01*
X148105506Y-120935537D01*
X148215820Y-120994502D01*
X148335518Y-121030812D01*
X148460000Y-121043072D01*
X148774250Y-121040000D01*
X148933000Y-120881250D01*
X148933000Y-119657000D01*
X147983750Y-119657000D01*
X147825000Y-119815750D01*
X147821928Y-120405000D01*
X141265500Y-120405000D01*
X141408005Y-120191727D01*
X141513314Y-119937490D01*
X141567000Y-119667592D01*
X141567000Y-119392408D01*
X141513314Y-119122510D01*
X141408005Y-118868273D01*
X141265501Y-118655000D01*
X147821928Y-118655000D01*
X147825000Y-119244250D01*
X147983750Y-119403000D01*
X148933000Y-119403000D01*
X148933000Y-118178750D01*
X148774250Y-118020000D01*
X148460000Y-118016928D01*
X148335518Y-118029188D01*
X148215820Y-118065498D01*
X148105506Y-118124463D01*
X148008815Y-118203815D01*
X147929463Y-118300506D01*
X147870498Y-118410820D01*
X147834188Y-118530518D01*
X147821928Y-118655000D01*
X141265501Y-118655000D01*
X141255120Y-118639465D01*
X141060535Y-118444880D01*
X140831727Y-118291995D01*
X140754485Y-118260000D01*
X140831727Y-118228005D01*
X141060535Y-118075120D01*
X141255120Y-117880535D01*
X141408005Y-117651727D01*
X141513314Y-117397490D01*
X141567000Y-117127592D01*
X141567000Y-116852408D01*
X141513314Y-116582510D01*
X141408005Y-116328273D01*
X141255120Y-116099465D01*
X141060535Y-115904880D01*
X140831727Y-115751995D01*
X140754485Y-115720000D01*
X140831727Y-115688005D01*
X141060535Y-115535120D01*
X141255120Y-115340535D01*
X141408005Y-115111727D01*
X141513314Y-114857490D01*
X141567000Y-114587592D01*
X141567000Y-114312408D01*
X141513314Y-114042510D01*
X141408005Y-113788273D01*
X141255120Y-113559465D01*
X141060535Y-113364880D01*
X140831727Y-113211995D01*
X140754485Y-113180000D01*
X140831727Y-113148005D01*
X141060535Y-112995120D01*
X141255120Y-112800535D01*
X141408005Y-112571727D01*
X141513314Y-112317490D01*
X141567000Y-112047592D01*
X141567000Y-111772408D01*
X141513314Y-111502510D01*
X141408005Y-111248273D01*
X141255120Y-111019465D01*
X141060535Y-110824880D01*
X140831727Y-110671995D01*
X140754485Y-110640000D01*
X140831727Y-110608005D01*
X141060535Y-110455120D01*
X141255120Y-110260535D01*
X141408005Y-110031727D01*
X141513314Y-109777490D01*
X141567000Y-109507592D01*
X141567000Y-109232408D01*
X141513314Y-108962510D01*
X141408005Y-108708273D01*
X141255120Y-108479465D01*
X141060535Y-108284880D01*
X140831727Y-108131995D01*
X140754485Y-108100000D01*
X140831727Y-108068005D01*
X141060535Y-107915120D01*
X141255120Y-107720535D01*
X141408005Y-107491727D01*
X141513314Y-107237490D01*
X141567000Y-106967592D01*
X141567000Y-106692408D01*
X141513314Y-106422510D01*
X141408005Y-106168273D01*
X141255120Y-105939465D01*
X141060535Y-105744880D01*
X140831727Y-105591995D01*
X140754485Y-105560000D01*
X140831727Y-105528005D01*
X141060535Y-105375120D01*
X141255120Y-105180535D01*
X141408005Y-104951727D01*
X141513314Y-104697490D01*
X141567000Y-104427592D01*
X141567000Y-104152408D01*
X141513314Y-103882510D01*
X141408005Y-103628273D01*
X141255120Y-103399465D01*
X141060535Y-103204880D01*
X140831727Y-103051995D01*
X140754485Y-103020000D01*
X140831727Y-102988005D01*
X141060535Y-102835120D01*
X141255120Y-102640535D01*
X141408005Y-102411727D01*
X141513314Y-102157490D01*
X141567000Y-101887592D01*
X141567000Y-101612408D01*
X141513314Y-101342510D01*
X141408005Y-101088273D01*
X141255120Y-100859465D01*
X141060535Y-100664880D01*
X140831727Y-100511995D01*
X140754485Y-100480000D01*
X140831727Y-100448005D01*
X141060535Y-100295120D01*
X141255120Y-100100535D01*
X141408005Y-99871727D01*
X141513314Y-99617490D01*
X141567000Y-99347592D01*
X141567000Y-99072408D01*
X141513314Y-98802510D01*
X141408005Y-98548273D01*
X141255120Y-98319465D01*
X141060535Y-98124880D01*
X140831727Y-97971995D01*
X140754485Y-97940000D01*
X140831727Y-97908005D01*
X141060535Y-97755120D01*
X141255120Y-97560535D01*
X141408005Y-97331727D01*
X141513314Y-97077490D01*
X141567000Y-96807592D01*
X141567000Y-96532408D01*
X141513314Y-96262510D01*
X141408005Y-96008273D01*
X141255120Y-95779465D01*
X141060535Y-95584880D01*
X140831727Y-95431995D01*
X140754485Y-95400000D01*
X140831727Y-95368005D01*
X141060535Y-95215120D01*
X141255120Y-95020535D01*
X141408005Y-94791727D01*
X141513314Y-94537490D01*
X141567000Y-94267592D01*
X141567000Y-93992408D01*
X141513314Y-93722510D01*
X141408005Y-93468273D01*
X141255120Y-93239465D01*
X141060535Y-93044880D01*
X140831727Y-92891995D01*
X140754485Y-92860000D01*
X140831727Y-92828005D01*
X141060535Y-92675120D01*
X141255120Y-92480535D01*
X141408005Y-92251727D01*
X141513314Y-91997490D01*
X141567000Y-91727592D01*
X141567000Y-91521801D01*
X150300000Y-100254802D01*
X150300001Y-118281066D01*
X150216691Y-118349436D01*
X150190537Y-118300506D01*
X150111185Y-118203815D01*
X150014494Y-118124463D01*
X149904180Y-118065498D01*
X149784482Y-118029188D01*
X149660000Y-118016928D01*
X149345750Y-118020000D01*
X149187000Y-118178750D01*
X149187000Y-119403000D01*
X149207000Y-119403000D01*
X149207000Y-119657000D01*
X149187000Y-119657000D01*
X149187000Y-120881250D01*
X149345750Y-121040000D01*
X149660000Y-121043072D01*
X149784482Y-121030812D01*
X149904180Y-120994502D01*
X150014494Y-120935537D01*
X150111185Y-120856185D01*
X150190537Y-120759494D01*
X150216692Y-120710563D01*
X150370552Y-120836833D01*
X150585100Y-120951511D01*
X150817899Y-121022130D01*
X151060000Y-121045975D01*
X151302102Y-121022130D01*
X151534901Y-120951511D01*
X151749449Y-120836833D01*
X151937502Y-120682502D01*
X152060001Y-120533237D01*
X152182499Y-120682502D01*
X152370552Y-120836833D01*
X152585100Y-120951511D01*
X152817899Y-121022130D01*
X153060000Y-121045975D01*
X153302102Y-121022130D01*
X153534901Y-120951511D01*
X153749449Y-120836833D01*
X153937502Y-120682502D01*
X154091833Y-120494449D01*
X154206511Y-120279900D01*
X154277130Y-120047101D01*
X154295000Y-119865664D01*
X154295000Y-119194335D01*
X154277130Y-119012898D01*
X154206511Y-118780099D01*
X154091833Y-118565551D01*
X153937502Y-118377498D01*
X153820000Y-118281067D01*
X153820000Y-99437323D01*
X153823676Y-99400000D01*
X153820000Y-99362677D01*
X153820000Y-99362667D01*
X153809003Y-99251014D01*
X153765546Y-99107753D01*
X153694974Y-98975724D01*
X153600001Y-98859999D01*
X153571004Y-98836202D01*
X141536372Y-86801571D01*
X141567000Y-86647592D01*
X141567000Y-86372408D01*
X141513314Y-86102510D01*
X141408005Y-85848273D01*
X141255120Y-85619465D01*
X141060535Y-85424880D01*
X140831727Y-85271995D01*
X140760057Y-85242308D01*
X140773023Y-85237636D01*
X140888980Y-85175656D01*
X140955960Y-84935565D01*
X140170000Y-84149605D01*
X139384040Y-84935565D01*
X139451020Y-85175656D01*
X139586760Y-85239485D01*
X139508273Y-85271995D01*
X139279465Y-85424880D01*
X139084880Y-85619465D01*
X138931995Y-85848273D01*
X138826686Y-86102510D01*
X138773000Y-86372408D01*
X130725000Y-86372408D01*
X130725000Y-86314495D01*
X130648718Y-85930997D01*
X130499085Y-85569750D01*
X130281851Y-85244636D01*
X130005364Y-84968149D01*
X129680250Y-84750915D01*
X129319003Y-84601282D01*
X128935505Y-84525000D01*
X128544495Y-84525000D01*
X128160997Y-84601282D01*
X127799750Y-84750915D01*
X127474636Y-84968149D01*
X127198149Y-85244636D01*
X126980915Y-85569750D01*
X126831282Y-85930997D01*
X126755000Y-86314495D01*
X118695481Y-86314495D01*
X118653314Y-86102510D01*
X118548005Y-85848273D01*
X118395120Y-85619465D01*
X118200535Y-85424880D01*
X117971727Y-85271995D01*
X117894485Y-85240000D01*
X117971727Y-85208005D01*
X118200535Y-85055120D01*
X118395120Y-84860535D01*
X118548005Y-84631727D01*
X118653314Y-84377490D01*
X118707000Y-84107592D01*
X118707000Y-84042017D01*
X138768090Y-84042017D01*
X138809078Y-84314133D01*
X138902364Y-84573023D01*
X138964344Y-84688980D01*
X139204435Y-84755960D01*
X139990395Y-83970000D01*
X140349605Y-83970000D01*
X141135565Y-84755960D01*
X141375656Y-84688980D01*
X141492756Y-84439952D01*
X141559023Y-84172865D01*
X141571910Y-83897983D01*
X141530922Y-83625867D01*
X141437636Y-83366977D01*
X141375656Y-83251020D01*
X141135565Y-83184040D01*
X140349605Y-83970000D01*
X139990395Y-83970000D01*
X139204435Y-83184040D01*
X138964344Y-83251020D01*
X138847244Y-83500048D01*
X138780977Y-83767135D01*
X138768090Y-84042017D01*
X118707000Y-84042017D01*
X118707000Y-83832408D01*
X118653314Y-83562510D01*
X118548005Y-83308273D01*
X118395120Y-83079465D01*
X118200535Y-82884880D01*
X117971727Y-82731995D01*
X117894485Y-82700000D01*
X117971727Y-82668005D01*
X118200535Y-82515120D01*
X118395120Y-82320535D01*
X118548005Y-82091727D01*
X118653314Y-81837490D01*
X118707000Y-81567592D01*
X118707000Y-81292408D01*
X118653314Y-81022510D01*
X118548005Y-80768273D01*
X118395120Y-80539465D01*
X118200535Y-80344880D01*
X117971727Y-80191995D01*
X117894485Y-80160000D01*
X117971727Y-80128005D01*
X118200535Y-79975120D01*
X118395120Y-79780535D01*
X118548005Y-79551727D01*
X118653314Y-79297490D01*
X118707000Y-79027592D01*
X118707000Y-78752408D01*
X118653314Y-78482510D01*
X118548005Y-78228273D01*
X118395120Y-77999465D01*
X118200535Y-77804880D01*
X117971727Y-77651995D01*
X117900057Y-77622308D01*
X117913023Y-77617636D01*
X118028980Y-77555656D01*
X118095960Y-77315565D01*
X117310000Y-76529605D01*
X116524040Y-77315565D01*
X116591020Y-77555656D01*
X116726760Y-77619485D01*
X116648273Y-77651995D01*
X116419465Y-77804880D01*
X116224880Y-77999465D01*
X116071995Y-78228273D01*
X115966686Y-78482510D01*
X115913000Y-78752408D01*
X115913000Y-79024273D01*
X115854983Y-78915732D01*
X115783808Y-78829006D01*
X115760010Y-78800008D01*
X115731012Y-78776210D01*
X113596372Y-76641571D01*
X113627000Y-76487592D01*
X113627000Y-76422017D01*
X115908090Y-76422017D01*
X115949078Y-76694133D01*
X116042364Y-76953023D01*
X116104344Y-77068980D01*
X116344435Y-77135960D01*
X117130395Y-76350000D01*
X117489605Y-76350000D01*
X118275565Y-77135960D01*
X118515656Y-77068980D01*
X118632756Y-76819952D01*
X118699023Y-76552865D01*
X118705157Y-76422017D01*
X138768090Y-76422017D01*
X138809078Y-76694133D01*
X138902364Y-76953023D01*
X138964344Y-77068980D01*
X139204435Y-77135960D01*
X139990395Y-76350000D01*
X140349605Y-76350000D01*
X141135565Y-77135960D01*
X141375656Y-77068980D01*
X141492756Y-76819952D01*
X141559023Y-76552865D01*
X141571910Y-76277983D01*
X141530922Y-76005867D01*
X141437636Y-75746977D01*
X141375656Y-75631020D01*
X141135565Y-75564040D01*
X140349605Y-76350000D01*
X139990395Y-76350000D01*
X139204435Y-75564040D01*
X138964344Y-75631020D01*
X138847244Y-75880048D01*
X138780977Y-76147135D01*
X138768090Y-76422017D01*
X118705157Y-76422017D01*
X118711910Y-76277983D01*
X118670922Y-76005867D01*
X118577636Y-75746977D01*
X118515656Y-75631020D01*
X118275565Y-75564040D01*
X117489605Y-76350000D01*
X117130395Y-76350000D01*
X116344435Y-75564040D01*
X116104344Y-75631020D01*
X115987244Y-75880048D01*
X115920977Y-76147135D01*
X115908090Y-76422017D01*
X113627000Y-76422017D01*
X113627000Y-76212408D01*
X113573314Y-75942510D01*
X113468005Y-75688273D01*
X113315120Y-75459465D01*
X113240090Y-75384435D01*
X116524040Y-75384435D01*
X117310000Y-76170395D01*
X118095960Y-75384435D01*
X139384040Y-75384435D01*
X140170000Y-76170395D01*
X140955960Y-75384435D01*
X140888980Y-75144344D01*
X140639952Y-75027244D01*
X140372865Y-74960977D01*
X140097983Y-74948090D01*
X139825867Y-74989078D01*
X139566977Y-75082364D01*
X139451020Y-75144344D01*
X139384040Y-75384435D01*
X118095960Y-75384435D01*
X118028980Y-75144344D01*
X117779952Y-75027244D01*
X117512865Y-74960977D01*
X117237983Y-74948090D01*
X116965867Y-74989078D01*
X116706977Y-75082364D01*
X116591020Y-75144344D01*
X116524040Y-75384435D01*
X113240090Y-75384435D01*
X113120535Y-75264880D01*
X112891727Y-75111995D01*
X112637490Y-75006686D01*
X112367592Y-74953000D01*
X112092408Y-74953000D01*
X111822510Y-75006686D01*
X111568273Y-75111995D01*
X111339465Y-75264880D01*
X111144880Y-75459465D01*
X110991995Y-75688273D01*
X110886686Y-75942510D01*
X110833000Y-76212408D01*
X103467000Y-76212408D01*
X103413314Y-75942510D01*
X103308005Y-75688273D01*
X103155120Y-75459465D01*
X102960535Y-75264880D01*
X102731727Y-75111995D01*
X102477490Y-75006686D01*
X102207592Y-74953000D01*
X101932408Y-74953000D01*
X101662510Y-75006686D01*
X101408273Y-75111995D01*
X101179465Y-75264880D01*
X100984880Y-75459465D01*
X100897659Y-75590000D01*
X95622341Y-75590000D01*
X95535120Y-75459465D01*
X95340535Y-75264880D01*
X95111727Y-75111995D01*
X95034485Y-75080000D01*
X95111727Y-75048005D01*
X95340535Y-74895120D01*
X95535120Y-74700535D01*
X95688005Y-74471727D01*
X95793314Y-74217490D01*
X95847000Y-73947592D01*
X95847000Y-73672408D01*
X95793314Y-73402510D01*
X95688005Y-73148273D01*
X95535120Y-72919465D01*
X95340535Y-72724880D01*
X95111727Y-72571995D01*
X95034485Y-72540000D01*
X95111727Y-72508005D01*
X95340535Y-72355120D01*
X95535120Y-72160535D01*
X95688005Y-71931727D01*
X95793314Y-71677490D01*
X95847000Y-71407592D01*
X95847000Y-71132408D01*
X95793314Y-70862510D01*
X95688005Y-70608273D01*
X95535120Y-70379465D01*
X95340535Y-70184880D01*
X95111727Y-70031995D01*
X95034485Y-70000000D01*
X95111727Y-69968005D01*
X95340535Y-69815120D01*
X95535120Y-69620535D01*
X95688005Y-69391727D01*
X95793314Y-69137490D01*
X95847000Y-68867592D01*
X95847000Y-68592408D01*
X95793314Y-68322510D01*
X95688005Y-68068273D01*
X95535120Y-67839465D01*
X95340535Y-67644880D01*
X95253912Y-67587000D01*
X95667394Y-67587000D01*
X101980197Y-73899803D01*
X101999443Y-73915597D01*
X102021399Y-73927333D01*
X102045224Y-73934560D01*
X102070000Y-73937000D01*
X144446088Y-73937000D01*
X144359465Y-73994880D01*
X144164880Y-74189465D01*
X144011995Y-74418273D01*
X143906686Y-74672510D01*
X143853000Y-74942408D01*
X143853000Y-75217592D01*
X143906686Y-75487490D01*
X144011995Y-75741727D01*
X144164880Y-75970535D01*
X144359465Y-76165120D01*
X144588273Y-76318005D01*
X144842510Y-76423314D01*
X145112408Y-76477000D01*
X145387592Y-76477000D01*
X145657490Y-76423314D01*
X145911727Y-76318005D01*
X146140535Y-76165120D01*
X146335120Y-75970535D01*
X146488005Y-75741727D01*
X146520000Y-75664485D01*
X146551995Y-75741727D01*
X146704880Y-75970535D01*
X146899465Y-76165120D01*
X147128273Y-76318005D01*
X147382510Y-76423314D01*
X147652408Y-76477000D01*
X147927592Y-76477000D01*
X148197490Y-76423314D01*
X148451727Y-76318005D01*
X148680535Y-76165120D01*
X148875120Y-75970535D01*
X149028005Y-75741727D01*
X149060000Y-75664485D01*
X149091995Y-75741727D01*
X149244880Y-75970535D01*
X149439465Y-76165120D01*
X149668273Y-76318005D01*
X149922510Y-76423314D01*
X150192408Y-76477000D01*
X150467592Y-76477000D01*
X150737490Y-76423314D01*
X150991727Y-76318005D01*
X151220535Y-76165120D01*
X151415120Y-75970535D01*
X151568005Y-75741727D01*
X151600000Y-75664485D01*
X151631995Y-75741727D01*
X151784880Y-75970535D01*
X151979465Y-76165120D01*
X152208273Y-76318005D01*
X152462510Y-76423314D01*
X152732408Y-76477000D01*
X153007592Y-76477000D01*
X153277490Y-76423314D01*
X153531727Y-76318005D01*
X153760535Y-76165120D01*
X153955120Y-75970535D01*
X154013920Y-75882535D01*
X154022188Y-75966482D01*
X154058498Y-76086180D01*
X154117463Y-76196494D01*
X154196815Y-76293185D01*
X154293506Y-76372537D01*
X154403820Y-76431502D01*
X154523518Y-76467812D01*
X154648000Y-76480072D01*
X155124250Y-76477000D01*
X155283000Y-76318250D01*
X155283000Y-75207000D01*
X155263000Y-75207000D01*
X155263000Y-74953000D01*
X155283000Y-74953000D01*
X155283000Y-74933000D01*
X155537000Y-74933000D01*
X155537000Y-74953000D01*
X155557000Y-74953000D01*
X155557000Y-75207000D01*
X155537000Y-75207000D01*
X155537000Y-76318250D01*
X155586974Y-76368224D01*
X151285199Y-80670000D01*
X141342341Y-80670000D01*
X141255120Y-80539465D01*
X141060535Y-80344880D01*
X140831727Y-80191995D01*
X140754485Y-80160000D01*
X140831727Y-80128005D01*
X141060535Y-79975120D01*
X141255120Y-79780535D01*
X141408005Y-79551727D01*
X141513314Y-79297490D01*
X141567000Y-79027592D01*
X141567000Y-78752408D01*
X141513314Y-78482510D01*
X141408005Y-78228273D01*
X141255120Y-77999465D01*
X141060535Y-77804880D01*
X140831727Y-77651995D01*
X140760057Y-77622308D01*
X140773023Y-77617636D01*
X140888980Y-77555656D01*
X140955960Y-77315565D01*
X140170000Y-76529605D01*
X139384040Y-77315565D01*
X139451020Y-77555656D01*
X139586760Y-77619485D01*
X139508273Y-77651995D01*
X139279465Y-77804880D01*
X139084880Y-77999465D01*
X138931995Y-78228273D01*
X138826686Y-78482510D01*
X138773000Y-78752408D01*
X138773000Y-79027592D01*
X138826686Y-79297490D01*
X138931995Y-79551727D01*
X139084880Y-79780535D01*
X139279465Y-79975120D01*
X139508273Y-80128005D01*
X139585515Y-80160000D01*
X139508273Y-80191995D01*
X139279465Y-80344880D01*
X139084880Y-80539465D01*
X138931995Y-80768273D01*
X138826686Y-81022510D01*
X138773000Y-81292408D01*
X138773000Y-81567592D01*
X138826686Y-81837490D01*
X138931995Y-82091727D01*
X139084880Y-82320535D01*
X139279465Y-82515120D01*
X139508273Y-82668005D01*
X139579943Y-82697692D01*
X139566977Y-82702364D01*
X139451020Y-82764344D01*
X139384040Y-83004435D01*
X140170000Y-83790395D01*
X140955960Y-83004435D01*
X140888980Y-82764344D01*
X140753240Y-82700515D01*
X140831727Y-82668005D01*
X141060535Y-82515120D01*
X141255120Y-82320535D01*
X141342341Y-82190000D01*
X151562678Y-82190000D01*
X151600000Y-82193676D01*
X151637322Y-82190000D01*
X151637333Y-82190000D01*
X151748986Y-82179003D01*
X151892247Y-82135546D01*
X152024276Y-82064974D01*
X152140001Y-81970001D01*
X152163804Y-81940997D01*
X157658430Y-76446372D01*
X157812408Y-76477000D01*
X158087592Y-76477000D01*
X158357490Y-76423314D01*
X158611727Y-76318005D01*
X158840535Y-76165120D01*
X159035120Y-75970535D01*
X159188005Y-75741727D01*
X159293314Y-75487490D01*
X159347000Y-75217592D01*
X159347000Y-74942408D01*
X159293314Y-74672510D01*
X159188005Y-74418273D01*
X159035120Y-74189465D01*
X158840535Y-73994880D01*
X158753912Y-73937000D01*
X159167394Y-73937000D01*
X160363000Y-75132606D01*
X160363000Y-120747394D01*
X159167394Y-121943000D01*
X102070000Y-121943000D01*
X102045224Y-121945440D01*
X102021399Y-121952667D01*
X101999443Y-121964403D01*
X101980197Y-121980197D01*
X95667394Y-128293000D01*
X95253912Y-128293000D01*
X95340535Y-128235120D01*
X95535120Y-128040535D01*
X95688005Y-127811727D01*
X95793314Y-127557490D01*
X95847000Y-127287592D01*
X95847000Y-127012408D01*
X95793314Y-126742510D01*
X95688005Y-126488273D01*
X95535120Y-126259465D01*
X95340535Y-126064880D01*
X95252535Y-126006080D01*
X95336482Y-125997812D01*
X95456180Y-125961502D01*
X95566494Y-125902537D01*
X95663185Y-125823185D01*
X95742537Y-125726494D01*
X95801502Y-125616180D01*
X95837812Y-125496482D01*
X95850072Y-125372000D01*
X95847000Y-124895750D01*
X95688250Y-124737000D01*
X94577000Y-124737000D01*
X94577000Y-124757000D01*
X94323000Y-124757000D01*
X94323000Y-124737000D01*
X93211750Y-124737000D01*
X93053000Y-124895750D01*
X93051848Y-125074364D01*
X92995120Y-124989465D01*
X92800535Y-124794880D01*
X92571727Y-124641995D01*
X92317490Y-124536686D01*
X92047592Y-124483000D01*
X91772408Y-124483000D01*
X91502510Y-124536686D01*
X91248273Y-124641995D01*
X91019465Y-124794880D01*
X90824880Y-124989465D01*
X90671995Y-125218273D01*
X90566686Y-125472510D01*
X90513000Y-125742408D01*
X90513000Y-126017592D01*
X90566686Y-126287490D01*
X90660924Y-126515000D01*
X90566686Y-126742510D01*
X90513000Y-127012408D01*
X90513000Y-127287592D01*
X90566686Y-127557490D01*
X90671995Y-127811727D01*
X90824880Y-128040535D01*
X91019465Y-128235120D01*
X91106088Y-128293000D01*
X75452606Y-128293000D01*
X74257000Y-127097394D01*
X74257000Y-125684495D01*
X74685000Y-125684495D01*
X74685000Y-126075505D01*
X74761282Y-126459003D01*
X74910915Y-126820250D01*
X75128149Y-127145364D01*
X75404636Y-127421851D01*
X75729750Y-127639085D01*
X76090997Y-127788718D01*
X76474495Y-127865000D01*
X76865505Y-127865000D01*
X77249003Y-127788718D01*
X77610250Y-127639085D01*
X77935364Y-127421851D01*
X78211851Y-127145364D01*
X78429085Y-126820250D01*
X78578718Y-126459003D01*
X78655000Y-126075505D01*
X78655000Y-125684495D01*
X78578718Y-125300997D01*
X78429085Y-124939750D01*
X78211851Y-124614636D01*
X77935364Y-124338149D01*
X77610250Y-124120915D01*
X77249003Y-123971282D01*
X76865505Y-123895000D01*
X76474495Y-123895000D01*
X76090997Y-123971282D01*
X75729750Y-124120915D01*
X75404636Y-124338149D01*
X75128149Y-124614636D01*
X74910915Y-124939750D01*
X74761282Y-125300997D01*
X74685000Y-125684495D01*
X74257000Y-125684495D01*
X74257000Y-121308000D01*
X90509928Y-121308000D01*
X90509928Y-122832000D01*
X90522188Y-122956482D01*
X90558498Y-123076180D01*
X90617463Y-123186494D01*
X90696815Y-123283185D01*
X90793506Y-123362537D01*
X90903820Y-123421502D01*
X91023518Y-123457812D01*
X91148000Y-123470072D01*
X92672000Y-123470072D01*
X92796482Y-123457812D01*
X92916180Y-123421502D01*
X93026494Y-123362537D01*
X93123185Y-123283185D01*
X93202537Y-123186494D01*
X93261502Y-123076180D01*
X93297812Y-122956482D01*
X93306080Y-122872535D01*
X93364880Y-122960535D01*
X93559465Y-123155120D01*
X93647465Y-123213920D01*
X93563518Y-123222188D01*
X93443820Y-123258498D01*
X93333506Y-123317463D01*
X93236815Y-123396815D01*
X93157463Y-123493506D01*
X93098498Y-123603820D01*
X93062188Y-123723518D01*
X93049928Y-123848000D01*
X93053000Y-124324250D01*
X93211750Y-124483000D01*
X94323000Y-124483000D01*
X94323000Y-124463000D01*
X94577000Y-124463000D01*
X94577000Y-124483000D01*
X95688250Y-124483000D01*
X95847000Y-124324250D01*
X95850072Y-123848000D01*
X95837812Y-123723518D01*
X95801502Y-123603820D01*
X95742537Y-123493506D01*
X95663185Y-123396815D01*
X95566494Y-123317463D01*
X95456180Y-123258498D01*
X95336482Y-123222188D01*
X95252535Y-123213920D01*
X95340535Y-123155120D01*
X95535120Y-122960535D01*
X95688005Y-122731727D01*
X95793314Y-122477490D01*
X95847000Y-122207592D01*
X95847000Y-121932408D01*
X95793314Y-121662510D01*
X95688005Y-121408273D01*
X95535120Y-121179465D01*
X95340535Y-120984880D01*
X95111727Y-120831995D01*
X95034485Y-120800000D01*
X95111727Y-120768005D01*
X95340535Y-120615120D01*
X95535120Y-120420535D01*
X95622341Y-120290000D01*
X100897659Y-120290000D01*
X100984880Y-120420535D01*
X101179465Y-120615120D01*
X101408273Y-120768005D01*
X101662510Y-120873314D01*
X101932408Y-120927000D01*
X102207592Y-120927000D01*
X102477490Y-120873314D01*
X102731727Y-120768005D01*
X102960535Y-120615120D01*
X103155120Y-120420535D01*
X103308005Y-120191727D01*
X103413314Y-119937490D01*
X103467000Y-119667592D01*
X103467000Y-119392408D01*
X103413314Y-119122510D01*
X103308005Y-118868273D01*
X103155120Y-118639465D01*
X102960535Y-118444880D01*
X102731727Y-118291995D01*
X102654485Y-118260000D01*
X102731727Y-118228005D01*
X102960535Y-118075120D01*
X103155120Y-117880535D01*
X103308005Y-117651727D01*
X103413314Y-117397490D01*
X103467000Y-117127592D01*
X103467000Y-116852408D01*
X103413314Y-116582510D01*
X103308005Y-116328273D01*
X103155120Y-116099465D01*
X102960535Y-115904880D01*
X102731727Y-115751995D01*
X102654485Y-115720000D01*
X102731727Y-115688005D01*
X102960535Y-115535120D01*
X103155120Y-115340535D01*
X103308005Y-115111727D01*
X103413314Y-114857490D01*
X103467000Y-114587592D01*
X103467000Y-114312408D01*
X103413314Y-114042510D01*
X103308005Y-113788273D01*
X103155120Y-113559465D01*
X102960535Y-113364880D01*
X102731727Y-113211995D01*
X102660057Y-113182308D01*
X102673023Y-113177636D01*
X102788980Y-113115656D01*
X102855960Y-112875565D01*
X102070000Y-112089605D01*
X101284040Y-112875565D01*
X101351020Y-113115656D01*
X101486760Y-113179485D01*
X101408273Y-113211995D01*
X101179465Y-113364880D01*
X100984880Y-113559465D01*
X100831995Y-113788273D01*
X100726686Y-114042510D01*
X100673000Y-114312408D01*
X100673000Y-114587592D01*
X100726686Y-114857490D01*
X100831995Y-115111727D01*
X100984880Y-115340535D01*
X101179465Y-115535120D01*
X101408273Y-115688005D01*
X101485515Y-115720000D01*
X101408273Y-115751995D01*
X101179465Y-115904880D01*
X100984880Y-116099465D01*
X100897659Y-116230000D01*
X95622341Y-116230000D01*
X95535120Y-116099465D01*
X95340535Y-115904880D01*
X95111727Y-115751995D01*
X95034485Y-115720000D01*
X95111727Y-115688005D01*
X95340535Y-115535120D01*
X95535120Y-115340535D01*
X95622341Y-115210000D01*
X96952678Y-115210000D01*
X96990000Y-115213676D01*
X97027322Y-115210000D01*
X97027333Y-115210000D01*
X97138986Y-115199003D01*
X97282247Y-115155546D01*
X97414276Y-115084974D01*
X97530001Y-114990001D01*
X97553804Y-114960997D01*
X100674745Y-111840056D01*
X100668090Y-111982017D01*
X100709078Y-112254133D01*
X100802364Y-112513023D01*
X100864344Y-112628980D01*
X101104435Y-112695960D01*
X101890395Y-111910000D01*
X102249605Y-111910000D01*
X103035565Y-112695960D01*
X103275656Y-112628980D01*
X103392756Y-112379952D01*
X103459023Y-112112865D01*
X103465157Y-111982017D01*
X110828090Y-111982017D01*
X110869078Y-112254133D01*
X110962364Y-112513023D01*
X111024344Y-112628980D01*
X111264435Y-112695960D01*
X112050395Y-111910000D01*
X112409605Y-111910000D01*
X113195565Y-112695960D01*
X113435656Y-112628980D01*
X113552756Y-112379952D01*
X113619023Y-112112865D01*
X113631910Y-111837983D01*
X113590922Y-111565867D01*
X113497636Y-111306977D01*
X113435656Y-111191020D01*
X113195565Y-111124040D01*
X112409605Y-111910000D01*
X112050395Y-111910000D01*
X111264435Y-111124040D01*
X111024344Y-111191020D01*
X110907244Y-111440048D01*
X110840977Y-111707135D01*
X110828090Y-111982017D01*
X103465157Y-111982017D01*
X103471910Y-111837983D01*
X103430922Y-111565867D01*
X103337636Y-111306977D01*
X103275656Y-111191020D01*
X103035565Y-111124040D01*
X102249605Y-111910000D01*
X101890395Y-111910000D01*
X101876253Y-111895858D01*
X102055858Y-111716253D01*
X102070000Y-111730395D01*
X102855960Y-110944435D01*
X102788980Y-110704344D01*
X102653240Y-110640515D01*
X102731727Y-110608005D01*
X102960535Y-110455120D01*
X103155120Y-110260535D01*
X103308005Y-110031727D01*
X103413314Y-109777490D01*
X103467000Y-109507592D01*
X103467000Y-109232408D01*
X103413314Y-108962510D01*
X103308005Y-108708273D01*
X103155120Y-108479465D01*
X102960535Y-108284880D01*
X102731727Y-108131995D01*
X102654485Y-108100000D01*
X102731727Y-108068005D01*
X102960535Y-107915120D01*
X103155120Y-107720535D01*
X103308005Y-107491727D01*
X103413314Y-107237490D01*
X103467000Y-106967592D01*
X103467000Y-106692408D01*
X103413314Y-106422510D01*
X103308005Y-106168273D01*
X103155120Y-105939465D01*
X102960535Y-105744880D01*
X102731727Y-105591995D01*
X102654485Y-105560000D01*
X102731727Y-105528005D01*
X102960535Y-105375120D01*
X103155120Y-105180535D01*
X103308005Y-104951727D01*
X103413314Y-104697490D01*
X103467000Y-104427592D01*
X103467000Y-104152408D01*
X103413314Y-103882510D01*
X103308005Y-103628273D01*
X103155120Y-103399465D01*
X102960535Y-103204880D01*
X102731727Y-103051995D01*
X102654485Y-103020000D01*
X102731727Y-102988005D01*
X102960535Y-102835120D01*
X103155120Y-102640535D01*
X103308005Y-102411727D01*
X103413314Y-102157490D01*
X103467000Y-101887592D01*
X103467000Y-101612408D01*
X103413314Y-101342510D01*
X103308005Y-101088273D01*
X103155120Y-100859465D01*
X102960535Y-100664880D01*
X102731727Y-100511995D01*
X102654485Y-100480000D01*
X102731727Y-100448005D01*
X102960535Y-100295120D01*
X103155120Y-100100535D01*
X103308005Y-99871727D01*
X103413314Y-99617490D01*
X103467000Y-99347592D01*
X103467000Y-99072408D01*
X103413314Y-98802510D01*
X103308005Y-98548273D01*
X103155120Y-98319465D01*
X102960535Y-98124880D01*
X102731727Y-97971995D01*
X102660057Y-97942308D01*
X102673023Y-97937636D01*
X102788980Y-97875656D01*
X102855960Y-97635565D01*
X102070000Y-96849605D01*
X101284040Y-97635565D01*
X101351020Y-97875656D01*
X101486760Y-97939485D01*
X101408273Y-97971995D01*
X101179465Y-98124880D01*
X100984880Y-98319465D01*
X100831995Y-98548273D01*
X100726686Y-98802510D01*
X100673000Y-99072408D01*
X100673000Y-99347592D01*
X100726686Y-99617490D01*
X100831995Y-99871727D01*
X100984880Y-100100535D01*
X101179465Y-100295120D01*
X101408273Y-100448005D01*
X101485515Y-100480000D01*
X101408273Y-100511995D01*
X101179465Y-100664880D01*
X100984880Y-100859465D01*
X100897659Y-100990000D01*
X99567323Y-100990000D01*
X99530000Y-100986324D01*
X99492677Y-100990000D01*
X99492667Y-100990000D01*
X99381014Y-101000997D01*
X99237753Y-101044454D01*
X99105723Y-101115026D01*
X99022083Y-101183668D01*
X98989999Y-101209999D01*
X98966201Y-101238997D01*
X95847000Y-104358199D01*
X95847000Y-104152408D01*
X95793314Y-103882510D01*
X95688005Y-103628273D01*
X95535120Y-103399465D01*
X95340535Y-103204880D01*
X95111727Y-103051995D01*
X95034485Y-103020000D01*
X95111727Y-102988005D01*
X95340535Y-102835120D01*
X95535120Y-102640535D01*
X95688005Y-102411727D01*
X95793314Y-102157490D01*
X95847000Y-101887592D01*
X95847000Y-101612408D01*
X95793314Y-101342510D01*
X95688005Y-101088273D01*
X95535120Y-100859465D01*
X95340535Y-100664880D01*
X95111727Y-100511995D01*
X95034485Y-100480000D01*
X95111727Y-100448005D01*
X95340535Y-100295120D01*
X95535120Y-100100535D01*
X95688005Y-99871727D01*
X95793314Y-99617490D01*
X95847000Y-99347592D01*
X95847000Y-99072408D01*
X95793314Y-98802510D01*
X95688005Y-98548273D01*
X95535120Y-98319465D01*
X95340535Y-98124880D01*
X95111727Y-97971995D01*
X95034485Y-97940000D01*
X95111727Y-97908005D01*
X95340535Y-97755120D01*
X95535120Y-97560535D01*
X95688005Y-97331727D01*
X95793314Y-97077490D01*
X95847000Y-96807592D01*
X95847000Y-96742017D01*
X100668090Y-96742017D01*
X100709078Y-97014133D01*
X100802364Y-97273023D01*
X100864344Y-97388980D01*
X101104435Y-97455960D01*
X101890395Y-96670000D01*
X102249605Y-96670000D01*
X103035565Y-97455960D01*
X103275656Y-97388980D01*
X103392756Y-97139952D01*
X103459023Y-96872865D01*
X103465157Y-96742017D01*
X110828090Y-96742017D01*
X110869078Y-97014133D01*
X110962364Y-97273023D01*
X111024344Y-97388980D01*
X111264435Y-97455960D01*
X112050395Y-96670000D01*
X111264435Y-95884040D01*
X111024344Y-95951020D01*
X110907244Y-96200048D01*
X110840977Y-96467135D01*
X110828090Y-96742017D01*
X103465157Y-96742017D01*
X103471910Y-96597983D01*
X103430922Y-96325867D01*
X103337636Y-96066977D01*
X103275656Y-95951020D01*
X103035565Y-95884040D01*
X102249605Y-96670000D01*
X101890395Y-96670000D01*
X101104435Y-95884040D01*
X100864344Y-95951020D01*
X100747244Y-96200048D01*
X100680977Y-96467135D01*
X100668090Y-96742017D01*
X95847000Y-96742017D01*
X95847000Y-96532408D01*
X95793314Y-96262510D01*
X95688005Y-96008273D01*
X95535120Y-95779465D01*
X95340535Y-95584880D01*
X95252535Y-95526080D01*
X95336482Y-95517812D01*
X95456180Y-95481502D01*
X95566494Y-95422537D01*
X95663185Y-95343185D01*
X95742537Y-95246494D01*
X95801502Y-95136180D01*
X95837812Y-95016482D01*
X95850072Y-94892000D01*
X95847000Y-94415750D01*
X95688250Y-94257000D01*
X94577000Y-94257000D01*
X94577000Y-94277000D01*
X94323000Y-94277000D01*
X94323000Y-94257000D01*
X93211750Y-94257000D01*
X93053000Y-94415750D01*
X93051848Y-94594364D01*
X92995120Y-94509465D01*
X92800535Y-94314880D01*
X92571727Y-94161995D01*
X92317490Y-94056686D01*
X92047592Y-94003000D01*
X91772408Y-94003000D01*
X91502510Y-94056686D01*
X91248273Y-94161995D01*
X91019465Y-94314880D01*
X90824880Y-94509465D01*
X90671995Y-94738273D01*
X90566686Y-94992510D01*
X90513000Y-95262408D01*
X90513000Y-95537592D01*
X90566686Y-95807490D01*
X90660924Y-96035000D01*
X90566686Y-96262510D01*
X90513000Y-96532408D01*
X90513000Y-96807592D01*
X90566686Y-97077490D01*
X90671995Y-97331727D01*
X90824880Y-97560535D01*
X91019465Y-97755120D01*
X91248273Y-97908005D01*
X91325515Y-97940000D01*
X91248273Y-97971995D01*
X91019465Y-98124880D01*
X90824880Y-98319465D01*
X90671995Y-98548273D01*
X90566686Y-98802510D01*
X90513000Y-99072408D01*
X90513000Y-99347592D01*
X90566686Y-99617490D01*
X90671995Y-99871727D01*
X90824880Y-100100535D01*
X91019465Y-100295120D01*
X91248273Y-100448005D01*
X91502510Y-100553314D01*
X91772408Y-100607000D01*
X92047592Y-100607000D01*
X92317490Y-100553314D01*
X92571727Y-100448005D01*
X92800535Y-100295120D01*
X92995120Y-100100535D01*
X93148005Y-99871727D01*
X93180000Y-99794485D01*
X93211995Y-99871727D01*
X93364880Y-100100535D01*
X93559465Y-100295120D01*
X93788273Y-100448005D01*
X93865515Y-100480000D01*
X93788273Y-100511995D01*
X93559465Y-100664880D01*
X93364880Y-100859465D01*
X93211995Y-101088273D01*
X93106686Y-101342510D01*
X93053000Y-101612408D01*
X93053000Y-101887592D01*
X93106686Y-102157490D01*
X93211995Y-102411727D01*
X93364880Y-102640535D01*
X93559465Y-102835120D01*
X93788273Y-102988005D01*
X93865515Y-103020000D01*
X93788273Y-103051995D01*
X93559465Y-103204880D01*
X93364880Y-103399465D01*
X93211995Y-103628273D01*
X93106686Y-103882510D01*
X93053000Y-104152408D01*
X93053000Y-104427592D01*
X93106686Y-104697490D01*
X93211995Y-104951727D01*
X93364880Y-105180535D01*
X93559465Y-105375120D01*
X93788273Y-105528005D01*
X93865515Y-105560000D01*
X93788273Y-105591995D01*
X93559465Y-105744880D01*
X93364880Y-105939465D01*
X93211995Y-106168273D01*
X93106686Y-106422510D01*
X93053000Y-106692408D01*
X93053000Y-106967592D01*
X93106686Y-107237490D01*
X93211995Y-107491727D01*
X93364880Y-107720535D01*
X93559465Y-107915120D01*
X93788273Y-108068005D01*
X93865515Y-108100000D01*
X93788273Y-108131995D01*
X93559465Y-108284880D01*
X93364880Y-108479465D01*
X93211995Y-108708273D01*
X93106686Y-108962510D01*
X93053000Y-109232408D01*
X93053000Y-109507592D01*
X93106686Y-109777490D01*
X93211995Y-110031727D01*
X93364880Y-110260535D01*
X93559465Y-110455120D01*
X93788273Y-110608005D01*
X93865515Y-110640000D01*
X93788273Y-110671995D01*
X93559465Y-110824880D01*
X93364880Y-111019465D01*
X93211995Y-111248273D01*
X93106686Y-111502510D01*
X93053000Y-111772408D01*
X93053000Y-112047592D01*
X93106686Y-112317490D01*
X93211995Y-112571727D01*
X93364880Y-112800535D01*
X93559465Y-112995120D01*
X93788273Y-113148005D01*
X93865515Y-113180000D01*
X93788273Y-113211995D01*
X93559465Y-113364880D01*
X93364880Y-113559465D01*
X93211995Y-113788273D01*
X93106686Y-114042510D01*
X93053000Y-114312408D01*
X93053000Y-114587592D01*
X93106686Y-114857490D01*
X93211995Y-115111727D01*
X93364880Y-115340535D01*
X93559465Y-115535120D01*
X93788273Y-115688005D01*
X93865515Y-115720000D01*
X93788273Y-115751995D01*
X93559465Y-115904880D01*
X93364880Y-116099465D01*
X93211995Y-116328273D01*
X93106686Y-116582510D01*
X93053000Y-116852408D01*
X93053000Y-117127592D01*
X93106686Y-117397490D01*
X93211995Y-117651727D01*
X93364880Y-117880535D01*
X93559465Y-118075120D01*
X93788273Y-118228005D01*
X93865515Y-118260000D01*
X93788273Y-118291995D01*
X93559465Y-118444880D01*
X93364880Y-118639465D01*
X93211995Y-118868273D01*
X93106686Y-119122510D01*
X93053000Y-119392408D01*
X93053000Y-119667592D01*
X93106686Y-119937490D01*
X93211995Y-120191727D01*
X93364880Y-120420535D01*
X93559465Y-120615120D01*
X93788273Y-120768005D01*
X93865515Y-120800000D01*
X93788273Y-120831995D01*
X93559465Y-120984880D01*
X93364880Y-121179465D01*
X93306080Y-121267465D01*
X93297812Y-121183518D01*
X93261502Y-121063820D01*
X93202537Y-120953506D01*
X93123185Y-120856815D01*
X93026494Y-120777463D01*
X92916180Y-120718498D01*
X92796482Y-120682188D01*
X92672000Y-120669928D01*
X91148000Y-120669928D01*
X91023518Y-120682188D01*
X90903820Y-120718498D01*
X90793506Y-120777463D01*
X90696815Y-120856815D01*
X90617463Y-120953506D01*
X90558498Y-121063820D01*
X90522188Y-121183518D01*
X90509928Y-121308000D01*
X74257000Y-121308000D01*
X74257000Y-99072408D01*
X82893000Y-99072408D01*
X82893000Y-99347592D01*
X82946686Y-99617490D01*
X83051995Y-99871727D01*
X83204880Y-100100535D01*
X83399465Y-100295120D01*
X83628273Y-100448005D01*
X83705515Y-100480000D01*
X83628273Y-100511995D01*
X83399465Y-100664880D01*
X83204880Y-100859465D01*
X83051995Y-101088273D01*
X82946686Y-101342510D01*
X82893000Y-101612408D01*
X82893000Y-101887592D01*
X82946686Y-102157490D01*
X83051995Y-102411727D01*
X83204880Y-102640535D01*
X83399465Y-102835120D01*
X83628273Y-102988005D01*
X83882510Y-103093314D01*
X84152408Y-103147000D01*
X84427592Y-103147000D01*
X84697490Y-103093314D01*
X84951727Y-102988005D01*
X85180535Y-102835120D01*
X85375120Y-102640535D01*
X85528005Y-102411727D01*
X85560000Y-102334485D01*
X85591995Y-102411727D01*
X85744880Y-102640535D01*
X85939465Y-102835120D01*
X86168273Y-102988005D01*
X86422510Y-103093314D01*
X86692408Y-103147000D01*
X86967592Y-103147000D01*
X87237490Y-103093314D01*
X87491727Y-102988005D01*
X87720535Y-102835120D01*
X87915120Y-102640535D01*
X88068005Y-102411727D01*
X88173314Y-102157490D01*
X88227000Y-101887592D01*
X88227000Y-101612408D01*
X88173314Y-101342510D01*
X88068005Y-101088273D01*
X87915120Y-100859465D01*
X87720535Y-100664880D01*
X87491727Y-100511995D01*
X87414485Y-100480000D01*
X87491727Y-100448005D01*
X87720535Y-100295120D01*
X87915120Y-100100535D01*
X88068005Y-99871727D01*
X88173314Y-99617490D01*
X88227000Y-99347592D01*
X88227000Y-99072408D01*
X88173314Y-98802510D01*
X88068005Y-98548273D01*
X87915120Y-98319465D01*
X87720535Y-98124880D01*
X87491727Y-97971995D01*
X87237490Y-97866686D01*
X86967592Y-97813000D01*
X86692408Y-97813000D01*
X86422510Y-97866686D01*
X86168273Y-97971995D01*
X85939465Y-98124880D01*
X85744880Y-98319465D01*
X85591995Y-98548273D01*
X85560000Y-98625515D01*
X85528005Y-98548273D01*
X85375120Y-98319465D01*
X85180535Y-98124880D01*
X84951727Y-97971995D01*
X84697490Y-97866686D01*
X84427592Y-97813000D01*
X84152408Y-97813000D01*
X83882510Y-97866686D01*
X83628273Y-97971995D01*
X83399465Y-98124880D01*
X83204880Y-98319465D01*
X83051995Y-98548273D01*
X82946686Y-98802510D01*
X82893000Y-99072408D01*
X74257000Y-99072408D01*
X74257000Y-69804495D01*
X74685000Y-69804495D01*
X74685000Y-70195505D01*
X74761282Y-70579003D01*
X74910915Y-70940250D01*
X75128149Y-71265364D01*
X75404636Y-71541851D01*
X75729750Y-71759085D01*
X76090997Y-71908718D01*
X76474495Y-71985000D01*
X76865505Y-71985000D01*
X77249003Y-71908718D01*
X77610250Y-71759085D01*
X77935364Y-71541851D01*
X78211851Y-71265364D01*
X78429085Y-70940250D01*
X78578718Y-70579003D01*
X78655000Y-70195505D01*
X78655000Y-69804495D01*
X78578718Y-69420997D01*
X78429085Y-69059750D01*
X78211851Y-68734636D01*
X77935364Y-68458149D01*
X77610250Y-68240915D01*
X77249003Y-68091282D01*
X76865505Y-68015000D01*
X76474495Y-68015000D01*
X76090997Y-68091282D01*
X75729750Y-68240915D01*
X75404636Y-68458149D01*
X75128149Y-68734636D01*
X74910915Y-69059750D01*
X74761282Y-69420997D01*
X74685000Y-69804495D01*
X74257000Y-69804495D01*
X74257000Y-68782606D01*
X75452606Y-67587000D01*
X83486088Y-67587000D01*
X83399465Y-67644880D01*
X83399465Y-67644880D01*
G37*
X83399465Y-67644880D02*
X83204880Y-67839465D01*
X83051995Y-68068273D01*
X82946686Y-68322510D01*
X82893000Y-68592408D01*
X82893000Y-68867592D01*
X82946686Y-69137490D01*
X83051995Y-69391727D01*
X83204880Y-69620535D01*
X83399465Y-69815120D01*
X83628273Y-69968005D01*
X83705515Y-70000000D01*
X83628273Y-70031995D01*
X83399465Y-70184880D01*
X83204880Y-70379465D01*
X83051995Y-70608273D01*
X82946686Y-70862510D01*
X82893000Y-71132408D01*
X82893000Y-71407592D01*
X82946686Y-71677490D01*
X83051995Y-71931727D01*
X83204880Y-72160535D01*
X83399465Y-72355120D01*
X83628273Y-72508005D01*
X83882510Y-72613314D01*
X84152408Y-72667000D01*
X84427592Y-72667000D01*
X84697490Y-72613314D01*
X84951727Y-72508005D01*
X85180535Y-72355120D01*
X85375120Y-72160535D01*
X85528005Y-71931727D01*
X85560000Y-71854485D01*
X85591995Y-71931727D01*
X85744880Y-72160535D01*
X85939465Y-72355120D01*
X86168273Y-72508005D01*
X86422510Y-72613314D01*
X86692408Y-72667000D01*
X86967592Y-72667000D01*
X87237490Y-72613314D01*
X87491727Y-72508005D01*
X87720535Y-72355120D01*
X87915120Y-72160535D01*
X88068005Y-71931727D01*
X88173314Y-71677490D01*
X88227000Y-71407592D01*
X88227000Y-71132408D01*
X88173314Y-70862510D01*
X88068005Y-70608273D01*
X87915120Y-70379465D01*
X87720535Y-70184880D01*
X87491727Y-70031995D01*
X87414485Y-70000000D01*
X87491727Y-69968005D01*
X87720535Y-69815120D01*
X87915120Y-69620535D01*
X88068005Y-69391727D01*
X88173314Y-69137490D01*
X88227000Y-68867592D01*
X88227000Y-68592408D01*
X88173314Y-68322510D01*
X88068005Y-68068273D01*
X87915120Y-67839465D01*
X87720535Y-67644880D01*
X87633912Y-67587000D01*
X91106088Y-67587000D01*
X91019465Y-67644880D01*
X90824880Y-67839465D01*
X90671995Y-68068273D01*
X90566686Y-68322510D01*
X90513000Y-68592408D01*
X90513000Y-68867592D01*
X90566686Y-69137490D01*
X90671995Y-69391727D01*
X90824880Y-69620535D01*
X91019465Y-69815120D01*
X91248273Y-69968005D01*
X91502510Y-70073314D01*
X91772408Y-70127000D01*
X92047592Y-70127000D01*
X92317490Y-70073314D01*
X92571727Y-69968005D01*
X92800535Y-69815120D01*
X92995120Y-69620535D01*
X93148005Y-69391727D01*
X93180000Y-69314485D01*
X93211995Y-69391727D01*
X93364880Y-69620535D01*
X93559465Y-69815120D01*
X93788273Y-69968005D01*
X93865515Y-70000000D01*
X93788273Y-70031995D01*
X93559465Y-70184880D01*
X93364880Y-70379465D01*
X93211995Y-70608273D01*
X93106686Y-70862510D01*
X93053000Y-71132408D01*
X93053000Y-71407592D01*
X93106686Y-71677490D01*
X93211995Y-71931727D01*
X93364880Y-72160535D01*
X93559465Y-72355120D01*
X93788273Y-72508005D01*
X93865515Y-72540000D01*
X93788273Y-72571995D01*
X93559465Y-72724880D01*
X93364880Y-72919465D01*
X93211995Y-73148273D01*
X93106686Y-73402510D01*
X93053000Y-73672408D01*
X93053000Y-73947592D01*
X93106686Y-74217490D01*
X93211995Y-74471727D01*
X93364880Y-74700535D01*
X93559465Y-74895120D01*
X93788273Y-75048005D01*
X93865515Y-75080000D01*
X93788273Y-75111995D01*
X93559465Y-75264880D01*
X93364880Y-75459465D01*
X93211995Y-75688273D01*
X93106686Y-75942510D01*
X93053000Y-76212408D01*
X93053000Y-76487592D01*
X93106686Y-76757490D01*
X93211995Y-77011727D01*
X93364880Y-77240535D01*
X93559465Y-77435120D01*
X93788273Y-77588005D01*
X93865515Y-77620000D01*
X93788273Y-77651995D01*
X93559465Y-77804880D01*
X93364880Y-77999465D01*
X93211995Y-78228273D01*
X93106686Y-78482510D01*
X93053000Y-78752408D01*
X93053000Y-79027592D01*
X93106686Y-79297490D01*
X93211995Y-79551727D01*
X93364880Y-79780535D01*
X93559465Y-79975120D01*
X93788273Y-80128005D01*
X93865515Y-80160000D01*
X93788273Y-80191995D01*
X93559465Y-80344880D01*
X93364880Y-80539465D01*
X93211995Y-80768273D01*
X93106686Y-81022510D01*
X93053000Y-81292408D01*
X93053000Y-81567592D01*
X93106686Y-81837490D01*
X93211995Y-82091727D01*
X93364880Y-82320535D01*
X93559465Y-82515120D01*
X93788273Y-82668005D01*
X93865515Y-82700000D01*
X93788273Y-82731995D01*
X93559465Y-82884880D01*
X93364880Y-83079465D01*
X93211995Y-83308273D01*
X93106686Y-83562510D01*
X93053000Y-83832408D01*
X93053000Y-84107592D01*
X93106686Y-84377490D01*
X93211995Y-84631727D01*
X93364880Y-84860535D01*
X93559465Y-85055120D01*
X93788273Y-85208005D01*
X93865515Y-85240000D01*
X93788273Y-85271995D01*
X93559465Y-85424880D01*
X93364880Y-85619465D01*
X93211995Y-85848273D01*
X93106686Y-86102510D01*
X93053000Y-86372408D01*
X93053000Y-86647592D01*
X93106686Y-86917490D01*
X93211995Y-87171727D01*
X93364880Y-87400535D01*
X93559465Y-87595120D01*
X93788273Y-87748005D01*
X93865515Y-87780000D01*
X93788273Y-87811995D01*
X93559465Y-87964880D01*
X93364880Y-88159465D01*
X93211995Y-88388273D01*
X93106686Y-88642510D01*
X93053000Y-88912408D01*
X93053000Y-89187592D01*
X93106686Y-89457490D01*
X93211995Y-89711727D01*
X93364880Y-89940535D01*
X93559465Y-90135120D01*
X93788273Y-90288005D01*
X93865515Y-90320000D01*
X93788273Y-90351995D01*
X93559465Y-90504880D01*
X93364880Y-90699465D01*
X93306080Y-90787465D01*
X93297812Y-90703518D01*
X93261502Y-90583820D01*
X93202537Y-90473506D01*
X93123185Y-90376815D01*
X93026494Y-90297463D01*
X92916180Y-90238498D01*
X92796482Y-90202188D01*
X92672000Y-90189928D01*
X91148000Y-90189928D01*
X91023518Y-90202188D01*
X90903820Y-90238498D01*
X90793506Y-90297463D01*
X90696815Y-90376815D01*
X90617463Y-90473506D01*
X90558498Y-90583820D01*
X90522188Y-90703518D01*
X90509928Y-90828000D01*
X90509928Y-92352000D01*
X90522188Y-92476482D01*
X90558498Y-92596180D01*
X90617463Y-92706494D01*
X90696815Y-92803185D01*
X90793506Y-92882537D01*
X90903820Y-92941502D01*
X91023518Y-92977812D01*
X91148000Y-92990072D01*
X92672000Y-92990072D01*
X92796482Y-92977812D01*
X92916180Y-92941502D01*
X93026494Y-92882537D01*
X93123185Y-92803185D01*
X93202537Y-92706494D01*
X93261502Y-92596180D01*
X93297812Y-92476482D01*
X93306080Y-92392535D01*
X93364880Y-92480535D01*
X93559465Y-92675120D01*
X93647465Y-92733920D01*
X93563518Y-92742188D01*
X93443820Y-92778498D01*
X93333506Y-92837463D01*
X93236815Y-92916815D01*
X93157463Y-93013506D01*
X93098498Y-93123820D01*
X93062188Y-93243518D01*
X93049928Y-93368000D01*
X93053000Y-93844250D01*
X93211750Y-94003000D01*
X94323000Y-94003000D01*
X94323000Y-93983000D01*
X94577000Y-93983000D01*
X94577000Y-94003000D01*
X95688250Y-94003000D01*
X95847000Y-93844250D01*
X95850072Y-93368000D01*
X95837812Y-93243518D01*
X95801502Y-93123820D01*
X95742537Y-93013506D01*
X95663185Y-92916815D01*
X95566494Y-92837463D01*
X95456180Y-92778498D01*
X95336482Y-92742188D01*
X95252535Y-92733920D01*
X95340535Y-92675120D01*
X95535120Y-92480535D01*
X95688005Y-92251727D01*
X95793314Y-91997490D01*
X95847000Y-91727592D01*
X95847000Y-91521801D01*
X98966200Y-94641002D01*
X98989999Y-94670001D01*
X99018997Y-94693799D01*
X99105723Y-94764974D01*
X99237753Y-94835546D01*
X99381014Y-94879003D01*
X99492667Y-94890000D01*
X99492677Y-94890000D01*
X99530000Y-94893676D01*
X99567323Y-94890000D01*
X100897659Y-94890000D01*
X100984880Y-95020535D01*
X101179465Y-95215120D01*
X101408273Y-95368005D01*
X101479943Y-95397692D01*
X101466977Y-95402364D01*
X101351020Y-95464344D01*
X101284040Y-95704435D01*
X102070000Y-96490395D01*
X102855960Y-95704435D01*
X102788980Y-95464344D01*
X102653240Y-95400515D01*
X102731727Y-95368005D01*
X102960535Y-95215120D01*
X103155120Y-95020535D01*
X103308005Y-94791727D01*
X103413314Y-94537490D01*
X103467000Y-94267592D01*
X103467000Y-93992408D01*
X103413314Y-93722510D01*
X103308005Y-93468273D01*
X103155120Y-93239465D01*
X102960535Y-93044880D01*
X102731727Y-92891995D01*
X102654485Y-92860000D01*
X102731727Y-92828005D01*
X102960535Y-92675120D01*
X103155120Y-92480535D01*
X103308005Y-92251727D01*
X103413314Y-91997490D01*
X103467000Y-91727592D01*
X103467000Y-91452408D01*
X103413314Y-91182510D01*
X103308005Y-90928273D01*
X103155120Y-90699465D01*
X102960535Y-90504880D01*
X102731727Y-90351995D01*
X102654485Y-90320000D01*
X102731727Y-90288005D01*
X102960535Y-90135120D01*
X103155120Y-89940535D01*
X103308005Y-89711727D01*
X103413314Y-89457490D01*
X103467000Y-89187592D01*
X103467000Y-88912408D01*
X103413314Y-88642510D01*
X103308005Y-88388273D01*
X103155120Y-88159465D01*
X102960535Y-87964880D01*
X102731727Y-87811995D01*
X102654485Y-87780000D01*
X102731727Y-87748005D01*
X102960535Y-87595120D01*
X103155120Y-87400535D01*
X103308005Y-87171727D01*
X103413314Y-86917490D01*
X103467000Y-86647592D01*
X103467000Y-86372408D01*
X103413314Y-86102510D01*
X103308005Y-85848273D01*
X103155120Y-85619465D01*
X102960535Y-85424880D01*
X102731727Y-85271995D01*
X102654485Y-85240000D01*
X102731727Y-85208005D01*
X102960535Y-85055120D01*
X103155120Y-84860535D01*
X103308005Y-84631727D01*
X103413314Y-84377490D01*
X103467000Y-84107592D01*
X103467000Y-83832408D01*
X103413314Y-83562510D01*
X103308005Y-83308273D01*
X103155120Y-83079465D01*
X102960535Y-82884880D01*
X102731727Y-82731995D01*
X102660057Y-82702308D01*
X102673023Y-82697636D01*
X102788980Y-82635656D01*
X102855960Y-82395565D01*
X102070000Y-81609605D01*
X101284040Y-82395565D01*
X101351020Y-82635656D01*
X101486760Y-82699485D01*
X101408273Y-82731995D01*
X101179465Y-82884880D01*
X100984880Y-83079465D01*
X100831995Y-83308273D01*
X100726686Y-83562510D01*
X100673000Y-83832408D01*
X100673000Y-84038198D01*
X98136819Y-81502017D01*
X100668090Y-81502017D01*
X100709078Y-81774133D01*
X100802364Y-82033023D01*
X100864344Y-82148980D01*
X101104435Y-82215960D01*
X101890395Y-81430000D01*
X102249605Y-81430000D01*
X103035565Y-82215960D01*
X103275656Y-82148980D01*
X103392756Y-81899952D01*
X103459023Y-81632865D01*
X103465157Y-81502017D01*
X110828090Y-81502017D01*
X110869078Y-81774133D01*
X110962364Y-82033023D01*
X111024344Y-82148980D01*
X111264435Y-82215960D01*
X112050395Y-81430000D01*
X111264435Y-80644040D01*
X111024344Y-80711020D01*
X110907244Y-80960048D01*
X110840977Y-81227135D01*
X110828090Y-81502017D01*
X103465157Y-81502017D01*
X103471910Y-81357983D01*
X103430922Y-81085867D01*
X103337636Y-80826977D01*
X103275656Y-80711020D01*
X103035565Y-80644040D01*
X102249605Y-81430000D01*
X101890395Y-81430000D01*
X101104435Y-80644040D01*
X100864344Y-80711020D01*
X100747244Y-80960048D01*
X100680977Y-81227135D01*
X100668090Y-81502017D01*
X98136819Y-81502017D01*
X97553804Y-80919003D01*
X97530001Y-80889999D01*
X97414276Y-80795026D01*
X97282247Y-80724454D01*
X97138986Y-80680997D01*
X97027333Y-80670000D01*
X97027322Y-80670000D01*
X96990000Y-80666324D01*
X96952678Y-80670000D01*
X95622341Y-80670000D01*
X95535120Y-80539465D01*
X95340535Y-80344880D01*
X95111727Y-80191995D01*
X95034485Y-80160000D01*
X95111727Y-80128005D01*
X95340535Y-79975120D01*
X95535120Y-79780535D01*
X95622341Y-79650000D01*
X100897659Y-79650000D01*
X100984880Y-79780535D01*
X101179465Y-79975120D01*
X101408273Y-80128005D01*
X101479943Y-80157692D01*
X101466977Y-80162364D01*
X101351020Y-80224344D01*
X101284040Y-80464435D01*
X102070000Y-81250395D01*
X102855960Y-80464435D01*
X102788980Y-80224344D01*
X102653240Y-80160515D01*
X102731727Y-80128005D01*
X102960535Y-79975120D01*
X103155120Y-79780535D01*
X103308005Y-79551727D01*
X103413314Y-79297490D01*
X103467000Y-79027592D01*
X103467000Y-78752408D01*
X103413314Y-78482510D01*
X103308005Y-78228273D01*
X103155120Y-77999465D01*
X102960535Y-77804880D01*
X102731727Y-77651995D01*
X102654485Y-77620000D01*
X102731727Y-77588005D01*
X102960535Y-77435120D01*
X103155120Y-77240535D01*
X103308005Y-77011727D01*
X103413314Y-76757490D01*
X103467000Y-76487592D01*
X103467000Y-76212408D01*
X110833000Y-76212408D01*
X110833000Y-76487592D01*
X110886686Y-76757490D01*
X110991995Y-77011727D01*
X111144880Y-77240535D01*
X111339465Y-77435120D01*
X111568273Y-77588005D01*
X111645515Y-77620000D01*
X111568273Y-77651995D01*
X111339465Y-77804880D01*
X111144880Y-77999465D01*
X110991995Y-78228273D01*
X110886686Y-78482510D01*
X110833000Y-78752408D01*
X110833000Y-79027592D01*
X110886686Y-79297490D01*
X110991995Y-79551727D01*
X111144880Y-79780535D01*
X111339465Y-79975120D01*
X111568273Y-80128005D01*
X111639943Y-80157692D01*
X111626977Y-80162364D01*
X111511020Y-80224344D01*
X111444040Y-80464435D01*
X112230000Y-81250395D01*
X112244143Y-81236253D01*
X112423748Y-81415858D01*
X112409605Y-81430000D01*
X113195565Y-82215960D01*
X113435656Y-82148980D01*
X113552756Y-81899952D01*
X113619023Y-81632865D01*
X113631519Y-81366322D01*
X114010001Y-81744804D01*
X114010000Y-86472677D01*
X114006324Y-86510000D01*
X114010000Y-86547322D01*
X114010000Y-86547332D01*
X114020997Y-86658985D01*
X114064454Y-86802246D01*
X114135026Y-86934276D01*
X114174871Y-86982826D01*
X114229999Y-87050001D01*
X114259003Y-87073804D01*
X115943628Y-88758430D01*
X115913000Y-88912408D01*
X115913000Y-89118198D01*
X113596372Y-86801571D01*
X113627000Y-86647592D01*
X113627000Y-86372408D01*
X113573314Y-86102510D01*
X113468005Y-85848273D01*
X113315120Y-85619465D01*
X113120535Y-85424880D01*
X112891727Y-85271995D01*
X112814485Y-85240000D01*
X112891727Y-85208005D01*
X113120535Y-85055120D01*
X113315120Y-84860535D01*
X113468005Y-84631727D01*
X113573314Y-84377490D01*
X113627000Y-84107592D01*
X113627000Y-83832408D01*
X113573314Y-83562510D01*
X113468005Y-83308273D01*
X113315120Y-83079465D01*
X113120535Y-82884880D01*
X112891727Y-82731995D01*
X112820057Y-82702308D01*
X112833023Y-82697636D01*
X112948980Y-82635656D01*
X113015960Y-82395565D01*
X112230000Y-81609605D01*
X111444040Y-82395565D01*
X111511020Y-82635656D01*
X111646760Y-82699485D01*
X111568273Y-82731995D01*
X111339465Y-82884880D01*
X111144880Y-83079465D01*
X110991995Y-83308273D01*
X110886686Y-83562510D01*
X110833000Y-83832408D01*
X110833000Y-84107592D01*
X110886686Y-84377490D01*
X110991995Y-84631727D01*
X111144880Y-84860535D01*
X111339465Y-85055120D01*
X111568273Y-85208005D01*
X111645515Y-85240000D01*
X111568273Y-85271995D01*
X111339465Y-85424880D01*
X111144880Y-85619465D01*
X110991995Y-85848273D01*
X110886686Y-86102510D01*
X110833000Y-86372408D01*
X110833000Y-86647592D01*
X110886686Y-86917490D01*
X110991995Y-87171727D01*
X111144880Y-87400535D01*
X111339465Y-87595120D01*
X111568273Y-87748005D01*
X111645515Y-87780000D01*
X111568273Y-87811995D01*
X111339465Y-87964880D01*
X111144880Y-88159465D01*
X110991995Y-88388273D01*
X110886686Y-88642510D01*
X110833000Y-88912408D01*
X110833000Y-89187592D01*
X110886686Y-89457490D01*
X110991995Y-89711727D01*
X111144880Y-89940535D01*
X111339465Y-90135120D01*
X111568273Y-90288005D01*
X111645515Y-90320000D01*
X111568273Y-90351995D01*
X111339465Y-90504880D01*
X111144880Y-90699465D01*
X110991995Y-90928273D01*
X110886686Y-91182510D01*
X110833000Y-91452408D01*
X110833000Y-91727592D01*
X110886686Y-91997490D01*
X110991995Y-92251727D01*
X111144880Y-92480535D01*
X111339465Y-92675120D01*
X111568273Y-92828005D01*
X111645515Y-92860000D01*
X111568273Y-92891995D01*
X111339465Y-93044880D01*
X111144880Y-93239465D01*
X110991995Y-93468273D01*
X110886686Y-93722510D01*
X110833000Y-93992408D01*
X110833000Y-94267592D01*
X110886686Y-94537490D01*
X110991995Y-94791727D01*
X111144880Y-95020535D01*
X111339465Y-95215120D01*
X111568273Y-95368005D01*
X111639943Y-95397692D01*
X111626977Y-95402364D01*
X111511020Y-95464344D01*
X111444040Y-95704435D01*
X112230000Y-96490395D01*
X112244143Y-96476253D01*
X112423748Y-96655858D01*
X112409605Y-96670000D01*
X113195565Y-97455960D01*
X113435656Y-97388980D01*
X113552756Y-97139952D01*
X113619023Y-96872865D01*
X113631519Y-96606321D01*
X115943628Y-98918430D01*
X115913000Y-99072408D01*
X115913000Y-99347592D01*
X115966686Y-99617490D01*
X116071995Y-99871727D01*
X116224880Y-100100535D01*
X116419465Y-100295120D01*
X116648273Y-100448005D01*
X116725515Y-100480000D01*
X116648273Y-100511995D01*
X116419465Y-100664880D01*
X116224880Y-100859465D01*
X116137659Y-100990000D01*
X113402341Y-100990000D01*
X113315120Y-100859465D01*
X113120535Y-100664880D01*
X112891727Y-100511995D01*
X112814485Y-100480000D01*
X112891727Y-100448005D01*
X113120535Y-100295120D01*
X113315120Y-100100535D01*
X113468005Y-99871727D01*
X113573314Y-99617490D01*
X113627000Y-99347592D01*
X113627000Y-99072408D01*
X113573314Y-98802510D01*
X113468005Y-98548273D01*
X113315120Y-98319465D01*
X113120535Y-98124880D01*
X112891727Y-97971995D01*
X112820057Y-97942308D01*
X112833023Y-97937636D01*
X112948980Y-97875656D01*
X113015960Y-97635565D01*
X112230000Y-96849605D01*
X111444040Y-97635565D01*
X111511020Y-97875656D01*
X111646760Y-97939485D01*
X111568273Y-97971995D01*
X111339465Y-98124880D01*
X111144880Y-98319465D01*
X110991995Y-98548273D01*
X110886686Y-98802510D01*
X110833000Y-99072408D01*
X110833000Y-99347592D01*
X110886686Y-99617490D01*
X110991995Y-99871727D01*
X111144880Y-100100535D01*
X111339465Y-100295120D01*
X111568273Y-100448005D01*
X111645515Y-100480000D01*
X111568273Y-100511995D01*
X111339465Y-100664880D01*
X111144880Y-100859465D01*
X110991995Y-101088273D01*
X110886686Y-101342510D01*
X110833000Y-101612408D01*
X110833000Y-101887592D01*
X110886686Y-102157490D01*
X110991995Y-102411727D01*
X111144880Y-102640535D01*
X111339465Y-102835120D01*
X111568273Y-102988005D01*
X111645515Y-103020000D01*
X111568273Y-103051995D01*
X111339465Y-103204880D01*
X111144880Y-103399465D01*
X110991995Y-103628273D01*
X110886686Y-103882510D01*
X110833000Y-104152408D01*
X110833000Y-104427592D01*
X110886686Y-104697490D01*
X110991995Y-104951727D01*
X111144880Y-105180535D01*
X111339465Y-105375120D01*
X111568273Y-105528005D01*
X111645515Y-105560000D01*
X111568273Y-105591995D01*
X111339465Y-105744880D01*
X111144880Y-105939465D01*
X110991995Y-106168273D01*
X110886686Y-106422510D01*
X110833000Y-106692408D01*
X110833000Y-106967592D01*
X110886686Y-107237490D01*
X110991995Y-107491727D01*
X111144880Y-107720535D01*
X111339465Y-107915120D01*
X111568273Y-108068005D01*
X111645515Y-108100000D01*
X111568273Y-108131995D01*
X111339465Y-108284880D01*
X111144880Y-108479465D01*
X110991995Y-108708273D01*
X110886686Y-108962510D01*
X110833000Y-109232408D01*
X110833000Y-109507592D01*
X110886686Y-109777490D01*
X110991995Y-110031727D01*
X111144880Y-110260535D01*
X111339465Y-110455120D01*
X111568273Y-110608005D01*
X111639943Y-110637692D01*
X111626977Y-110642364D01*
X111511020Y-110704344D01*
X111444040Y-110944435D01*
X112230000Y-111730395D01*
X113015960Y-110944435D01*
X112948980Y-110704344D01*
X112813240Y-110640515D01*
X112891727Y-110608005D01*
X113120535Y-110455120D01*
X113315120Y-110260535D01*
X113402341Y-110130000D01*
X116137659Y-110130000D01*
X116224880Y-110260535D01*
X116419465Y-110455120D01*
X116648273Y-110608005D01*
X116725515Y-110640000D01*
X116648273Y-110671995D01*
X116419465Y-110824880D01*
X116224880Y-111019465D01*
X116071995Y-111248273D01*
X115966686Y-111502510D01*
X115913000Y-111772408D01*
X115913000Y-112047592D01*
X115943628Y-112201570D01*
X113627000Y-114518199D01*
X113627000Y-114312408D01*
X113573314Y-114042510D01*
X113468005Y-113788273D01*
X113315120Y-113559465D01*
X113120535Y-113364880D01*
X112891727Y-113211995D01*
X112820057Y-113182308D01*
X112833023Y-113177636D01*
X112948980Y-113115656D01*
X113015960Y-112875565D01*
X112230000Y-112089605D01*
X111444040Y-112875565D01*
X111511020Y-113115656D01*
X111646760Y-113179485D01*
X111568273Y-113211995D01*
X111339465Y-113364880D01*
X111144880Y-113559465D01*
X110991995Y-113788273D01*
X110886686Y-114042510D01*
X110833000Y-114312408D01*
X110833000Y-114587592D01*
X110886686Y-114857490D01*
X110991995Y-115111727D01*
X111144880Y-115340535D01*
X111339465Y-115535120D01*
X111568273Y-115688005D01*
X111645515Y-115720000D01*
X111568273Y-115751995D01*
X111339465Y-115904880D01*
X111144880Y-116099465D01*
X110991995Y-116328273D01*
X110886686Y-116582510D01*
X110833000Y-116852408D01*
X110833000Y-117127592D01*
X110886686Y-117397490D01*
X110991995Y-117651727D01*
X111144880Y-117880535D01*
X111339465Y-118075120D01*
X111568273Y-118228005D01*
X111645515Y-118260000D01*
X111568273Y-118291995D01*
X111339465Y-118444880D01*
X111144880Y-118639465D01*
X110991995Y-118868273D01*
X110886686Y-119122510D01*
X110833000Y-119392408D01*
X110833000Y-119667592D01*
X110886686Y-119937490D01*
X110991995Y-120191727D01*
X111144880Y-120420535D01*
X111339465Y-120615120D01*
X111568273Y-120768005D01*
X111822510Y-120873314D01*
X112092408Y-120927000D01*
X112367592Y-120927000D01*
X112637490Y-120873314D01*
X112891727Y-120768005D01*
X113120535Y-120615120D01*
X113315120Y-120420535D01*
X113468005Y-120191727D01*
X113573314Y-119937490D01*
X113627000Y-119667592D01*
X113627000Y-119392408D01*
X113596372Y-119238429D01*
X115913000Y-116921802D01*
X115913000Y-117127592D01*
X115966686Y-117397490D01*
X116071995Y-117651727D01*
X116224880Y-117880535D01*
X116419465Y-118075120D01*
X116648273Y-118228005D01*
X116725515Y-118260000D01*
X116648273Y-118291995D01*
X116419465Y-118444880D01*
X116224880Y-118639465D01*
X116071995Y-118868273D01*
X115966686Y-119122510D01*
X115913000Y-119392408D01*
X115913000Y-119667592D01*
X115966686Y-119937490D01*
X116071995Y-120191727D01*
X116224880Y-120420535D01*
X116419465Y-120615120D01*
X116648273Y-120768005D01*
X116902510Y-120873314D01*
X117172408Y-120927000D01*
X117447592Y-120927000D01*
X117717490Y-120873314D01*
X117971727Y-120768005D01*
X118200535Y-120615120D01*
X118395120Y-120420535D01*
X118548005Y-120191727D01*
X118653314Y-119937490D01*
X118707000Y-119667592D01*
X118707000Y-119392408D01*
X118653314Y-119122510D01*
X118548005Y-118868273D01*
X118395120Y-118639465D01*
X118200535Y-118444880D01*
X117971727Y-118291995D01*
X117894485Y-118260000D01*
X117971727Y-118228005D01*
X118200535Y-118075120D01*
X118395120Y-117880535D01*
X118548005Y-117651727D01*
X118653314Y-117397490D01*
X118707000Y-117127592D01*
X118707000Y-116852408D01*
X118653314Y-116582510D01*
X118548005Y-116328273D01*
X118395120Y-116099465D01*
X118200535Y-115904880D01*
X117971727Y-115751995D01*
X117894485Y-115720000D01*
X117971727Y-115688005D01*
X118200535Y-115535120D01*
X118395120Y-115340535D01*
X118548005Y-115111727D01*
X118653314Y-114857490D01*
X118707000Y-114587592D01*
X118707000Y-114312408D01*
X118653314Y-114042510D01*
X118548005Y-113788273D01*
X118395120Y-113559465D01*
X118200535Y-113364880D01*
X117971727Y-113211995D01*
X117894485Y-113180000D01*
X117971727Y-113148005D01*
X118200535Y-112995120D01*
X118395120Y-112800535D01*
X118548005Y-112571727D01*
X118653314Y-112317490D01*
X118707000Y-112047592D01*
X118707000Y-111772408D01*
X118653314Y-111502510D01*
X118548005Y-111248273D01*
X118395120Y-111019465D01*
X118200535Y-110824880D01*
X117971727Y-110671995D01*
X117894485Y-110640000D01*
X117971727Y-110608005D01*
X118200535Y-110455120D01*
X118395120Y-110260535D01*
X118548005Y-110031727D01*
X118653314Y-109777490D01*
X118707000Y-109507592D01*
X118707000Y-109232408D01*
X118695481Y-109174495D01*
X126755000Y-109174495D01*
X126755000Y-109565505D01*
X126831282Y-109949003D01*
X126980915Y-110310250D01*
X127198149Y-110635364D01*
X127474636Y-110911851D01*
X127799750Y-111129085D01*
X128160997Y-111278718D01*
X128544495Y-111355000D01*
X128935505Y-111355000D01*
X129319003Y-111278718D01*
X129680250Y-111129085D01*
X130005364Y-110911851D01*
X130281851Y-110635364D01*
X130499085Y-110310250D01*
X130648718Y-109949003D01*
X130725000Y-109565505D01*
X130725000Y-109174495D01*
X130648718Y-108790997D01*
X130499085Y-108429750D01*
X130281851Y-108104636D01*
X130005364Y-107828149D01*
X129680250Y-107610915D01*
X129319003Y-107461282D01*
X128935505Y-107385000D01*
X128544495Y-107385000D01*
X128160997Y-107461282D01*
X127799750Y-107610915D01*
X127474636Y-107828149D01*
X127198149Y-108104636D01*
X126980915Y-108429750D01*
X126831282Y-108790997D01*
X126755000Y-109174495D01*
X118695481Y-109174495D01*
X118653314Y-108962510D01*
X118548005Y-108708273D01*
X118395120Y-108479465D01*
X118200535Y-108284880D01*
X117971727Y-108131995D01*
X117894485Y-108100000D01*
X117971727Y-108068005D01*
X118200535Y-107915120D01*
X118395120Y-107720535D01*
X118548005Y-107491727D01*
X118653314Y-107237490D01*
X118707000Y-106967592D01*
X118707000Y-106692408D01*
X118653314Y-106422510D01*
X118548005Y-106168273D01*
X118395120Y-105939465D01*
X118200535Y-105744880D01*
X117971727Y-105591995D01*
X117894485Y-105560000D01*
X117971727Y-105528005D01*
X118200535Y-105375120D01*
X118395120Y-105180535D01*
X118548005Y-104951727D01*
X118653314Y-104697490D01*
X118707000Y-104427592D01*
X118707000Y-104152408D01*
X118653314Y-103882510D01*
X118548005Y-103628273D01*
X118395120Y-103399465D01*
X118200535Y-103204880D01*
X117971727Y-103051995D01*
X117894485Y-103020000D01*
X117971727Y-102988005D01*
X118200535Y-102835120D01*
X118395120Y-102640535D01*
X118548005Y-102411727D01*
X118653314Y-102157490D01*
X118707000Y-101887592D01*
X118707000Y-101612408D01*
X118653314Y-101342510D01*
X118548005Y-101088273D01*
X118395120Y-100859465D01*
X118200535Y-100664880D01*
X117971727Y-100511995D01*
X117894485Y-100480000D01*
X117971727Y-100448005D01*
X118200535Y-100295120D01*
X118395120Y-100100535D01*
X118548005Y-99871727D01*
X118653314Y-99617490D01*
X118707000Y-99347592D01*
X118707000Y-99072408D01*
X118653314Y-98802510D01*
X118548005Y-98548273D01*
X118395120Y-98319465D01*
X118200535Y-98124880D01*
X117971727Y-97971995D01*
X117894485Y-97940000D01*
X117971727Y-97908005D01*
X118200535Y-97755120D01*
X118395120Y-97560535D01*
X118548005Y-97331727D01*
X118653314Y-97077490D01*
X118707000Y-96807592D01*
X118707000Y-96532408D01*
X118653314Y-96262510D01*
X118548005Y-96008273D01*
X118395120Y-95779465D01*
X118200535Y-95584880D01*
X117971727Y-95431995D01*
X117894485Y-95400000D01*
X117971727Y-95368005D01*
X118200535Y-95215120D01*
X118395120Y-95020535D01*
X118548005Y-94791727D01*
X118653314Y-94537490D01*
X118707000Y-94267592D01*
X118707000Y-93992408D01*
X118653314Y-93722510D01*
X118548005Y-93468273D01*
X118395120Y-93239465D01*
X118200535Y-93044880D01*
X117971727Y-92891995D01*
X117894485Y-92860000D01*
X117971727Y-92828005D01*
X118200535Y-92675120D01*
X118395120Y-92480535D01*
X118548005Y-92251727D01*
X118653314Y-91997490D01*
X118707000Y-91727592D01*
X118707000Y-91452408D01*
X118653314Y-91182510D01*
X118548005Y-90928273D01*
X118395120Y-90699465D01*
X118200535Y-90504880D01*
X117971727Y-90351995D01*
X117894485Y-90320000D01*
X117971727Y-90288005D01*
X118200535Y-90135120D01*
X118395120Y-89940535D01*
X118548005Y-89711727D01*
X118653314Y-89457490D01*
X118707000Y-89187592D01*
X118707000Y-88912408D01*
X118653314Y-88642510D01*
X118548005Y-88388273D01*
X118395120Y-88159465D01*
X118200535Y-87964880D01*
X117971727Y-87811995D01*
X117894485Y-87780000D01*
X117971727Y-87748005D01*
X118200535Y-87595120D01*
X118395120Y-87400535D01*
X118548005Y-87171727D01*
X118653314Y-86917490D01*
X118707000Y-86647592D01*
X118707000Y-86372408D01*
X118695481Y-86314495D01*
X126755000Y-86314495D01*
X126755000Y-86705505D01*
X126831282Y-87089003D01*
X126980915Y-87450250D01*
X127198149Y-87775364D01*
X127474636Y-88051851D01*
X127799750Y-88269085D01*
X128160997Y-88418718D01*
X128544495Y-88495000D01*
X128935505Y-88495000D01*
X129319003Y-88418718D01*
X129680250Y-88269085D01*
X130005364Y-88051851D01*
X130281851Y-87775364D01*
X130499085Y-87450250D01*
X130648718Y-87089003D01*
X130725000Y-86705505D01*
X130725000Y-86372408D01*
X138773000Y-86372408D01*
X138773000Y-86647592D01*
X138826686Y-86917490D01*
X138931995Y-87171727D01*
X139084880Y-87400535D01*
X139279465Y-87595120D01*
X139508273Y-87748005D01*
X139585515Y-87780000D01*
X139508273Y-87811995D01*
X139279465Y-87964880D01*
X139084880Y-88159465D01*
X138931995Y-88388273D01*
X138826686Y-88642510D01*
X138773000Y-88912408D01*
X138773000Y-89187592D01*
X138826686Y-89457490D01*
X138931995Y-89711727D01*
X139084880Y-89940535D01*
X139279465Y-90135120D01*
X139508273Y-90288005D01*
X139585515Y-90320000D01*
X139508273Y-90351995D01*
X139279465Y-90504880D01*
X139084880Y-90699465D01*
X138931995Y-90928273D01*
X138826686Y-91182510D01*
X138773000Y-91452408D01*
X138773000Y-91727592D01*
X138826686Y-91997490D01*
X138931995Y-92251727D01*
X139084880Y-92480535D01*
X139279465Y-92675120D01*
X139508273Y-92828005D01*
X139585515Y-92860000D01*
X139508273Y-92891995D01*
X139279465Y-93044880D01*
X139084880Y-93239465D01*
X138931995Y-93468273D01*
X138826686Y-93722510D01*
X138773000Y-93992408D01*
X138773000Y-94267592D01*
X138826686Y-94537490D01*
X138931995Y-94791727D01*
X139084880Y-95020535D01*
X139279465Y-95215120D01*
X139508273Y-95368005D01*
X139585515Y-95400000D01*
X139508273Y-95431995D01*
X139279465Y-95584880D01*
X139084880Y-95779465D01*
X138931995Y-96008273D01*
X138826686Y-96262510D01*
X138773000Y-96532408D01*
X138773000Y-96807592D01*
X138826686Y-97077490D01*
X138931995Y-97331727D01*
X139084880Y-97560535D01*
X139279465Y-97755120D01*
X139508273Y-97908005D01*
X139585515Y-97940000D01*
X139508273Y-97971995D01*
X139279465Y-98124880D01*
X139084880Y-98319465D01*
X138931995Y-98548273D01*
X138826686Y-98802510D01*
X138773000Y-99072408D01*
X138773000Y-99347592D01*
X138826686Y-99617490D01*
X138931995Y-99871727D01*
X139084880Y-100100535D01*
X139279465Y-100295120D01*
X139508273Y-100448005D01*
X139585515Y-100480000D01*
X139508273Y-100511995D01*
X139279465Y-100664880D01*
X139084880Y-100859465D01*
X138931995Y-101088273D01*
X138826686Y-101342510D01*
X138773000Y-101612408D01*
X138773000Y-101887592D01*
X138826686Y-102157490D01*
X138931995Y-102411727D01*
X139084880Y-102640535D01*
X139279465Y-102835120D01*
X139508273Y-102988005D01*
X139585515Y-103020000D01*
X139508273Y-103051995D01*
X139279465Y-103204880D01*
X139084880Y-103399465D01*
X138931995Y-103628273D01*
X138826686Y-103882510D01*
X138773000Y-104152408D01*
X138773000Y-104427592D01*
X138826686Y-104697490D01*
X138931995Y-104951727D01*
X139084880Y-105180535D01*
X139279465Y-105375120D01*
X139508273Y-105528005D01*
X139585515Y-105560000D01*
X139508273Y-105591995D01*
X139279465Y-105744880D01*
X139084880Y-105939465D01*
X138931995Y-106168273D01*
X138826686Y-106422510D01*
X138773000Y-106692408D01*
X138773000Y-106967592D01*
X138826686Y-107237490D01*
X138931995Y-107491727D01*
X139084880Y-107720535D01*
X139279465Y-107915120D01*
X139508273Y-108068005D01*
X139585515Y-108100000D01*
X139508273Y-108131995D01*
X139279465Y-108284880D01*
X139084880Y-108479465D01*
X138931995Y-108708273D01*
X138826686Y-108962510D01*
X138773000Y-109232408D01*
X138773000Y-109507592D01*
X138826686Y-109777490D01*
X138931995Y-110031727D01*
X139084880Y-110260535D01*
X139279465Y-110455120D01*
X139508273Y-110608005D01*
X139585515Y-110640000D01*
X139508273Y-110671995D01*
X139279465Y-110824880D01*
X139084880Y-111019465D01*
X138931995Y-111248273D01*
X138826686Y-111502510D01*
X138773000Y-111772408D01*
X138773000Y-112047592D01*
X138826686Y-112317490D01*
X138931995Y-112571727D01*
X139084880Y-112800535D01*
X139279465Y-112995120D01*
X139508273Y-113148005D01*
X139585515Y-113180000D01*
X139508273Y-113211995D01*
X139279465Y-113364880D01*
X139084880Y-113559465D01*
X138931995Y-113788273D01*
X138826686Y-114042510D01*
X138773000Y-114312408D01*
X138773000Y-114587592D01*
X138826686Y-114857490D01*
X138931995Y-115111727D01*
X139084880Y-115340535D01*
X139279465Y-115535120D01*
X139508273Y-115688005D01*
X139585515Y-115720000D01*
X139508273Y-115751995D01*
X139279465Y-115904880D01*
X139084880Y-116099465D01*
X138931995Y-116328273D01*
X138826686Y-116582510D01*
X138773000Y-116852408D01*
X138773000Y-117127592D01*
X138826686Y-117397490D01*
X138931995Y-117651727D01*
X139084880Y-117880535D01*
X139279465Y-118075120D01*
X139508273Y-118228005D01*
X139585515Y-118260000D01*
X139508273Y-118291995D01*
X139279465Y-118444880D01*
X139084880Y-118639465D01*
X138931995Y-118868273D01*
X138826686Y-119122510D01*
X138773000Y-119392408D01*
X138773000Y-119667592D01*
X138826686Y-119937490D01*
X138931995Y-120191727D01*
X139084880Y-120420535D01*
X139279465Y-120615120D01*
X139508273Y-120768005D01*
X139762510Y-120873314D01*
X140032408Y-120927000D01*
X140307592Y-120927000D01*
X140577490Y-120873314D01*
X140831727Y-120768005D01*
X141060535Y-120615120D01*
X141255120Y-120420535D01*
X141265500Y-120405000D01*
X147821928Y-120405000D01*
X147834188Y-120529482D01*
X147870498Y-120649180D01*
X147929463Y-120759494D01*
X148008815Y-120856185D01*
X148105506Y-120935537D01*
X148215820Y-120994502D01*
X148335518Y-121030812D01*
X148460000Y-121043072D01*
X148774250Y-121040000D01*
X148933000Y-120881250D01*
X148933000Y-119657000D01*
X147983750Y-119657000D01*
X147825000Y-119815750D01*
X147821928Y-120405000D01*
X141265500Y-120405000D01*
X141408005Y-120191727D01*
X141513314Y-119937490D01*
X141567000Y-119667592D01*
X141567000Y-119392408D01*
X141513314Y-119122510D01*
X141408005Y-118868273D01*
X141265501Y-118655000D01*
X147821928Y-118655000D01*
X147825000Y-119244250D01*
X147983750Y-119403000D01*
X148933000Y-119403000D01*
X148933000Y-118178750D01*
X148774250Y-118020000D01*
X148460000Y-118016928D01*
X148335518Y-118029188D01*
X148215820Y-118065498D01*
X148105506Y-118124463D01*
X148008815Y-118203815D01*
X147929463Y-118300506D01*
X147870498Y-118410820D01*
X147834188Y-118530518D01*
X147821928Y-118655000D01*
X141265501Y-118655000D01*
X141255120Y-118639465D01*
X141060535Y-118444880D01*
X140831727Y-118291995D01*
X140754485Y-118260000D01*
X140831727Y-118228005D01*
X141060535Y-118075120D01*
X141255120Y-117880535D01*
X141408005Y-117651727D01*
X141513314Y-117397490D01*
X141567000Y-117127592D01*
X141567000Y-116852408D01*
X141513314Y-116582510D01*
X141408005Y-116328273D01*
X141255120Y-116099465D01*
X141060535Y-115904880D01*
X140831727Y-115751995D01*
X140754485Y-115720000D01*
X140831727Y-115688005D01*
X141060535Y-115535120D01*
X141255120Y-115340535D01*
X141408005Y-115111727D01*
X141513314Y-114857490D01*
X141567000Y-114587592D01*
X141567000Y-114312408D01*
X141513314Y-114042510D01*
X141408005Y-113788273D01*
X141255120Y-113559465D01*
X141060535Y-113364880D01*
X140831727Y-113211995D01*
X140754485Y-113180000D01*
X140831727Y-113148005D01*
X141060535Y-112995120D01*
X141255120Y-112800535D01*
X141408005Y-112571727D01*
X141513314Y-112317490D01*
X141567000Y-112047592D01*
X141567000Y-111772408D01*
X141513314Y-111502510D01*
X141408005Y-111248273D01*
X141255120Y-111019465D01*
X141060535Y-110824880D01*
X140831727Y-110671995D01*
X140754485Y-110640000D01*
X140831727Y-110608005D01*
X141060535Y-110455120D01*
X141255120Y-110260535D01*
X141408005Y-110031727D01*
X141513314Y-109777490D01*
X141567000Y-109507592D01*
X141567000Y-109232408D01*
X141513314Y-108962510D01*
X141408005Y-108708273D01*
X141255120Y-108479465D01*
X141060535Y-108284880D01*
X140831727Y-108131995D01*
X140754485Y-108100000D01*
X140831727Y-108068005D01*
X141060535Y-107915120D01*
X141255120Y-107720535D01*
X141408005Y-107491727D01*
X141513314Y-107237490D01*
X141567000Y-106967592D01*
X141567000Y-106692408D01*
X141513314Y-106422510D01*
X141408005Y-106168273D01*
X141255120Y-105939465D01*
X141060535Y-105744880D01*
X140831727Y-105591995D01*
X140754485Y-105560000D01*
X140831727Y-105528005D01*
X141060535Y-105375120D01*
X141255120Y-105180535D01*
X141408005Y-104951727D01*
X141513314Y-104697490D01*
X141567000Y-104427592D01*
X141567000Y-104152408D01*
X141513314Y-103882510D01*
X141408005Y-103628273D01*
X141255120Y-103399465D01*
X141060535Y-103204880D01*
X140831727Y-103051995D01*
X140754485Y-103020000D01*
X140831727Y-102988005D01*
X141060535Y-102835120D01*
X141255120Y-102640535D01*
X141408005Y-102411727D01*
X141513314Y-102157490D01*
X141567000Y-101887592D01*
X141567000Y-101612408D01*
X141513314Y-101342510D01*
X141408005Y-101088273D01*
X141255120Y-100859465D01*
X141060535Y-100664880D01*
X140831727Y-100511995D01*
X140754485Y-100480000D01*
X140831727Y-100448005D01*
X141060535Y-100295120D01*
X141255120Y-100100535D01*
X141408005Y-99871727D01*
X141513314Y-99617490D01*
X141567000Y-99347592D01*
X141567000Y-99072408D01*
X141513314Y-98802510D01*
X141408005Y-98548273D01*
X141255120Y-98319465D01*
X141060535Y-98124880D01*
X140831727Y-97971995D01*
X140754485Y-97940000D01*
X140831727Y-97908005D01*
X141060535Y-97755120D01*
X141255120Y-97560535D01*
X141408005Y-97331727D01*
X141513314Y-97077490D01*
X141567000Y-96807592D01*
X141567000Y-96532408D01*
X141513314Y-96262510D01*
X141408005Y-96008273D01*
X141255120Y-95779465D01*
X141060535Y-95584880D01*
X140831727Y-95431995D01*
X140754485Y-95400000D01*
X140831727Y-95368005D01*
X141060535Y-95215120D01*
X141255120Y-95020535D01*
X141408005Y-94791727D01*
X141513314Y-94537490D01*
X141567000Y-94267592D01*
X141567000Y-93992408D01*
X141513314Y-93722510D01*
X141408005Y-93468273D01*
X141255120Y-93239465D01*
X141060535Y-93044880D01*
X140831727Y-92891995D01*
X140754485Y-92860000D01*
X140831727Y-92828005D01*
X141060535Y-92675120D01*
X141255120Y-92480535D01*
X141408005Y-92251727D01*
X141513314Y-91997490D01*
X141567000Y-91727592D01*
X141567000Y-91521801D01*
X150300000Y-100254802D01*
X150300001Y-118281066D01*
X150216691Y-118349436D01*
X150190537Y-118300506D01*
X150111185Y-118203815D01*
X150014494Y-118124463D01*
X149904180Y-118065498D01*
X149784482Y-118029188D01*
X149660000Y-118016928D01*
X149345750Y-118020000D01*
X149187000Y-118178750D01*
X149187000Y-119403000D01*
X149207000Y-119403000D01*
X149207000Y-119657000D01*
X149187000Y-119657000D01*
X149187000Y-120881250D01*
X149345750Y-121040000D01*
X149660000Y-121043072D01*
X149784482Y-121030812D01*
X149904180Y-120994502D01*
X150014494Y-120935537D01*
X150111185Y-120856185D01*
X150190537Y-120759494D01*
X150216692Y-120710563D01*
X150370552Y-120836833D01*
X150585100Y-120951511D01*
X150817899Y-121022130D01*
X151060000Y-121045975D01*
X151302102Y-121022130D01*
X151534901Y-120951511D01*
X151749449Y-120836833D01*
X151937502Y-120682502D01*
X152060001Y-120533237D01*
X152182499Y-120682502D01*
X152370552Y-120836833D01*
X152585100Y-120951511D01*
X152817899Y-121022130D01*
X153060000Y-121045975D01*
X153302102Y-121022130D01*
X153534901Y-120951511D01*
X153749449Y-120836833D01*
X153937502Y-120682502D01*
X154091833Y-120494449D01*
X154206511Y-120279900D01*
X154277130Y-120047101D01*
X154295000Y-119865664D01*
X154295000Y-119194335D01*
X154277130Y-119012898D01*
X154206511Y-118780099D01*
X154091833Y-118565551D01*
X153937502Y-118377498D01*
X153820000Y-118281067D01*
X153820000Y-99437323D01*
X153823676Y-99400000D01*
X153820000Y-99362677D01*
X153820000Y-99362667D01*
X153809003Y-99251014D01*
X153765546Y-99107753D01*
X153694974Y-98975724D01*
X153600001Y-98859999D01*
X153571004Y-98836202D01*
X141536372Y-86801571D01*
X141567000Y-86647592D01*
X141567000Y-86372408D01*
X141513314Y-86102510D01*
X141408005Y-85848273D01*
X141255120Y-85619465D01*
X141060535Y-85424880D01*
X140831727Y-85271995D01*
X140760057Y-85242308D01*
X140773023Y-85237636D01*
X140888980Y-85175656D01*
X140955960Y-84935565D01*
X140170000Y-84149605D01*
X139384040Y-84935565D01*
X139451020Y-85175656D01*
X139586760Y-85239485D01*
X139508273Y-85271995D01*
X139279465Y-85424880D01*
X139084880Y-85619465D01*
X138931995Y-85848273D01*
X138826686Y-86102510D01*
X138773000Y-86372408D01*
X130725000Y-86372408D01*
X130725000Y-86314495D01*
X130648718Y-85930997D01*
X130499085Y-85569750D01*
X130281851Y-85244636D01*
X130005364Y-84968149D01*
X129680250Y-84750915D01*
X129319003Y-84601282D01*
X128935505Y-84525000D01*
X128544495Y-84525000D01*
X128160997Y-84601282D01*
X127799750Y-84750915D01*
X127474636Y-84968149D01*
X127198149Y-85244636D01*
X126980915Y-85569750D01*
X126831282Y-85930997D01*
X126755000Y-86314495D01*
X118695481Y-86314495D01*
X118653314Y-86102510D01*
X118548005Y-85848273D01*
X118395120Y-85619465D01*
X118200535Y-85424880D01*
X117971727Y-85271995D01*
X117894485Y-85240000D01*
X117971727Y-85208005D01*
X118200535Y-85055120D01*
X118395120Y-84860535D01*
X118548005Y-84631727D01*
X118653314Y-84377490D01*
X118707000Y-84107592D01*
X118707000Y-84042017D01*
X138768090Y-84042017D01*
X138809078Y-84314133D01*
X138902364Y-84573023D01*
X138964344Y-84688980D01*
X139204435Y-84755960D01*
X139990395Y-83970000D01*
X140349605Y-83970000D01*
X141135565Y-84755960D01*
X141375656Y-84688980D01*
X141492756Y-84439952D01*
X141559023Y-84172865D01*
X141571910Y-83897983D01*
X141530922Y-83625867D01*
X141437636Y-83366977D01*
X141375656Y-83251020D01*
X141135565Y-83184040D01*
X140349605Y-83970000D01*
X139990395Y-83970000D01*
X139204435Y-83184040D01*
X138964344Y-83251020D01*
X138847244Y-83500048D01*
X138780977Y-83767135D01*
X138768090Y-84042017D01*
X118707000Y-84042017D01*
X118707000Y-83832408D01*
X118653314Y-83562510D01*
X118548005Y-83308273D01*
X118395120Y-83079465D01*
X118200535Y-82884880D01*
X117971727Y-82731995D01*
X117894485Y-82700000D01*
X117971727Y-82668005D01*
X118200535Y-82515120D01*
X118395120Y-82320535D01*
X118548005Y-82091727D01*
X118653314Y-81837490D01*
X118707000Y-81567592D01*
X118707000Y-81292408D01*
X118653314Y-81022510D01*
X118548005Y-80768273D01*
X118395120Y-80539465D01*
X118200535Y-80344880D01*
X117971727Y-80191995D01*
X117894485Y-80160000D01*
X117971727Y-80128005D01*
X118200535Y-79975120D01*
X118395120Y-79780535D01*
X118548005Y-79551727D01*
X118653314Y-79297490D01*
X118707000Y-79027592D01*
X118707000Y-78752408D01*
X118653314Y-78482510D01*
X118548005Y-78228273D01*
X118395120Y-77999465D01*
X118200535Y-77804880D01*
X117971727Y-77651995D01*
X117900057Y-77622308D01*
X117913023Y-77617636D01*
X118028980Y-77555656D01*
X118095960Y-77315565D01*
X117310000Y-76529605D01*
X116524040Y-77315565D01*
X116591020Y-77555656D01*
X116726760Y-77619485D01*
X116648273Y-77651995D01*
X116419465Y-77804880D01*
X116224880Y-77999465D01*
X116071995Y-78228273D01*
X115966686Y-78482510D01*
X115913000Y-78752408D01*
X115913000Y-79024273D01*
X115854983Y-78915732D01*
X115783808Y-78829006D01*
X115760010Y-78800008D01*
X115731012Y-78776210D01*
X113596372Y-76641571D01*
X113627000Y-76487592D01*
X113627000Y-76422017D01*
X115908090Y-76422017D01*
X115949078Y-76694133D01*
X116042364Y-76953023D01*
X116104344Y-77068980D01*
X116344435Y-77135960D01*
X117130395Y-76350000D01*
X117489605Y-76350000D01*
X118275565Y-77135960D01*
X118515656Y-77068980D01*
X118632756Y-76819952D01*
X118699023Y-76552865D01*
X118705157Y-76422017D01*
X138768090Y-76422017D01*
X138809078Y-76694133D01*
X138902364Y-76953023D01*
X138964344Y-77068980D01*
X139204435Y-77135960D01*
X139990395Y-76350000D01*
X140349605Y-76350000D01*
X141135565Y-77135960D01*
X141375656Y-77068980D01*
X141492756Y-76819952D01*
X141559023Y-76552865D01*
X141571910Y-76277983D01*
X141530922Y-76005867D01*
X141437636Y-75746977D01*
X141375656Y-75631020D01*
X141135565Y-75564040D01*
X140349605Y-76350000D01*
X139990395Y-76350000D01*
X139204435Y-75564040D01*
X138964344Y-75631020D01*
X138847244Y-75880048D01*
X138780977Y-76147135D01*
X138768090Y-76422017D01*
X118705157Y-76422017D01*
X118711910Y-76277983D01*
X118670922Y-76005867D01*
X118577636Y-75746977D01*
X118515656Y-75631020D01*
X118275565Y-75564040D01*
X117489605Y-76350000D01*
X117130395Y-76350000D01*
X116344435Y-75564040D01*
X116104344Y-75631020D01*
X115987244Y-75880048D01*
X115920977Y-76147135D01*
X115908090Y-76422017D01*
X113627000Y-76422017D01*
X113627000Y-76212408D01*
X113573314Y-75942510D01*
X113468005Y-75688273D01*
X113315120Y-75459465D01*
X113240090Y-75384435D01*
X116524040Y-75384435D01*
X117310000Y-76170395D01*
X118095960Y-75384435D01*
X139384040Y-75384435D01*
X140170000Y-76170395D01*
X140955960Y-75384435D01*
X140888980Y-75144344D01*
X140639952Y-75027244D01*
X140372865Y-74960977D01*
X140097983Y-74948090D01*
X139825867Y-74989078D01*
X139566977Y-75082364D01*
X139451020Y-75144344D01*
X139384040Y-75384435D01*
X118095960Y-75384435D01*
X118028980Y-75144344D01*
X117779952Y-75027244D01*
X117512865Y-74960977D01*
X117237983Y-74948090D01*
X116965867Y-74989078D01*
X116706977Y-75082364D01*
X116591020Y-75144344D01*
X116524040Y-75384435D01*
X113240090Y-75384435D01*
X113120535Y-75264880D01*
X112891727Y-75111995D01*
X112637490Y-75006686D01*
X112367592Y-74953000D01*
X112092408Y-74953000D01*
X111822510Y-75006686D01*
X111568273Y-75111995D01*
X111339465Y-75264880D01*
X111144880Y-75459465D01*
X110991995Y-75688273D01*
X110886686Y-75942510D01*
X110833000Y-76212408D01*
X103467000Y-76212408D01*
X103413314Y-75942510D01*
X103308005Y-75688273D01*
X103155120Y-75459465D01*
X102960535Y-75264880D01*
X102731727Y-75111995D01*
X102477490Y-75006686D01*
X102207592Y-74953000D01*
X101932408Y-74953000D01*
X101662510Y-75006686D01*
X101408273Y-75111995D01*
X101179465Y-75264880D01*
X100984880Y-75459465D01*
X100897659Y-75590000D01*
X95622341Y-75590000D01*
X95535120Y-75459465D01*
X95340535Y-75264880D01*
X95111727Y-75111995D01*
X95034485Y-75080000D01*
X95111727Y-75048005D01*
X95340535Y-74895120D01*
X95535120Y-74700535D01*
X95688005Y-74471727D01*
X95793314Y-74217490D01*
X95847000Y-73947592D01*
X95847000Y-73672408D01*
X95793314Y-73402510D01*
X95688005Y-73148273D01*
X95535120Y-72919465D01*
X95340535Y-72724880D01*
X95111727Y-72571995D01*
X95034485Y-72540000D01*
X95111727Y-72508005D01*
X95340535Y-72355120D01*
X95535120Y-72160535D01*
X95688005Y-71931727D01*
X95793314Y-71677490D01*
X95847000Y-71407592D01*
X95847000Y-71132408D01*
X95793314Y-70862510D01*
X95688005Y-70608273D01*
X95535120Y-70379465D01*
X95340535Y-70184880D01*
X95111727Y-70031995D01*
X95034485Y-70000000D01*
X95111727Y-69968005D01*
X95340535Y-69815120D01*
X95535120Y-69620535D01*
X95688005Y-69391727D01*
X95793314Y-69137490D01*
X95847000Y-68867592D01*
X95847000Y-68592408D01*
X95793314Y-68322510D01*
X95688005Y-68068273D01*
X95535120Y-67839465D01*
X95340535Y-67644880D01*
X95253912Y-67587000D01*
X95667394Y-67587000D01*
X101980197Y-73899803D01*
X101999443Y-73915597D01*
X102021399Y-73927333D01*
X102045224Y-73934560D01*
X102070000Y-73937000D01*
X144446088Y-73937000D01*
X144359465Y-73994880D01*
X144164880Y-74189465D01*
X144011995Y-74418273D01*
X143906686Y-74672510D01*
X143853000Y-74942408D01*
X143853000Y-75217592D01*
X143906686Y-75487490D01*
X144011995Y-75741727D01*
X144164880Y-75970535D01*
X144359465Y-76165120D01*
X144588273Y-76318005D01*
X144842510Y-76423314D01*
X145112408Y-76477000D01*
X145387592Y-76477000D01*
X145657490Y-76423314D01*
X145911727Y-76318005D01*
X146140535Y-76165120D01*
X146335120Y-75970535D01*
X146488005Y-75741727D01*
X146520000Y-75664485D01*
X146551995Y-75741727D01*
X146704880Y-75970535D01*
X146899465Y-76165120D01*
X147128273Y-76318005D01*
X147382510Y-76423314D01*
X147652408Y-76477000D01*
X147927592Y-76477000D01*
X148197490Y-76423314D01*
X148451727Y-76318005D01*
X148680535Y-76165120D01*
X148875120Y-75970535D01*
X149028005Y-75741727D01*
X149060000Y-75664485D01*
X149091995Y-75741727D01*
X149244880Y-75970535D01*
X149439465Y-76165120D01*
X149668273Y-76318005D01*
X149922510Y-76423314D01*
X150192408Y-76477000D01*
X150467592Y-76477000D01*
X150737490Y-76423314D01*
X150991727Y-76318005D01*
X151220535Y-76165120D01*
X151415120Y-75970535D01*
X151568005Y-75741727D01*
X151600000Y-75664485D01*
X151631995Y-75741727D01*
X151784880Y-75970535D01*
X151979465Y-76165120D01*
X152208273Y-76318005D01*
X152462510Y-76423314D01*
X152732408Y-76477000D01*
X153007592Y-76477000D01*
X153277490Y-76423314D01*
X153531727Y-76318005D01*
X153760535Y-76165120D01*
X153955120Y-75970535D01*
X154013920Y-75882535D01*
X154022188Y-75966482D01*
X154058498Y-76086180D01*
X154117463Y-76196494D01*
X154196815Y-76293185D01*
X154293506Y-76372537D01*
X154403820Y-76431502D01*
X154523518Y-76467812D01*
X154648000Y-76480072D01*
X155124250Y-76477000D01*
X155283000Y-76318250D01*
X155283000Y-75207000D01*
X155263000Y-75207000D01*
X155263000Y-74953000D01*
X155283000Y-74953000D01*
X155283000Y-74933000D01*
X155537000Y-74933000D01*
X155537000Y-74953000D01*
X155557000Y-74953000D01*
X155557000Y-75207000D01*
X155537000Y-75207000D01*
X155537000Y-76318250D01*
X155586974Y-76368224D01*
X151285199Y-80670000D01*
X141342341Y-80670000D01*
X141255120Y-80539465D01*
X141060535Y-80344880D01*
X140831727Y-80191995D01*
X140754485Y-80160000D01*
X140831727Y-80128005D01*
X141060535Y-79975120D01*
X141255120Y-79780535D01*
X141408005Y-79551727D01*
X141513314Y-79297490D01*
X141567000Y-79027592D01*
X141567000Y-78752408D01*
X141513314Y-78482510D01*
X141408005Y-78228273D01*
X141255120Y-77999465D01*
X141060535Y-77804880D01*
X140831727Y-77651995D01*
X140760057Y-77622308D01*
X140773023Y-77617636D01*
X140888980Y-77555656D01*
X140955960Y-77315565D01*
X140170000Y-76529605D01*
X139384040Y-77315565D01*
X139451020Y-77555656D01*
X139586760Y-77619485D01*
X139508273Y-77651995D01*
X139279465Y-77804880D01*
X139084880Y-77999465D01*
X138931995Y-78228273D01*
X138826686Y-78482510D01*
X138773000Y-78752408D01*
X138773000Y-79027592D01*
X138826686Y-79297490D01*
X138931995Y-79551727D01*
X139084880Y-79780535D01*
X139279465Y-79975120D01*
X139508273Y-80128005D01*
X139585515Y-80160000D01*
X139508273Y-80191995D01*
X139279465Y-80344880D01*
X139084880Y-80539465D01*
X138931995Y-80768273D01*
X138826686Y-81022510D01*
X138773000Y-81292408D01*
X138773000Y-81567592D01*
X138826686Y-81837490D01*
X138931995Y-82091727D01*
X139084880Y-82320535D01*
X139279465Y-82515120D01*
X139508273Y-82668005D01*
X139579943Y-82697692D01*
X139566977Y-82702364D01*
X139451020Y-82764344D01*
X139384040Y-83004435D01*
X140170000Y-83790395D01*
X140955960Y-83004435D01*
X140888980Y-82764344D01*
X140753240Y-82700515D01*
X140831727Y-82668005D01*
X141060535Y-82515120D01*
X141255120Y-82320535D01*
X141342341Y-82190000D01*
X151562678Y-82190000D01*
X151600000Y-82193676D01*
X151637322Y-82190000D01*
X151637333Y-82190000D01*
X151748986Y-82179003D01*
X151892247Y-82135546D01*
X152024276Y-82064974D01*
X152140001Y-81970001D01*
X152163804Y-81940997D01*
X157658430Y-76446372D01*
X157812408Y-76477000D01*
X158087592Y-76477000D01*
X158357490Y-76423314D01*
X158611727Y-76318005D01*
X158840535Y-76165120D01*
X159035120Y-75970535D01*
X159188005Y-75741727D01*
X159293314Y-75487490D01*
X159347000Y-75217592D01*
X159347000Y-74942408D01*
X159293314Y-74672510D01*
X159188005Y-74418273D01*
X159035120Y-74189465D01*
X158840535Y-73994880D01*
X158753912Y-73937000D01*
X159167394Y-73937000D01*
X160363000Y-75132606D01*
X160363000Y-120747394D01*
X159167394Y-121943000D01*
X102070000Y-121943000D01*
X102045224Y-121945440D01*
X102021399Y-121952667D01*
X101999443Y-121964403D01*
X101980197Y-121980197D01*
X95667394Y-128293000D01*
X95253912Y-128293000D01*
X95340535Y-128235120D01*
X95535120Y-128040535D01*
X95688005Y-127811727D01*
X95793314Y-127557490D01*
X95847000Y-127287592D01*
X95847000Y-127012408D01*
X95793314Y-126742510D01*
X95688005Y-126488273D01*
X95535120Y-126259465D01*
X95340535Y-126064880D01*
X95252535Y-126006080D01*
X95336482Y-125997812D01*
X95456180Y-125961502D01*
X95566494Y-125902537D01*
X95663185Y-125823185D01*
X95742537Y-125726494D01*
X95801502Y-125616180D01*
X95837812Y-125496482D01*
X95850072Y-125372000D01*
X95847000Y-124895750D01*
X95688250Y-124737000D01*
X94577000Y-124737000D01*
X94577000Y-124757000D01*
X94323000Y-124757000D01*
X94323000Y-124737000D01*
X93211750Y-124737000D01*
X93053000Y-124895750D01*
X93051848Y-125074364D01*
X92995120Y-124989465D01*
X92800535Y-124794880D01*
X92571727Y-124641995D01*
X92317490Y-124536686D01*
X92047592Y-124483000D01*
X91772408Y-124483000D01*
X91502510Y-124536686D01*
X91248273Y-124641995D01*
X91019465Y-124794880D01*
X90824880Y-124989465D01*
X90671995Y-125218273D01*
X90566686Y-125472510D01*
X90513000Y-125742408D01*
X90513000Y-126017592D01*
X90566686Y-126287490D01*
X90660924Y-126515000D01*
X90566686Y-126742510D01*
X90513000Y-127012408D01*
X90513000Y-127287592D01*
X90566686Y-127557490D01*
X90671995Y-127811727D01*
X90824880Y-128040535D01*
X91019465Y-128235120D01*
X91106088Y-128293000D01*
X75452606Y-128293000D01*
X74257000Y-127097394D01*
X74257000Y-125684495D01*
X74685000Y-125684495D01*
X74685000Y-126075505D01*
X74761282Y-126459003D01*
X74910915Y-126820250D01*
X75128149Y-127145364D01*
X75404636Y-127421851D01*
X75729750Y-127639085D01*
X76090997Y-127788718D01*
X76474495Y-127865000D01*
X76865505Y-127865000D01*
X77249003Y-127788718D01*
X77610250Y-127639085D01*
X77935364Y-127421851D01*
X78211851Y-127145364D01*
X78429085Y-126820250D01*
X78578718Y-126459003D01*
X78655000Y-126075505D01*
X78655000Y-125684495D01*
X78578718Y-125300997D01*
X78429085Y-124939750D01*
X78211851Y-124614636D01*
X77935364Y-124338149D01*
X77610250Y-124120915D01*
X77249003Y-123971282D01*
X76865505Y-123895000D01*
X76474495Y-123895000D01*
X76090997Y-123971282D01*
X75729750Y-124120915D01*
X75404636Y-124338149D01*
X75128149Y-124614636D01*
X74910915Y-124939750D01*
X74761282Y-125300997D01*
X74685000Y-125684495D01*
X74257000Y-125684495D01*
X74257000Y-121308000D01*
X90509928Y-121308000D01*
X90509928Y-122832000D01*
X90522188Y-122956482D01*
X90558498Y-123076180D01*
X90617463Y-123186494D01*
X90696815Y-123283185D01*
X90793506Y-123362537D01*
X90903820Y-123421502D01*
X91023518Y-123457812D01*
X91148000Y-123470072D01*
X92672000Y-123470072D01*
X92796482Y-123457812D01*
X92916180Y-123421502D01*
X93026494Y-123362537D01*
X93123185Y-123283185D01*
X93202537Y-123186494D01*
X93261502Y-123076180D01*
X93297812Y-122956482D01*
X93306080Y-122872535D01*
X93364880Y-122960535D01*
X93559465Y-123155120D01*
X93647465Y-123213920D01*
X93563518Y-123222188D01*
X93443820Y-123258498D01*
X93333506Y-123317463D01*
X93236815Y-123396815D01*
X93157463Y-123493506D01*
X93098498Y-123603820D01*
X93062188Y-123723518D01*
X93049928Y-123848000D01*
X93053000Y-124324250D01*
X93211750Y-124483000D01*
X94323000Y-124483000D01*
X94323000Y-124463000D01*
X94577000Y-124463000D01*
X94577000Y-124483000D01*
X95688250Y-124483000D01*
X95847000Y-124324250D01*
X95850072Y-123848000D01*
X95837812Y-123723518D01*
X95801502Y-123603820D01*
X95742537Y-123493506D01*
X95663185Y-123396815D01*
X95566494Y-123317463D01*
X95456180Y-123258498D01*
X95336482Y-123222188D01*
X95252535Y-123213920D01*
X95340535Y-123155120D01*
X95535120Y-122960535D01*
X95688005Y-122731727D01*
X95793314Y-122477490D01*
X95847000Y-122207592D01*
X95847000Y-121932408D01*
X95793314Y-121662510D01*
X95688005Y-121408273D01*
X95535120Y-121179465D01*
X95340535Y-120984880D01*
X95111727Y-120831995D01*
X95034485Y-120800000D01*
X95111727Y-120768005D01*
X95340535Y-120615120D01*
X95535120Y-120420535D01*
X95622341Y-120290000D01*
X100897659Y-120290000D01*
X100984880Y-120420535D01*
X101179465Y-120615120D01*
X101408273Y-120768005D01*
X101662510Y-120873314D01*
X101932408Y-120927000D01*
X102207592Y-120927000D01*
X102477490Y-120873314D01*
X102731727Y-120768005D01*
X102960535Y-120615120D01*
X103155120Y-120420535D01*
X103308005Y-120191727D01*
X103413314Y-119937490D01*
X103467000Y-119667592D01*
X103467000Y-119392408D01*
X103413314Y-119122510D01*
X103308005Y-118868273D01*
X103155120Y-118639465D01*
X102960535Y-118444880D01*
X102731727Y-118291995D01*
X102654485Y-118260000D01*
X102731727Y-118228005D01*
X102960535Y-118075120D01*
X103155120Y-117880535D01*
X103308005Y-117651727D01*
X103413314Y-117397490D01*
X103467000Y-117127592D01*
X103467000Y-116852408D01*
X103413314Y-116582510D01*
X103308005Y-116328273D01*
X103155120Y-116099465D01*
X102960535Y-115904880D01*
X102731727Y-115751995D01*
X102654485Y-115720000D01*
X102731727Y-115688005D01*
X102960535Y-115535120D01*
X103155120Y-115340535D01*
X103308005Y-115111727D01*
X103413314Y-114857490D01*
X103467000Y-114587592D01*
X103467000Y-114312408D01*
X103413314Y-114042510D01*
X103308005Y-113788273D01*
X103155120Y-113559465D01*
X102960535Y-113364880D01*
X102731727Y-113211995D01*
X102660057Y-113182308D01*
X102673023Y-113177636D01*
X102788980Y-113115656D01*
X102855960Y-112875565D01*
X102070000Y-112089605D01*
X101284040Y-112875565D01*
X101351020Y-113115656D01*
X101486760Y-113179485D01*
X101408273Y-113211995D01*
X101179465Y-113364880D01*
X100984880Y-113559465D01*
X100831995Y-113788273D01*
X100726686Y-114042510D01*
X100673000Y-114312408D01*
X100673000Y-114587592D01*
X100726686Y-114857490D01*
X100831995Y-115111727D01*
X100984880Y-115340535D01*
X101179465Y-115535120D01*
X101408273Y-115688005D01*
X101485515Y-115720000D01*
X101408273Y-115751995D01*
X101179465Y-115904880D01*
X100984880Y-116099465D01*
X100897659Y-116230000D01*
X95622341Y-116230000D01*
X95535120Y-116099465D01*
X95340535Y-115904880D01*
X95111727Y-115751995D01*
X95034485Y-115720000D01*
X95111727Y-115688005D01*
X95340535Y-115535120D01*
X95535120Y-115340535D01*
X95622341Y-115210000D01*
X96952678Y-115210000D01*
X96990000Y-115213676D01*
X97027322Y-115210000D01*
X97027333Y-115210000D01*
X97138986Y-115199003D01*
X97282247Y-115155546D01*
X97414276Y-115084974D01*
X97530001Y-114990001D01*
X97553804Y-114960997D01*
X100674745Y-111840056D01*
X100668090Y-111982017D01*
X100709078Y-112254133D01*
X100802364Y-112513023D01*
X100864344Y-112628980D01*
X101104435Y-112695960D01*
X101890395Y-111910000D01*
X102249605Y-111910000D01*
X103035565Y-112695960D01*
X103275656Y-112628980D01*
X103392756Y-112379952D01*
X103459023Y-112112865D01*
X103465157Y-111982017D01*
X110828090Y-111982017D01*
X110869078Y-112254133D01*
X110962364Y-112513023D01*
X111024344Y-112628980D01*
X111264435Y-112695960D01*
X112050395Y-111910000D01*
X112409605Y-111910000D01*
X113195565Y-112695960D01*
X113435656Y-112628980D01*
X113552756Y-112379952D01*
X113619023Y-112112865D01*
X113631910Y-111837983D01*
X113590922Y-111565867D01*
X113497636Y-111306977D01*
X113435656Y-111191020D01*
X113195565Y-111124040D01*
X112409605Y-111910000D01*
X112050395Y-111910000D01*
X111264435Y-111124040D01*
X111024344Y-111191020D01*
X110907244Y-111440048D01*
X110840977Y-111707135D01*
X110828090Y-111982017D01*
X103465157Y-111982017D01*
X103471910Y-111837983D01*
X103430922Y-111565867D01*
X103337636Y-111306977D01*
X103275656Y-111191020D01*
X103035565Y-111124040D01*
X102249605Y-111910000D01*
X101890395Y-111910000D01*
X101876253Y-111895858D01*
X102055858Y-111716253D01*
X102070000Y-111730395D01*
X102855960Y-110944435D01*
X102788980Y-110704344D01*
X102653240Y-110640515D01*
X102731727Y-110608005D01*
X102960535Y-110455120D01*
X103155120Y-110260535D01*
X103308005Y-110031727D01*
X103413314Y-109777490D01*
X103467000Y-109507592D01*
X103467000Y-109232408D01*
X103413314Y-108962510D01*
X103308005Y-108708273D01*
X103155120Y-108479465D01*
X102960535Y-108284880D01*
X102731727Y-108131995D01*
X102654485Y-108100000D01*
X102731727Y-108068005D01*
X102960535Y-107915120D01*
X103155120Y-107720535D01*
X103308005Y-107491727D01*
X103413314Y-107237490D01*
X103467000Y-106967592D01*
X103467000Y-106692408D01*
X103413314Y-106422510D01*
X103308005Y-106168273D01*
X103155120Y-105939465D01*
X102960535Y-105744880D01*
X102731727Y-105591995D01*
X102654485Y-105560000D01*
X102731727Y-105528005D01*
X102960535Y-105375120D01*
X103155120Y-105180535D01*
X103308005Y-104951727D01*
X103413314Y-104697490D01*
X103467000Y-104427592D01*
X103467000Y-104152408D01*
X103413314Y-103882510D01*
X103308005Y-103628273D01*
X103155120Y-103399465D01*
X102960535Y-103204880D01*
X102731727Y-103051995D01*
X102654485Y-103020000D01*
X102731727Y-102988005D01*
X102960535Y-102835120D01*
X103155120Y-102640535D01*
X103308005Y-102411727D01*
X103413314Y-102157490D01*
X103467000Y-101887592D01*
X103467000Y-101612408D01*
X103413314Y-101342510D01*
X103308005Y-101088273D01*
X103155120Y-100859465D01*
X102960535Y-100664880D01*
X102731727Y-100511995D01*
X102654485Y-100480000D01*
X102731727Y-100448005D01*
X102960535Y-100295120D01*
X103155120Y-100100535D01*
X103308005Y-99871727D01*
X103413314Y-99617490D01*
X103467000Y-99347592D01*
X103467000Y-99072408D01*
X103413314Y-98802510D01*
X103308005Y-98548273D01*
X103155120Y-98319465D01*
X102960535Y-98124880D01*
X102731727Y-97971995D01*
X102660057Y-97942308D01*
X102673023Y-97937636D01*
X102788980Y-97875656D01*
X102855960Y-97635565D01*
X102070000Y-96849605D01*
X101284040Y-97635565D01*
X101351020Y-97875656D01*
X101486760Y-97939485D01*
X101408273Y-97971995D01*
X101179465Y-98124880D01*
X100984880Y-98319465D01*
X100831995Y-98548273D01*
X100726686Y-98802510D01*
X100673000Y-99072408D01*
X100673000Y-99347592D01*
X100726686Y-99617490D01*
X100831995Y-99871727D01*
X100984880Y-100100535D01*
X101179465Y-100295120D01*
X101408273Y-100448005D01*
X101485515Y-100480000D01*
X101408273Y-100511995D01*
X101179465Y-100664880D01*
X100984880Y-100859465D01*
X100897659Y-100990000D01*
X99567323Y-100990000D01*
X99530000Y-100986324D01*
X99492677Y-100990000D01*
X99492667Y-100990000D01*
X99381014Y-101000997D01*
X99237753Y-101044454D01*
X99105723Y-101115026D01*
X99022083Y-101183668D01*
X98989999Y-101209999D01*
X98966201Y-101238997D01*
X95847000Y-104358199D01*
X95847000Y-104152408D01*
X95793314Y-103882510D01*
X95688005Y-103628273D01*
X95535120Y-103399465D01*
X95340535Y-103204880D01*
X95111727Y-103051995D01*
X95034485Y-103020000D01*
X95111727Y-102988005D01*
X95340535Y-102835120D01*
X95535120Y-102640535D01*
X95688005Y-102411727D01*
X95793314Y-102157490D01*
X95847000Y-101887592D01*
X95847000Y-101612408D01*
X95793314Y-101342510D01*
X95688005Y-101088273D01*
X95535120Y-100859465D01*
X95340535Y-100664880D01*
X95111727Y-100511995D01*
X95034485Y-100480000D01*
X95111727Y-100448005D01*
X95340535Y-100295120D01*
X95535120Y-100100535D01*
X95688005Y-99871727D01*
X95793314Y-99617490D01*
X95847000Y-99347592D01*
X95847000Y-99072408D01*
X95793314Y-98802510D01*
X95688005Y-98548273D01*
X95535120Y-98319465D01*
X95340535Y-98124880D01*
X95111727Y-97971995D01*
X95034485Y-97940000D01*
X95111727Y-97908005D01*
X95340535Y-97755120D01*
X95535120Y-97560535D01*
X95688005Y-97331727D01*
X95793314Y-97077490D01*
X95847000Y-96807592D01*
X95847000Y-96742017D01*
X100668090Y-96742017D01*
X100709078Y-97014133D01*
X100802364Y-97273023D01*
X100864344Y-97388980D01*
X101104435Y-97455960D01*
X101890395Y-96670000D01*
X102249605Y-96670000D01*
X103035565Y-97455960D01*
X103275656Y-97388980D01*
X103392756Y-97139952D01*
X103459023Y-96872865D01*
X103465157Y-96742017D01*
X110828090Y-96742017D01*
X110869078Y-97014133D01*
X110962364Y-97273023D01*
X111024344Y-97388980D01*
X111264435Y-97455960D01*
X112050395Y-96670000D01*
X111264435Y-95884040D01*
X111024344Y-95951020D01*
X110907244Y-96200048D01*
X110840977Y-96467135D01*
X110828090Y-96742017D01*
X103465157Y-96742017D01*
X103471910Y-96597983D01*
X103430922Y-96325867D01*
X103337636Y-96066977D01*
X103275656Y-95951020D01*
X103035565Y-95884040D01*
X102249605Y-96670000D01*
X101890395Y-96670000D01*
X101104435Y-95884040D01*
X100864344Y-95951020D01*
X100747244Y-96200048D01*
X100680977Y-96467135D01*
X100668090Y-96742017D01*
X95847000Y-96742017D01*
X95847000Y-96532408D01*
X95793314Y-96262510D01*
X95688005Y-96008273D01*
X95535120Y-95779465D01*
X95340535Y-95584880D01*
X95252535Y-95526080D01*
X95336482Y-95517812D01*
X95456180Y-95481502D01*
X95566494Y-95422537D01*
X95663185Y-95343185D01*
X95742537Y-95246494D01*
X95801502Y-95136180D01*
X95837812Y-95016482D01*
X95850072Y-94892000D01*
X95847000Y-94415750D01*
X95688250Y-94257000D01*
X94577000Y-94257000D01*
X94577000Y-94277000D01*
X94323000Y-94277000D01*
X94323000Y-94257000D01*
X93211750Y-94257000D01*
X93053000Y-94415750D01*
X93051848Y-94594364D01*
X92995120Y-94509465D01*
X92800535Y-94314880D01*
X92571727Y-94161995D01*
X92317490Y-94056686D01*
X92047592Y-94003000D01*
X91772408Y-94003000D01*
X91502510Y-94056686D01*
X91248273Y-94161995D01*
X91019465Y-94314880D01*
X90824880Y-94509465D01*
X90671995Y-94738273D01*
X90566686Y-94992510D01*
X90513000Y-95262408D01*
X90513000Y-95537592D01*
X90566686Y-95807490D01*
X90660924Y-96035000D01*
X90566686Y-96262510D01*
X90513000Y-96532408D01*
X90513000Y-96807592D01*
X90566686Y-97077490D01*
X90671995Y-97331727D01*
X90824880Y-97560535D01*
X91019465Y-97755120D01*
X91248273Y-97908005D01*
X91325515Y-97940000D01*
X91248273Y-97971995D01*
X91019465Y-98124880D01*
X90824880Y-98319465D01*
X90671995Y-98548273D01*
X90566686Y-98802510D01*
X90513000Y-99072408D01*
X90513000Y-99347592D01*
X90566686Y-99617490D01*
X90671995Y-99871727D01*
X90824880Y-100100535D01*
X91019465Y-100295120D01*
X91248273Y-100448005D01*
X91502510Y-100553314D01*
X91772408Y-100607000D01*
X92047592Y-100607000D01*
X92317490Y-100553314D01*
X92571727Y-100448005D01*
X92800535Y-100295120D01*
X92995120Y-100100535D01*
X93148005Y-99871727D01*
X93180000Y-99794485D01*
X93211995Y-99871727D01*
X93364880Y-100100535D01*
X93559465Y-100295120D01*
X93788273Y-100448005D01*
X93865515Y-100480000D01*
X93788273Y-100511995D01*
X93559465Y-100664880D01*
X93364880Y-100859465D01*
X93211995Y-101088273D01*
X93106686Y-101342510D01*
X93053000Y-101612408D01*
X93053000Y-101887592D01*
X93106686Y-102157490D01*
X93211995Y-102411727D01*
X93364880Y-102640535D01*
X93559465Y-102835120D01*
X93788273Y-102988005D01*
X93865515Y-103020000D01*
X93788273Y-103051995D01*
X93559465Y-103204880D01*
X93364880Y-103399465D01*
X93211995Y-103628273D01*
X93106686Y-103882510D01*
X93053000Y-104152408D01*
X93053000Y-104427592D01*
X93106686Y-104697490D01*
X93211995Y-104951727D01*
X93364880Y-105180535D01*
X93559465Y-105375120D01*
X93788273Y-105528005D01*
X93865515Y-105560000D01*
X93788273Y-105591995D01*
X93559465Y-105744880D01*
X93364880Y-105939465D01*
X93211995Y-106168273D01*
X93106686Y-106422510D01*
X93053000Y-106692408D01*
X93053000Y-106967592D01*
X93106686Y-107237490D01*
X93211995Y-107491727D01*
X93364880Y-107720535D01*
X93559465Y-107915120D01*
X93788273Y-108068005D01*
X93865515Y-108100000D01*
X93788273Y-108131995D01*
X93559465Y-108284880D01*
X93364880Y-108479465D01*
X93211995Y-108708273D01*
X93106686Y-108962510D01*
X93053000Y-109232408D01*
X93053000Y-109507592D01*
X93106686Y-109777490D01*
X93211995Y-110031727D01*
X93364880Y-110260535D01*
X93559465Y-110455120D01*
X93788273Y-110608005D01*
X93865515Y-110640000D01*
X93788273Y-110671995D01*
X93559465Y-110824880D01*
X93364880Y-111019465D01*
X93211995Y-111248273D01*
X93106686Y-111502510D01*
X93053000Y-111772408D01*
X93053000Y-112047592D01*
X93106686Y-112317490D01*
X93211995Y-112571727D01*
X93364880Y-112800535D01*
X93559465Y-112995120D01*
X93788273Y-113148005D01*
X93865515Y-113180000D01*
X93788273Y-113211995D01*
X93559465Y-113364880D01*
X93364880Y-113559465D01*
X93211995Y-113788273D01*
X93106686Y-114042510D01*
X93053000Y-114312408D01*
X93053000Y-114587592D01*
X93106686Y-114857490D01*
X93211995Y-115111727D01*
X93364880Y-115340535D01*
X93559465Y-115535120D01*
X93788273Y-115688005D01*
X93865515Y-115720000D01*
X93788273Y-115751995D01*
X93559465Y-115904880D01*
X93364880Y-116099465D01*
X93211995Y-116328273D01*
X93106686Y-116582510D01*
X93053000Y-116852408D01*
X93053000Y-117127592D01*
X93106686Y-117397490D01*
X93211995Y-117651727D01*
X93364880Y-117880535D01*
X93559465Y-118075120D01*
X93788273Y-118228005D01*
X93865515Y-118260000D01*
X93788273Y-118291995D01*
X93559465Y-118444880D01*
X93364880Y-118639465D01*
X93211995Y-118868273D01*
X93106686Y-119122510D01*
X93053000Y-119392408D01*
X93053000Y-119667592D01*
X93106686Y-119937490D01*
X93211995Y-120191727D01*
X93364880Y-120420535D01*
X93559465Y-120615120D01*
X93788273Y-120768005D01*
X93865515Y-120800000D01*
X93788273Y-120831995D01*
X93559465Y-120984880D01*
X93364880Y-121179465D01*
X93306080Y-121267465D01*
X93297812Y-121183518D01*
X93261502Y-121063820D01*
X93202537Y-120953506D01*
X93123185Y-120856815D01*
X93026494Y-120777463D01*
X92916180Y-120718498D01*
X92796482Y-120682188D01*
X92672000Y-120669928D01*
X91148000Y-120669928D01*
X91023518Y-120682188D01*
X90903820Y-120718498D01*
X90793506Y-120777463D01*
X90696815Y-120856815D01*
X90617463Y-120953506D01*
X90558498Y-121063820D01*
X90522188Y-121183518D01*
X90509928Y-121308000D01*
X74257000Y-121308000D01*
X74257000Y-99072408D01*
X82893000Y-99072408D01*
X82893000Y-99347592D01*
X82946686Y-99617490D01*
X83051995Y-99871727D01*
X83204880Y-100100535D01*
X83399465Y-100295120D01*
X83628273Y-100448005D01*
X83705515Y-100480000D01*
X83628273Y-100511995D01*
X83399465Y-100664880D01*
X83204880Y-100859465D01*
X83051995Y-101088273D01*
X82946686Y-101342510D01*
X82893000Y-101612408D01*
X82893000Y-101887592D01*
X82946686Y-102157490D01*
X83051995Y-102411727D01*
X83204880Y-102640535D01*
X83399465Y-102835120D01*
X83628273Y-102988005D01*
X83882510Y-103093314D01*
X84152408Y-103147000D01*
X84427592Y-103147000D01*
X84697490Y-103093314D01*
X84951727Y-102988005D01*
X85180535Y-102835120D01*
X85375120Y-102640535D01*
X85528005Y-102411727D01*
X85560000Y-102334485D01*
X85591995Y-102411727D01*
X85744880Y-102640535D01*
X85939465Y-102835120D01*
X86168273Y-102988005D01*
X86422510Y-103093314D01*
X86692408Y-103147000D01*
X86967592Y-103147000D01*
X87237490Y-103093314D01*
X87491727Y-102988005D01*
X87720535Y-102835120D01*
X87915120Y-102640535D01*
X88068005Y-102411727D01*
X88173314Y-102157490D01*
X88227000Y-101887592D01*
X88227000Y-101612408D01*
X88173314Y-101342510D01*
X88068005Y-101088273D01*
X87915120Y-100859465D01*
X87720535Y-100664880D01*
X87491727Y-100511995D01*
X87414485Y-100480000D01*
X87491727Y-100448005D01*
X87720535Y-100295120D01*
X87915120Y-100100535D01*
X88068005Y-99871727D01*
X88173314Y-99617490D01*
X88227000Y-99347592D01*
X88227000Y-99072408D01*
X88173314Y-98802510D01*
X88068005Y-98548273D01*
X87915120Y-98319465D01*
X87720535Y-98124880D01*
X87491727Y-97971995D01*
X87237490Y-97866686D01*
X86967592Y-97813000D01*
X86692408Y-97813000D01*
X86422510Y-97866686D01*
X86168273Y-97971995D01*
X85939465Y-98124880D01*
X85744880Y-98319465D01*
X85591995Y-98548273D01*
X85560000Y-98625515D01*
X85528005Y-98548273D01*
X85375120Y-98319465D01*
X85180535Y-98124880D01*
X84951727Y-97971995D01*
X84697490Y-97866686D01*
X84427592Y-97813000D01*
X84152408Y-97813000D01*
X83882510Y-97866686D01*
X83628273Y-97971995D01*
X83399465Y-98124880D01*
X83204880Y-98319465D01*
X83051995Y-98548273D01*
X82946686Y-98802510D01*
X82893000Y-99072408D01*
X74257000Y-99072408D01*
X74257000Y-69804495D01*
X74685000Y-69804495D01*
X74685000Y-70195505D01*
X74761282Y-70579003D01*
X74910915Y-70940250D01*
X75128149Y-71265364D01*
X75404636Y-71541851D01*
X75729750Y-71759085D01*
X76090997Y-71908718D01*
X76474495Y-71985000D01*
X76865505Y-71985000D01*
X77249003Y-71908718D01*
X77610250Y-71759085D01*
X77935364Y-71541851D01*
X78211851Y-71265364D01*
X78429085Y-70940250D01*
X78578718Y-70579003D01*
X78655000Y-70195505D01*
X78655000Y-69804495D01*
X78578718Y-69420997D01*
X78429085Y-69059750D01*
X78211851Y-68734636D01*
X77935364Y-68458149D01*
X77610250Y-68240915D01*
X77249003Y-68091282D01*
X76865505Y-68015000D01*
X76474495Y-68015000D01*
X76090997Y-68091282D01*
X75729750Y-68240915D01*
X75404636Y-68458149D01*
X75128149Y-68734636D01*
X74910915Y-69059750D01*
X74761282Y-69420997D01*
X74685000Y-69804495D01*
X74257000Y-69804495D01*
X74257000Y-68782606D01*
X75452606Y-67587000D01*
X83486088Y-67587000D01*
X83399465Y-67644880D01*
G04 #@! TD*
M02*
