M48
; DRILL file {KiCad (5.1.2)-2} date 7/24/2019 1:36:30 PM
; FORMAT={-:-/ absolute / inch / decimal}
; #@! TF.CreationDate,2019-07-24T13:36:30-05:00
; #@! TF.GenerationSoftware,Kicad,Pcbnew,(5.1.2)-2
; #@! TF.FileFunction,Plated,1,2,PTH
FMAT,2
INCH
T1C0.0295
T2C0.0300
%
G90
G05
T1
X5.8685Y-4.7059
X5.9472Y-4.7059
X6.026Y-4.7059
T2
X3.3185Y-3.9059
X3.3185Y-4.0059
X3.4185Y-3.9059
X3.4185Y-4.0059
X3.6185Y-3.9059
X3.6185Y-4.8059
X3.6185Y-4.9559
X3.6185Y-5.0059
X3.7185Y-3.9059
X3.7185Y-4.0059
X3.7185Y-4.1059
X3.7185Y-4.2059
X3.7185Y-4.3059
X3.7185Y-4.4059
X3.7185Y-4.5059
X3.7185Y-4.6059
X3.7185Y-4.7059
X3.7185Y-4.8059
X3.7185Y-4.9059
X3.7185Y-5.0059
X4.6185Y-3.0059
X4.6185Y-3.1059
X4.6185Y-3.2059
X4.6185Y-3.3059
X4.6185Y-3.4059
X4.6185Y-3.5059
X4.6185Y-3.6059
X4.6185Y-3.7059
X4.6185Y-3.8059
X4.6185Y-3.9059
X4.6185Y-4.0059
X4.6185Y-4.1059
X4.6185Y-4.2059
X4.6185Y-4.3059
X4.6185Y-4.4059
X4.6185Y-4.5059
X4.6185Y-4.6059
X4.6185Y-4.7059
X5.5185Y-3.0059
X5.5185Y-3.1059
X5.5185Y-3.2059
X5.5185Y-3.3059
X5.5185Y-3.4059
X5.5185Y-3.5059
X5.5185Y-3.6059
X5.5185Y-3.7059
X5.5185Y-3.8059
X5.5185Y-3.9059
X5.5185Y-4.0059
X5.5185Y-4.1059
X5.5185Y-4.2059
X5.5185Y-4.3059
X5.5185Y-4.4059
X5.5185Y-4.5059
X5.5185Y-4.6059
X5.5185Y-4.7059
X3.3185Y-2.7059
X3.3185Y-2.8059
X3.4185Y-2.7059
X3.4185Y-2.8059
X3.6185Y-2.7059
X3.6185Y-3.6059
X3.6185Y-3.7559
X3.6185Y-3.8059
X3.7185Y-2.7059
X3.7185Y-2.8059
X3.7185Y-2.9059
X3.7185Y-3.0059
X3.7185Y-3.1059
X3.7185Y-3.2059
X3.7185Y-3.3059
X3.7185Y-3.4059
X3.7185Y-3.5059
X3.7185Y-3.6059
X3.7185Y-3.7059
X3.7185Y-3.8059
X4.0185Y-4.2059
X4.0185Y-4.3059
X4.0185Y-4.4059
X4.0185Y-4.5059
X4.0185Y-4.6059
X4.0185Y-4.7059
X4.4185Y-4.2059
X4.4185Y-4.3059
X4.4185Y-4.4059
X4.4185Y-4.5059
X4.4185Y-4.6059
X4.4185Y-4.7059
X4.0185Y-3.6059
X4.0185Y-3.7059
X4.0185Y-3.8059
X4.0185Y-3.9059
X4.0185Y-4.0059
X4.0185Y-4.1059
X4.4185Y-3.6059
X4.4185Y-3.7059
X4.4185Y-3.8059
X4.4185Y-3.9059
X4.4185Y-4.0059
X4.4185Y-4.1059
X5.7185Y-2.9559
X5.8185Y-2.9559
X5.9185Y-2.9559
X6.0185Y-2.9559
X6.1185Y-2.9559
X6.2185Y-2.9559
X4.0185Y-3.0059
X4.0185Y-3.1059
X4.0185Y-3.2059
X4.0185Y-3.3059
X4.0185Y-3.4059
X4.0185Y-3.5059
X4.4185Y-3.0059
X4.4185Y-3.1059
X4.4185Y-3.2059
X4.4185Y-3.3059
X4.4185Y-3.4059
X4.4185Y-3.5059
T0
M30
