G04 #@! TF.GenerationSoftware,KiCad,Pcbnew,(5.1.2)-2*
G04 #@! TF.CreationDate,2019-07-24T13:36:26-05:00*
G04 #@! TF.ProjectId,ECE 597 PCB,45434520-3539-4372-9050-43422e6b6963,rev?*
G04 #@! TF.SameCoordinates,Original*
G04 #@! TF.FileFunction,Legend,Top*
G04 #@! TF.FilePolarity,Positive*
%FSLAX46Y46*%
G04 Gerber Fmt 4.6, Leading zero omitted, Abs format (unit mm)*
G04 Created by KiCad (PCBNEW (5.1.2)-2) date 2019-07-24 13:36:26*
%MOMM*%
%LPD*%
G04 APERTURE LIST*
%ADD10C,0.150000*%
%ADD11C,0.120000*%
G04 APERTURE END LIST*
D10*
X161760000Y-75080000D02*
X161760000Y-85240000D01*
X159220000Y-72540000D02*
X161760000Y-75080000D01*
X146520000Y-72540000D02*
X159220000Y-72540000D01*
X161760000Y-120800000D02*
X161760000Y-110640000D01*
X159220000Y-123340000D02*
X161760000Y-120800000D01*
X141440000Y-123340000D02*
X159220000Y-123340000D01*
X161760000Y-85240000D02*
X161760000Y-110640000D01*
X146520000Y-72540000D02*
X141440000Y-72540000D01*
X114650952Y-118712380D02*
X114174761Y-118712380D01*
X114174761Y-117712380D01*
X114841428Y-117712380D02*
X115174761Y-118712380D01*
X115508095Y-117712380D01*
X97545714Y-118712380D02*
X97545714Y-117712380D01*
X97545714Y-118188571D02*
X98117142Y-118188571D01*
X98117142Y-118712380D02*
X98117142Y-117712380D01*
X98450476Y-117712380D02*
X98783809Y-118712380D01*
X99117142Y-117712380D01*
X102070000Y-72540000D02*
X141440000Y-72540000D01*
X95720000Y-66190000D02*
X102070000Y-72540000D01*
X94450000Y-66190000D02*
X95720000Y-66190000D01*
X74130000Y-66190000D02*
X94450000Y-66190000D01*
X72860000Y-67460000D02*
X74130000Y-66190000D01*
X72860000Y-128420000D02*
X72860000Y-67460000D01*
X74130000Y-129690000D02*
X72860000Y-128420000D01*
X95720000Y-129690000D02*
X74130000Y-129690000D01*
X102070000Y-123340000D02*
X95720000Y-129690000D01*
X141440000Y-123340000D02*
X102070000Y-123340000D01*
D11*
G04 #@! TO.C,U6*
X74130000Y-97940000D02*
X95720000Y-97940000D01*
X74130000Y-67460000D02*
X74130000Y-97940000D01*
X95720000Y-67460000D02*
X74130000Y-67460000D01*
X95720000Y-97940000D02*
X95720000Y-67460000D01*
G04 #@! TO.C,U5*
X74130000Y-128420000D02*
X95720000Y-128420000D01*
X74130000Y-97940000D02*
X74130000Y-128420000D01*
X95720000Y-97940000D02*
X74130000Y-97940000D01*
X95720000Y-128420000D02*
X95720000Y-97940000D01*
G04 #@! TO.C,U4*
X116040000Y-75080000D02*
X141440000Y-75080000D01*
X141440000Y-75080000D02*
X141440000Y-120800000D01*
X141440000Y-120800000D02*
X116040000Y-120800000D01*
X116040000Y-120800000D02*
X116040000Y-75080000D01*
X119850000Y-119530000D02*
X137630000Y-119530000D01*
X137630000Y-119530000D02*
X137630000Y-89050000D01*
X137630000Y-89050000D02*
X119850000Y-89050000D01*
X119850000Y-89050000D02*
X119850000Y-119530000D01*
G04 #@! TO.C,U1*
X113500000Y-90320000D02*
X113500000Y-75080000D01*
X113500000Y-75080000D02*
X100800000Y-75080000D01*
X100800000Y-75080000D02*
X100800000Y-90320000D01*
X100800000Y-90320000D02*
X113500000Y-90320000D01*
G04 #@! TO.C,U2*
X100800000Y-105560000D02*
X113500000Y-105560000D01*
X100800000Y-90320000D02*
X100800000Y-105560000D01*
X113500000Y-90320000D02*
X100800000Y-90320000D01*
X113500000Y-105560000D02*
X113500000Y-90320000D01*
G04 #@! TO.C,U3*
X113500000Y-120800000D02*
X113500000Y-105560000D01*
X113500000Y-105560000D02*
X100800000Y-105560000D01*
X100800000Y-105560000D02*
X100800000Y-120800000D01*
X100800000Y-120800000D02*
X113500000Y-120800000D01*
G04 #@! TO.C,JST-PH*
X147000000Y-117720000D02*
X147000000Y-122440000D01*
X147000000Y-122440000D02*
X155120000Y-122440000D01*
X155120000Y-122440000D02*
X155120000Y-117720000D01*
X155120000Y-117720000D02*
X147000000Y-117720000D01*
X148760000Y-117720000D02*
X148760000Y-117520000D01*
X148760000Y-117520000D02*
X148460000Y-117520000D01*
X148460000Y-117520000D02*
X148460000Y-117720000D01*
X148760000Y-117620000D02*
X148460000Y-117620000D01*
X149560000Y-117720000D02*
X149560000Y-118330000D01*
X149560000Y-118330000D02*
X147610000Y-118330000D01*
X147610000Y-118330000D02*
X147610000Y-121830000D01*
X147610000Y-121830000D02*
X154510000Y-121830000D01*
X154510000Y-121830000D02*
X154510000Y-118330000D01*
X154510000Y-118330000D02*
X152560000Y-118330000D01*
X152560000Y-118330000D02*
X152560000Y-117720000D01*
X147000000Y-119030000D02*
X147610000Y-119030000D01*
X147000000Y-120330000D02*
X147610000Y-120330000D01*
X155120000Y-119030000D02*
X154510000Y-119030000D01*
X155120000Y-120330000D02*
X154510000Y-120330000D01*
X149960000Y-121830000D02*
X149960000Y-121330000D01*
X149960000Y-121330000D02*
X150160000Y-121330000D01*
X150160000Y-121330000D02*
X150160000Y-121830000D01*
X150060000Y-121830000D02*
X150060000Y-121330000D01*
X151960000Y-121830000D02*
X151960000Y-121330000D01*
X151960000Y-121330000D02*
X152160000Y-121330000D01*
X152160000Y-121330000D02*
X152160000Y-121830000D01*
X152060000Y-121830000D02*
X152060000Y-121330000D01*
X147950000Y-117420000D02*
X146700000Y-117420000D01*
X146700000Y-117420000D02*
X146700000Y-118670000D01*
G04 #@! TO.C,Waveshare 10 DOF IMU Sensor (C/D) *
X143980000Y-73810000D02*
X143980000Y-95400000D01*
X159220000Y-95400000D02*
X159220000Y-73810000D01*
X159220000Y-73810000D02*
X143980000Y-73810000D01*
X159220000Y-95400000D02*
X159220000Y-101750000D01*
X143980000Y-101750000D02*
X143980000Y-95400000D01*
X159220000Y-101750000D02*
X159220000Y-105560000D01*
X143980000Y-101750000D02*
X143980000Y-105560000D01*
X159220000Y-85240000D02*
X143980000Y-85240000D01*
X143980000Y-85240000D02*
X143980000Y-116990000D01*
X143980000Y-116990000D02*
X159220000Y-116990000D01*
X159220000Y-116990000D02*
X159220000Y-105560000D01*
G04 #@! TD*
G04 #@! TO.C,U6*
D10*
X89322380Y-91081904D02*
X90131904Y-91081904D01*
X90227142Y-91034285D01*
X90274761Y-90986666D01*
X90322380Y-90891428D01*
X90322380Y-90700952D01*
X90274761Y-90605714D01*
X90227142Y-90558095D01*
X90131904Y-90510476D01*
X89322380Y-90510476D01*
X89322380Y-89605714D02*
X89322380Y-89796190D01*
X89370000Y-89891428D01*
X89417619Y-89939047D01*
X89560476Y-90034285D01*
X89750952Y-90081904D01*
X90131904Y-90081904D01*
X90227142Y-90034285D01*
X90274761Y-89986666D01*
X90322380Y-89891428D01*
X90322380Y-89700952D01*
X90274761Y-89605714D01*
X90227142Y-89558095D01*
X90131904Y-89510476D01*
X89893809Y-89510476D01*
X89798571Y-89558095D01*
X89750952Y-89605714D01*
X89703333Y-89700952D01*
X89703333Y-89891428D01*
X89750952Y-89986666D01*
X89798571Y-90034285D01*
X89893809Y-90081904D01*
X82202380Y-90009523D02*
X81202380Y-90009523D01*
X81916666Y-89676190D01*
X81202380Y-89342857D01*
X82202380Y-89342857D01*
X82202380Y-88723809D02*
X82154761Y-88819047D01*
X82107142Y-88866666D01*
X82011904Y-88914285D01*
X81726190Y-88914285D01*
X81630952Y-88866666D01*
X81583333Y-88819047D01*
X81535714Y-88723809D01*
X81535714Y-88580952D01*
X81583333Y-88485714D01*
X81630952Y-88438095D01*
X81726190Y-88390476D01*
X82011904Y-88390476D01*
X82107142Y-88438095D01*
X82154761Y-88485714D01*
X82202380Y-88580952D01*
X82202380Y-88723809D01*
X81535714Y-88104761D02*
X81535714Y-87723809D01*
X81202380Y-87961904D02*
X82059523Y-87961904D01*
X82154761Y-87914285D01*
X82202380Y-87819047D01*
X82202380Y-87723809D01*
X82202380Y-87247619D02*
X82154761Y-87342857D01*
X82107142Y-87390476D01*
X82011904Y-87438095D01*
X81726190Y-87438095D01*
X81630952Y-87390476D01*
X81583333Y-87342857D01*
X81535714Y-87247619D01*
X81535714Y-87104761D01*
X81583333Y-87009523D01*
X81630952Y-86961904D01*
X81726190Y-86914285D01*
X82011904Y-86914285D01*
X82107142Y-86961904D01*
X82154761Y-87009523D01*
X82202380Y-87104761D01*
X82202380Y-87247619D01*
X82202380Y-86485714D02*
X81535714Y-86485714D01*
X81726190Y-86485714D02*
X81630952Y-86438095D01*
X81583333Y-86390476D01*
X81535714Y-86295238D01*
X81535714Y-86200000D01*
X82202380Y-85104761D02*
X81202380Y-85104761D01*
X81202380Y-84866666D01*
X81250000Y-84723809D01*
X81345238Y-84628571D01*
X81440476Y-84580952D01*
X81630952Y-84533333D01*
X81773809Y-84533333D01*
X81964285Y-84580952D01*
X82059523Y-84628571D01*
X82154761Y-84723809D01*
X82202380Y-84866666D01*
X82202380Y-85104761D01*
X82202380Y-84104761D02*
X81535714Y-84104761D01*
X81726190Y-84104761D02*
X81630952Y-84057142D01*
X81583333Y-84009523D01*
X81535714Y-83914285D01*
X81535714Y-83819047D01*
X82202380Y-83485714D02*
X81535714Y-83485714D01*
X81202380Y-83485714D02*
X81250000Y-83533333D01*
X81297619Y-83485714D01*
X81250000Y-83438095D01*
X81202380Y-83485714D01*
X81297619Y-83485714D01*
X81535714Y-83104761D02*
X82202380Y-82866666D01*
X81535714Y-82628571D01*
X82154761Y-81866666D02*
X82202380Y-81961904D01*
X82202380Y-82152380D01*
X82154761Y-82247619D01*
X82059523Y-82295238D01*
X81678571Y-82295238D01*
X81583333Y-82247619D01*
X81535714Y-82152380D01*
X81535714Y-81961904D01*
X81583333Y-81866666D01*
X81678571Y-81819047D01*
X81773809Y-81819047D01*
X81869047Y-82295238D01*
X82202380Y-81390476D02*
X81535714Y-81390476D01*
X81726190Y-81390476D02*
X81630952Y-81342857D01*
X81583333Y-81295238D01*
X81535714Y-81200000D01*
X81535714Y-81104761D01*
X82107142Y-79438095D02*
X82154761Y-79485714D01*
X82202380Y-79628571D01*
X82202380Y-79723809D01*
X82154761Y-79866666D01*
X82059523Y-79961904D01*
X81964285Y-80009523D01*
X81773809Y-80057142D01*
X81630952Y-80057142D01*
X81440476Y-80009523D01*
X81345238Y-79961904D01*
X81250000Y-79866666D01*
X81202380Y-79723809D01*
X81202380Y-79628571D01*
X81250000Y-79485714D01*
X81297619Y-79438095D01*
X82202380Y-78580952D02*
X81678571Y-78580952D01*
X81583333Y-78628571D01*
X81535714Y-78723809D01*
X81535714Y-78914285D01*
X81583333Y-79009523D01*
X82154761Y-78580952D02*
X82202380Y-78676190D01*
X82202380Y-78914285D01*
X82154761Y-79009523D01*
X82059523Y-79057142D01*
X81964285Y-79057142D01*
X81869047Y-79009523D01*
X81821428Y-78914285D01*
X81821428Y-78676190D01*
X81773809Y-78580952D01*
X82202380Y-78104761D02*
X81535714Y-78104761D01*
X81726190Y-78104761D02*
X81630952Y-78057142D01*
X81583333Y-78009523D01*
X81535714Y-77914285D01*
X81535714Y-77819047D01*
X82202380Y-77485714D02*
X81535714Y-77485714D01*
X81726190Y-77485714D02*
X81630952Y-77438095D01*
X81583333Y-77390476D01*
X81535714Y-77295238D01*
X81535714Y-77200000D01*
X82202380Y-76866666D02*
X81535714Y-76866666D01*
X81202380Y-76866666D02*
X81250000Y-76914285D01*
X81297619Y-76866666D01*
X81250000Y-76819047D01*
X81202380Y-76866666D01*
X81297619Y-76866666D01*
X82154761Y-76009523D02*
X82202380Y-76104761D01*
X82202380Y-76295238D01*
X82154761Y-76390476D01*
X82059523Y-76438095D01*
X81678571Y-76438095D01*
X81583333Y-76390476D01*
X81535714Y-76295238D01*
X81535714Y-76104761D01*
X81583333Y-76009523D01*
X81678571Y-75961904D01*
X81773809Y-75961904D01*
X81869047Y-76438095D01*
X82202380Y-75533333D02*
X81535714Y-75533333D01*
X81726190Y-75533333D02*
X81630952Y-75485714D01*
X81583333Y-75438095D01*
X81535714Y-75342857D01*
X81535714Y-75247619D01*
X78662380Y-92961904D02*
X78662380Y-92390476D01*
X79662380Y-92676190D02*
X78662380Y-92676190D01*
X79138571Y-91723809D02*
X79186190Y-91580952D01*
X79233809Y-91533333D01*
X79329047Y-91485714D01*
X79471904Y-91485714D01*
X79567142Y-91533333D01*
X79614761Y-91580952D01*
X79662380Y-91676190D01*
X79662380Y-92057142D01*
X78662380Y-92057142D01*
X78662380Y-91723809D01*
X78710000Y-91628571D01*
X78757619Y-91580952D01*
X78852857Y-91533333D01*
X78948095Y-91533333D01*
X79043333Y-91580952D01*
X79090952Y-91628571D01*
X79138571Y-91723809D01*
X79138571Y-92057142D01*
X78662380Y-90628571D02*
X78662380Y-90819047D01*
X78710000Y-90914285D01*
X78757619Y-90961904D01*
X78900476Y-91057142D01*
X79090952Y-91104761D01*
X79471904Y-91104761D01*
X79567142Y-91057142D01*
X79614761Y-91009523D01*
X79662380Y-90914285D01*
X79662380Y-90723809D01*
X79614761Y-90628571D01*
X79567142Y-90580952D01*
X79471904Y-90533333D01*
X79233809Y-90533333D01*
X79138571Y-90580952D01*
X79090952Y-90628571D01*
X79043333Y-90723809D01*
X79043333Y-90914285D01*
X79090952Y-91009523D01*
X79138571Y-91057142D01*
X79233809Y-91104761D01*
X78662380Y-90200000D02*
X78662380Y-89533333D01*
X79662380Y-89961904D01*
X79662380Y-89152380D02*
X78662380Y-89152380D01*
X79138571Y-89152380D02*
X79138571Y-88580952D01*
X79662380Y-88580952D02*
X78662380Y-88580952D01*
X78995714Y-87676190D02*
X79662380Y-87676190D01*
X78614761Y-87914285D02*
X79329047Y-88152380D01*
X79329047Y-87533333D01*
X78757619Y-87200000D02*
X78710000Y-87152380D01*
X78662380Y-87057142D01*
X78662380Y-86819047D01*
X78710000Y-86723809D01*
X78757619Y-86676190D01*
X78852857Y-86628571D01*
X78948095Y-86628571D01*
X79090952Y-86676190D01*
X79662380Y-87247619D01*
X79662380Y-86628571D01*
X78662380Y-86009523D02*
X78662380Y-85914285D01*
X78710000Y-85819047D01*
X78757619Y-85771428D01*
X78852857Y-85723809D01*
X79043333Y-85676190D01*
X79281428Y-85676190D01*
X79471904Y-85723809D01*
X79567142Y-85771428D01*
X79614761Y-85819047D01*
X79662380Y-85914285D01*
X79662380Y-86009523D01*
X79614761Y-86104761D01*
X79567142Y-86152380D01*
X79471904Y-86200000D01*
X79281428Y-86247619D01*
X79043333Y-86247619D01*
X78852857Y-86200000D01*
X78757619Y-86152380D01*
X78710000Y-86104761D01*
X78662380Y-86009523D01*
X79138571Y-84914285D02*
X79138571Y-85247619D01*
X79662380Y-85247619D02*
X78662380Y-85247619D01*
X78662380Y-84771428D01*
X78662380Y-84533333D02*
X78662380Y-83961904D01*
X79662380Y-84247619D02*
X78662380Y-84247619D01*
X78710000Y-83104761D02*
X78662380Y-83200000D01*
X78662380Y-83342857D01*
X78710000Y-83485714D01*
X78805238Y-83580952D01*
X78900476Y-83628571D01*
X79090952Y-83676190D01*
X79233809Y-83676190D01*
X79424285Y-83628571D01*
X79519523Y-83580952D01*
X79614761Y-83485714D01*
X79662380Y-83342857D01*
X79662380Y-83247619D01*
X79614761Y-83104761D01*
X79567142Y-83057142D01*
X79233809Y-83057142D01*
X79233809Y-83247619D01*
X79662380Y-81866666D02*
X78662380Y-81866666D01*
X78662380Y-81628571D01*
X78710000Y-81485714D01*
X78805238Y-81390476D01*
X78900476Y-81342857D01*
X79090952Y-81295238D01*
X79233809Y-81295238D01*
X79424285Y-81342857D01*
X79519523Y-81390476D01*
X79614761Y-81485714D01*
X79662380Y-81628571D01*
X79662380Y-81866666D01*
X78995714Y-80438095D02*
X79662380Y-80438095D01*
X78995714Y-80866666D02*
X79519523Y-80866666D01*
X79614761Y-80819047D01*
X79662380Y-80723809D01*
X79662380Y-80580952D01*
X79614761Y-80485714D01*
X79567142Y-80438095D01*
X79662380Y-79533333D02*
X79138571Y-79533333D01*
X79043333Y-79580952D01*
X78995714Y-79676190D01*
X78995714Y-79866666D01*
X79043333Y-79961904D01*
X79614761Y-79533333D02*
X79662380Y-79628571D01*
X79662380Y-79866666D01*
X79614761Y-79961904D01*
X79519523Y-80009523D01*
X79424285Y-80009523D01*
X79329047Y-79961904D01*
X79281428Y-79866666D01*
X79281428Y-79628571D01*
X79233809Y-79533333D01*
X79662380Y-78914285D02*
X79614761Y-79009523D01*
X79519523Y-79057142D01*
X78662380Y-79057142D01*
X78614761Y-77819047D02*
X79900476Y-78676190D01*
X79614761Y-77533333D02*
X79662380Y-77390476D01*
X79662380Y-77152380D01*
X79614761Y-77057142D01*
X79567142Y-77009523D01*
X79471904Y-76961904D01*
X79376666Y-76961904D01*
X79281428Y-77009523D01*
X79233809Y-77057142D01*
X79186190Y-77152380D01*
X79138571Y-77342857D01*
X79090952Y-77438095D01*
X79043333Y-77485714D01*
X78948095Y-77533333D01*
X78852857Y-77533333D01*
X78757619Y-77485714D01*
X78710000Y-77438095D01*
X78662380Y-77342857D01*
X78662380Y-77104761D01*
X78710000Y-76961904D01*
X79662380Y-76533333D02*
X78995714Y-76533333D01*
X78662380Y-76533333D02*
X78710000Y-76580952D01*
X78757619Y-76533333D01*
X78710000Y-76485714D01*
X78662380Y-76533333D01*
X78757619Y-76533333D01*
X78995714Y-76057142D02*
X79662380Y-76057142D01*
X79090952Y-76057142D02*
X79043333Y-76009523D01*
X78995714Y-75914285D01*
X78995714Y-75771428D01*
X79043333Y-75676190D01*
X79138571Y-75628571D01*
X79662380Y-75628571D01*
X78995714Y-74723809D02*
X79805238Y-74723809D01*
X79900476Y-74771428D01*
X79948095Y-74819047D01*
X79995714Y-74914285D01*
X79995714Y-75057142D01*
X79948095Y-75152380D01*
X79614761Y-74723809D02*
X79662380Y-74819047D01*
X79662380Y-75009523D01*
X79614761Y-75104761D01*
X79567142Y-75152380D01*
X79471904Y-75200000D01*
X79186190Y-75200000D01*
X79090952Y-75152380D01*
X79043333Y-75104761D01*
X78995714Y-75009523D01*
X78995714Y-74819047D01*
X79043333Y-74723809D01*
X79662380Y-74104761D02*
X79614761Y-74200000D01*
X79519523Y-74247619D01*
X78662380Y-74247619D01*
X79614761Y-73342857D02*
X79662380Y-73438095D01*
X79662380Y-73628571D01*
X79614761Y-73723809D01*
X79519523Y-73771428D01*
X79138571Y-73771428D01*
X79043333Y-73723809D01*
X78995714Y-73628571D01*
X78995714Y-73438095D01*
X79043333Y-73342857D01*
X79138571Y-73295238D01*
X79233809Y-73295238D01*
X79329047Y-73771428D01*
G04 #@! TO.C,U5*
X89322380Y-121561904D02*
X90131904Y-121561904D01*
X90227142Y-121514285D01*
X90274761Y-121466666D01*
X90322380Y-121371428D01*
X90322380Y-121180952D01*
X90274761Y-121085714D01*
X90227142Y-121038095D01*
X90131904Y-120990476D01*
X89322380Y-120990476D01*
X89322380Y-120038095D02*
X89322380Y-120514285D01*
X89798571Y-120561904D01*
X89750952Y-120514285D01*
X89703333Y-120419047D01*
X89703333Y-120180952D01*
X89750952Y-120085714D01*
X89798571Y-120038095D01*
X89893809Y-119990476D01*
X90131904Y-119990476D01*
X90227142Y-120038095D01*
X90274761Y-120085714D01*
X90322380Y-120180952D01*
X90322380Y-120419047D01*
X90274761Y-120514285D01*
X90227142Y-120561904D01*
X82202380Y-120489523D02*
X81202380Y-120489523D01*
X81916666Y-120156190D01*
X81202380Y-119822857D01*
X82202380Y-119822857D01*
X82202380Y-119203809D02*
X82154761Y-119299047D01*
X82107142Y-119346666D01*
X82011904Y-119394285D01*
X81726190Y-119394285D01*
X81630952Y-119346666D01*
X81583333Y-119299047D01*
X81535714Y-119203809D01*
X81535714Y-119060952D01*
X81583333Y-118965714D01*
X81630952Y-118918095D01*
X81726190Y-118870476D01*
X82011904Y-118870476D01*
X82107142Y-118918095D01*
X82154761Y-118965714D01*
X82202380Y-119060952D01*
X82202380Y-119203809D01*
X81535714Y-118584761D02*
X81535714Y-118203809D01*
X81202380Y-118441904D02*
X82059523Y-118441904D01*
X82154761Y-118394285D01*
X82202380Y-118299047D01*
X82202380Y-118203809D01*
X82202380Y-117727619D02*
X82154761Y-117822857D01*
X82107142Y-117870476D01*
X82011904Y-117918095D01*
X81726190Y-117918095D01*
X81630952Y-117870476D01*
X81583333Y-117822857D01*
X81535714Y-117727619D01*
X81535714Y-117584761D01*
X81583333Y-117489523D01*
X81630952Y-117441904D01*
X81726190Y-117394285D01*
X82011904Y-117394285D01*
X82107142Y-117441904D01*
X82154761Y-117489523D01*
X82202380Y-117584761D01*
X82202380Y-117727619D01*
X82202380Y-116965714D02*
X81535714Y-116965714D01*
X81726190Y-116965714D02*
X81630952Y-116918095D01*
X81583333Y-116870476D01*
X81535714Y-116775238D01*
X81535714Y-116680000D01*
X82202380Y-115584761D02*
X81202380Y-115584761D01*
X81202380Y-115346666D01*
X81250000Y-115203809D01*
X81345238Y-115108571D01*
X81440476Y-115060952D01*
X81630952Y-115013333D01*
X81773809Y-115013333D01*
X81964285Y-115060952D01*
X82059523Y-115108571D01*
X82154761Y-115203809D01*
X82202380Y-115346666D01*
X82202380Y-115584761D01*
X82202380Y-114584761D02*
X81535714Y-114584761D01*
X81726190Y-114584761D02*
X81630952Y-114537142D01*
X81583333Y-114489523D01*
X81535714Y-114394285D01*
X81535714Y-114299047D01*
X82202380Y-113965714D02*
X81535714Y-113965714D01*
X81202380Y-113965714D02*
X81250000Y-114013333D01*
X81297619Y-113965714D01*
X81250000Y-113918095D01*
X81202380Y-113965714D01*
X81297619Y-113965714D01*
X81535714Y-113584761D02*
X82202380Y-113346666D01*
X81535714Y-113108571D01*
X82154761Y-112346666D02*
X82202380Y-112441904D01*
X82202380Y-112632380D01*
X82154761Y-112727619D01*
X82059523Y-112775238D01*
X81678571Y-112775238D01*
X81583333Y-112727619D01*
X81535714Y-112632380D01*
X81535714Y-112441904D01*
X81583333Y-112346666D01*
X81678571Y-112299047D01*
X81773809Y-112299047D01*
X81869047Y-112775238D01*
X82202380Y-111870476D02*
X81535714Y-111870476D01*
X81726190Y-111870476D02*
X81630952Y-111822857D01*
X81583333Y-111775238D01*
X81535714Y-111680000D01*
X81535714Y-111584761D01*
X82107142Y-109918095D02*
X82154761Y-109965714D01*
X82202380Y-110108571D01*
X82202380Y-110203809D01*
X82154761Y-110346666D01*
X82059523Y-110441904D01*
X81964285Y-110489523D01*
X81773809Y-110537142D01*
X81630952Y-110537142D01*
X81440476Y-110489523D01*
X81345238Y-110441904D01*
X81250000Y-110346666D01*
X81202380Y-110203809D01*
X81202380Y-110108571D01*
X81250000Y-109965714D01*
X81297619Y-109918095D01*
X82202380Y-109060952D02*
X81678571Y-109060952D01*
X81583333Y-109108571D01*
X81535714Y-109203809D01*
X81535714Y-109394285D01*
X81583333Y-109489523D01*
X82154761Y-109060952D02*
X82202380Y-109156190D01*
X82202380Y-109394285D01*
X82154761Y-109489523D01*
X82059523Y-109537142D01*
X81964285Y-109537142D01*
X81869047Y-109489523D01*
X81821428Y-109394285D01*
X81821428Y-109156190D01*
X81773809Y-109060952D01*
X82202380Y-108584761D02*
X81535714Y-108584761D01*
X81726190Y-108584761D02*
X81630952Y-108537142D01*
X81583333Y-108489523D01*
X81535714Y-108394285D01*
X81535714Y-108299047D01*
X82202380Y-107965714D02*
X81535714Y-107965714D01*
X81726190Y-107965714D02*
X81630952Y-107918095D01*
X81583333Y-107870476D01*
X81535714Y-107775238D01*
X81535714Y-107680000D01*
X82202380Y-107346666D02*
X81535714Y-107346666D01*
X81202380Y-107346666D02*
X81250000Y-107394285D01*
X81297619Y-107346666D01*
X81250000Y-107299047D01*
X81202380Y-107346666D01*
X81297619Y-107346666D01*
X82154761Y-106489523D02*
X82202380Y-106584761D01*
X82202380Y-106775238D01*
X82154761Y-106870476D01*
X82059523Y-106918095D01*
X81678571Y-106918095D01*
X81583333Y-106870476D01*
X81535714Y-106775238D01*
X81535714Y-106584761D01*
X81583333Y-106489523D01*
X81678571Y-106441904D01*
X81773809Y-106441904D01*
X81869047Y-106918095D01*
X82202380Y-106013333D02*
X81535714Y-106013333D01*
X81726190Y-106013333D02*
X81630952Y-105965714D01*
X81583333Y-105918095D01*
X81535714Y-105822857D01*
X81535714Y-105727619D01*
X78662380Y-123441904D02*
X78662380Y-122870476D01*
X79662380Y-123156190D02*
X78662380Y-123156190D01*
X79138571Y-122203809D02*
X79186190Y-122060952D01*
X79233809Y-122013333D01*
X79329047Y-121965714D01*
X79471904Y-121965714D01*
X79567142Y-122013333D01*
X79614761Y-122060952D01*
X79662380Y-122156190D01*
X79662380Y-122537142D01*
X78662380Y-122537142D01*
X78662380Y-122203809D01*
X78710000Y-122108571D01*
X78757619Y-122060952D01*
X78852857Y-122013333D01*
X78948095Y-122013333D01*
X79043333Y-122060952D01*
X79090952Y-122108571D01*
X79138571Y-122203809D01*
X79138571Y-122537142D01*
X78662380Y-121108571D02*
X78662380Y-121299047D01*
X78710000Y-121394285D01*
X78757619Y-121441904D01*
X78900476Y-121537142D01*
X79090952Y-121584761D01*
X79471904Y-121584761D01*
X79567142Y-121537142D01*
X79614761Y-121489523D01*
X79662380Y-121394285D01*
X79662380Y-121203809D01*
X79614761Y-121108571D01*
X79567142Y-121060952D01*
X79471904Y-121013333D01*
X79233809Y-121013333D01*
X79138571Y-121060952D01*
X79090952Y-121108571D01*
X79043333Y-121203809D01*
X79043333Y-121394285D01*
X79090952Y-121489523D01*
X79138571Y-121537142D01*
X79233809Y-121584761D01*
X78662380Y-120680000D02*
X78662380Y-120013333D01*
X79662380Y-120441904D01*
X79662380Y-119632380D02*
X78662380Y-119632380D01*
X79138571Y-119632380D02*
X79138571Y-119060952D01*
X79662380Y-119060952D02*
X78662380Y-119060952D01*
X78995714Y-118156190D02*
X79662380Y-118156190D01*
X78614761Y-118394285D02*
X79329047Y-118632380D01*
X79329047Y-118013333D01*
X78757619Y-117680000D02*
X78710000Y-117632380D01*
X78662380Y-117537142D01*
X78662380Y-117299047D01*
X78710000Y-117203809D01*
X78757619Y-117156190D01*
X78852857Y-117108571D01*
X78948095Y-117108571D01*
X79090952Y-117156190D01*
X79662380Y-117727619D01*
X79662380Y-117108571D01*
X78662380Y-116489523D02*
X78662380Y-116394285D01*
X78710000Y-116299047D01*
X78757619Y-116251428D01*
X78852857Y-116203809D01*
X79043333Y-116156190D01*
X79281428Y-116156190D01*
X79471904Y-116203809D01*
X79567142Y-116251428D01*
X79614761Y-116299047D01*
X79662380Y-116394285D01*
X79662380Y-116489523D01*
X79614761Y-116584761D01*
X79567142Y-116632380D01*
X79471904Y-116680000D01*
X79281428Y-116727619D01*
X79043333Y-116727619D01*
X78852857Y-116680000D01*
X78757619Y-116632380D01*
X78710000Y-116584761D01*
X78662380Y-116489523D01*
X79138571Y-115394285D02*
X79138571Y-115727619D01*
X79662380Y-115727619D02*
X78662380Y-115727619D01*
X78662380Y-115251428D01*
X78662380Y-115013333D02*
X78662380Y-114441904D01*
X79662380Y-114727619D02*
X78662380Y-114727619D01*
X78710000Y-113584761D02*
X78662380Y-113680000D01*
X78662380Y-113822857D01*
X78710000Y-113965714D01*
X78805238Y-114060952D01*
X78900476Y-114108571D01*
X79090952Y-114156190D01*
X79233809Y-114156190D01*
X79424285Y-114108571D01*
X79519523Y-114060952D01*
X79614761Y-113965714D01*
X79662380Y-113822857D01*
X79662380Y-113727619D01*
X79614761Y-113584761D01*
X79567142Y-113537142D01*
X79233809Y-113537142D01*
X79233809Y-113727619D01*
X79662380Y-112346666D02*
X78662380Y-112346666D01*
X78662380Y-112108571D01*
X78710000Y-111965714D01*
X78805238Y-111870476D01*
X78900476Y-111822857D01*
X79090952Y-111775238D01*
X79233809Y-111775238D01*
X79424285Y-111822857D01*
X79519523Y-111870476D01*
X79614761Y-111965714D01*
X79662380Y-112108571D01*
X79662380Y-112346666D01*
X78995714Y-110918095D02*
X79662380Y-110918095D01*
X78995714Y-111346666D02*
X79519523Y-111346666D01*
X79614761Y-111299047D01*
X79662380Y-111203809D01*
X79662380Y-111060952D01*
X79614761Y-110965714D01*
X79567142Y-110918095D01*
X79662380Y-110013333D02*
X79138571Y-110013333D01*
X79043333Y-110060952D01*
X78995714Y-110156190D01*
X78995714Y-110346666D01*
X79043333Y-110441904D01*
X79614761Y-110013333D02*
X79662380Y-110108571D01*
X79662380Y-110346666D01*
X79614761Y-110441904D01*
X79519523Y-110489523D01*
X79424285Y-110489523D01*
X79329047Y-110441904D01*
X79281428Y-110346666D01*
X79281428Y-110108571D01*
X79233809Y-110013333D01*
X79662380Y-109394285D02*
X79614761Y-109489523D01*
X79519523Y-109537142D01*
X78662380Y-109537142D01*
X78614761Y-108299047D02*
X79900476Y-109156190D01*
X79614761Y-108013333D02*
X79662380Y-107870476D01*
X79662380Y-107632380D01*
X79614761Y-107537142D01*
X79567142Y-107489523D01*
X79471904Y-107441904D01*
X79376666Y-107441904D01*
X79281428Y-107489523D01*
X79233809Y-107537142D01*
X79186190Y-107632380D01*
X79138571Y-107822857D01*
X79090952Y-107918095D01*
X79043333Y-107965714D01*
X78948095Y-108013333D01*
X78852857Y-108013333D01*
X78757619Y-107965714D01*
X78710000Y-107918095D01*
X78662380Y-107822857D01*
X78662380Y-107584761D01*
X78710000Y-107441904D01*
X79662380Y-107013333D02*
X78995714Y-107013333D01*
X78662380Y-107013333D02*
X78710000Y-107060952D01*
X78757619Y-107013333D01*
X78710000Y-106965714D01*
X78662380Y-107013333D01*
X78757619Y-107013333D01*
X78995714Y-106537142D02*
X79662380Y-106537142D01*
X79090952Y-106537142D02*
X79043333Y-106489523D01*
X78995714Y-106394285D01*
X78995714Y-106251428D01*
X79043333Y-106156190D01*
X79138571Y-106108571D01*
X79662380Y-106108571D01*
X78995714Y-105203809D02*
X79805238Y-105203809D01*
X79900476Y-105251428D01*
X79948095Y-105299047D01*
X79995714Y-105394285D01*
X79995714Y-105537142D01*
X79948095Y-105632380D01*
X79614761Y-105203809D02*
X79662380Y-105299047D01*
X79662380Y-105489523D01*
X79614761Y-105584761D01*
X79567142Y-105632380D01*
X79471904Y-105680000D01*
X79186190Y-105680000D01*
X79090952Y-105632380D01*
X79043333Y-105584761D01*
X78995714Y-105489523D01*
X78995714Y-105299047D01*
X79043333Y-105203809D01*
X79662380Y-104584761D02*
X79614761Y-104680000D01*
X79519523Y-104727619D01*
X78662380Y-104727619D01*
X79614761Y-103822857D02*
X79662380Y-103918095D01*
X79662380Y-104108571D01*
X79614761Y-104203809D01*
X79519523Y-104251428D01*
X79138571Y-104251428D01*
X79043333Y-104203809D01*
X78995714Y-104108571D01*
X78995714Y-103918095D01*
X79043333Y-103822857D01*
X79138571Y-103775238D01*
X79233809Y-103775238D01*
X79329047Y-104251428D01*
G04 #@! TO.C,U4*
X127978095Y-73262380D02*
X127978095Y-74071904D01*
X128025714Y-74167142D01*
X128073333Y-74214761D01*
X128168571Y-74262380D01*
X128359047Y-74262380D01*
X128454285Y-74214761D01*
X128501904Y-74167142D01*
X128549523Y-74071904D01*
X128549523Y-73262380D01*
X129454285Y-73595714D02*
X129454285Y-74262380D01*
X129216190Y-73214761D02*
X128978095Y-73929047D01*
X129597142Y-73929047D01*
X127287619Y-102472380D02*
X127478095Y-102472380D01*
X127573333Y-102520000D01*
X127668571Y-102615238D01*
X127716190Y-102805714D01*
X127716190Y-103139047D01*
X127668571Y-103329523D01*
X127573333Y-103424761D01*
X127478095Y-103472380D01*
X127287619Y-103472380D01*
X127192380Y-103424761D01*
X127097142Y-103329523D01*
X127049523Y-103139047D01*
X127049523Y-102805714D01*
X127097142Y-102615238D01*
X127192380Y-102520000D01*
X127287619Y-102472380D01*
X128620952Y-103472380D02*
X128144761Y-103472380D01*
X128144761Y-102472380D01*
X128954285Y-102948571D02*
X129287619Y-102948571D01*
X129430476Y-103472380D02*
X128954285Y-103472380D01*
X128954285Y-102472380D01*
X129430476Y-102472380D01*
X129859047Y-103472380D02*
X129859047Y-102472380D01*
X130097142Y-102472380D01*
X130240000Y-102520000D01*
X130335238Y-102615238D01*
X130382857Y-102710476D01*
X130430476Y-102900952D01*
X130430476Y-103043809D01*
X130382857Y-103234285D01*
X130335238Y-103329523D01*
X130240000Y-103424761D01*
X130097142Y-103472380D01*
X129859047Y-103472380D01*
X122025714Y-83152380D02*
X122025714Y-82152380D01*
X122025714Y-82628571D02*
X122597142Y-82628571D01*
X122597142Y-83152380D02*
X122597142Y-82152380D01*
X123454285Y-83104761D02*
X123359047Y-83152380D01*
X123168571Y-83152380D01*
X123073333Y-83104761D01*
X123025714Y-83009523D01*
X123025714Y-82628571D01*
X123073333Y-82533333D01*
X123168571Y-82485714D01*
X123359047Y-82485714D01*
X123454285Y-82533333D01*
X123501904Y-82628571D01*
X123501904Y-82723809D01*
X123025714Y-82819047D01*
X124073333Y-83152380D02*
X123978095Y-83104761D01*
X123930476Y-83009523D01*
X123930476Y-82152380D01*
X124311428Y-82485714D02*
X124692380Y-82485714D01*
X124454285Y-82152380D02*
X124454285Y-83009523D01*
X124501904Y-83104761D01*
X124597142Y-83152380D01*
X124692380Y-83152380D01*
X125406666Y-83104761D02*
X125311428Y-83152380D01*
X125120952Y-83152380D01*
X125025714Y-83104761D01*
X124978095Y-83009523D01*
X124978095Y-82628571D01*
X125025714Y-82533333D01*
X125120952Y-82485714D01*
X125311428Y-82485714D01*
X125406666Y-82533333D01*
X125454285Y-82628571D01*
X125454285Y-82723809D01*
X124978095Y-82819047D01*
X126311428Y-83104761D02*
X126216190Y-83152380D01*
X126025714Y-83152380D01*
X125930476Y-83104761D01*
X125882857Y-83057142D01*
X125835238Y-82961904D01*
X125835238Y-82676190D01*
X125882857Y-82580952D01*
X125930476Y-82533333D01*
X126025714Y-82485714D01*
X126216190Y-82485714D01*
X126311428Y-82533333D01*
X127406666Y-82152380D02*
X127644761Y-83152380D01*
X127835238Y-82438095D01*
X128025714Y-83152380D01*
X128263809Y-82152380D01*
X128644761Y-83152380D02*
X128644761Y-82485714D01*
X128644761Y-82152380D02*
X128597142Y-82200000D01*
X128644761Y-82247619D01*
X128692380Y-82200000D01*
X128644761Y-82152380D01*
X128644761Y-82247619D01*
X129454285Y-82628571D02*
X129120952Y-82628571D01*
X129120952Y-83152380D02*
X129120952Y-82152380D01*
X129597142Y-82152380D01*
X129978095Y-83152380D02*
X129978095Y-82485714D01*
X129978095Y-82152380D02*
X129930476Y-82200000D01*
X129978095Y-82247619D01*
X130025714Y-82200000D01*
X129978095Y-82152380D01*
X129978095Y-82247619D01*
X131216190Y-83152380D02*
X131216190Y-82152380D01*
X131787619Y-83152380D02*
X131359047Y-82580952D01*
X131787619Y-82152380D02*
X131216190Y-82723809D01*
X132216190Y-83152380D02*
X132216190Y-82485714D01*
X132216190Y-82152380D02*
X132168571Y-82200000D01*
X132216190Y-82247619D01*
X132263809Y-82200000D01*
X132216190Y-82152380D01*
X132216190Y-82247619D01*
X132549523Y-82485714D02*
X132930476Y-82485714D01*
X132692380Y-82152380D02*
X132692380Y-83009523D01*
X132740000Y-83104761D01*
X132835238Y-83152380D01*
X132930476Y-83152380D01*
X133930476Y-82152380D02*
X134549523Y-82152380D01*
X134216190Y-82533333D01*
X134359047Y-82533333D01*
X134454285Y-82580952D01*
X134501904Y-82628571D01*
X134549523Y-82723809D01*
X134549523Y-82961904D01*
X134501904Y-83057142D01*
X134454285Y-83104761D01*
X134359047Y-83152380D01*
X134073333Y-83152380D01*
X133978095Y-83104761D01*
X133930476Y-83057142D01*
X134930476Y-82247619D02*
X134978095Y-82200000D01*
X135073333Y-82152380D01*
X135311428Y-82152380D01*
X135406666Y-82200000D01*
X135454285Y-82247619D01*
X135501904Y-82342857D01*
X135501904Y-82438095D01*
X135454285Y-82580952D01*
X134882857Y-83152380D01*
X135501904Y-83152380D01*
G04 #@! TO.C,U1*
X106388095Y-88502380D02*
X106388095Y-89311904D01*
X106435714Y-89407142D01*
X106483333Y-89454761D01*
X106578571Y-89502380D01*
X106769047Y-89502380D01*
X106864285Y-89454761D01*
X106911904Y-89407142D01*
X106959523Y-89311904D01*
X106959523Y-88502380D01*
X107959523Y-89502380D02*
X107388095Y-89502380D01*
X107673809Y-89502380D02*
X107673809Y-88502380D01*
X107578571Y-88645238D01*
X107483333Y-88740476D01*
X107388095Y-88788095D01*
X107602380Y-86914285D02*
X107602380Y-87390476D01*
X106602380Y-87390476D01*
X107602380Y-86438095D02*
X107554761Y-86533333D01*
X107507142Y-86580952D01*
X107411904Y-86628571D01*
X107126190Y-86628571D01*
X107030952Y-86580952D01*
X106983333Y-86533333D01*
X106935714Y-86438095D01*
X106935714Y-86295238D01*
X106983333Y-86200000D01*
X107030952Y-86152380D01*
X107126190Y-86104761D01*
X107411904Y-86104761D01*
X107507142Y-86152380D01*
X107554761Y-86200000D01*
X107602380Y-86295238D01*
X107602380Y-86438095D01*
X106935714Y-85247619D02*
X107745238Y-85247619D01*
X107840476Y-85295238D01*
X107888095Y-85342857D01*
X107935714Y-85438095D01*
X107935714Y-85580952D01*
X107888095Y-85676190D01*
X107554761Y-85247619D02*
X107602380Y-85342857D01*
X107602380Y-85533333D01*
X107554761Y-85628571D01*
X107507142Y-85676190D01*
X107411904Y-85723809D01*
X107126190Y-85723809D01*
X107030952Y-85676190D01*
X106983333Y-85628571D01*
X106935714Y-85533333D01*
X106935714Y-85342857D01*
X106983333Y-85247619D01*
X107602380Y-84771428D02*
X106935714Y-84771428D01*
X106602380Y-84771428D02*
X106650000Y-84819047D01*
X106697619Y-84771428D01*
X106650000Y-84723809D01*
X106602380Y-84771428D01*
X106697619Y-84771428D01*
X107554761Y-83866666D02*
X107602380Y-83961904D01*
X107602380Y-84152380D01*
X107554761Y-84247619D01*
X107507142Y-84295238D01*
X107411904Y-84342857D01*
X107126190Y-84342857D01*
X107030952Y-84295238D01*
X106983333Y-84247619D01*
X106935714Y-84152380D01*
X106935714Y-83961904D01*
X106983333Y-83866666D01*
X107554761Y-83485714D02*
X107602380Y-83342857D01*
X107602380Y-83104761D01*
X107554761Y-83009523D01*
X107507142Y-82961904D01*
X107411904Y-82914285D01*
X107316666Y-82914285D01*
X107221428Y-82961904D01*
X107173809Y-83009523D01*
X107126190Y-83104761D01*
X107078571Y-83295238D01*
X107030952Y-83390476D01*
X106983333Y-83438095D01*
X106888095Y-83485714D01*
X106792857Y-83485714D01*
X106697619Y-83438095D01*
X106650000Y-83390476D01*
X106602380Y-83295238D01*
X106602380Y-83057142D01*
X106650000Y-82914285D01*
X107602380Y-82485714D02*
X106602380Y-82485714D01*
X107602380Y-82057142D02*
X107078571Y-82057142D01*
X106983333Y-82104761D01*
X106935714Y-82200000D01*
X106935714Y-82342857D01*
X106983333Y-82438095D01*
X107030952Y-82485714D01*
X107602380Y-81580952D02*
X106935714Y-81580952D01*
X106602380Y-81580952D02*
X106650000Y-81628571D01*
X106697619Y-81580952D01*
X106650000Y-81533333D01*
X106602380Y-81580952D01*
X106697619Y-81580952D01*
X106935714Y-81247619D02*
X106935714Y-80866666D01*
X107602380Y-81104761D02*
X106745238Y-81104761D01*
X106650000Y-81057142D01*
X106602380Y-80961904D01*
X106602380Y-80866666D01*
X106935714Y-80676190D02*
X106935714Y-80295238D01*
X106602380Y-80533333D02*
X107459523Y-80533333D01*
X107554761Y-80485714D01*
X107602380Y-80390476D01*
X107602380Y-80295238D01*
X107554761Y-79580952D02*
X107602380Y-79676190D01*
X107602380Y-79866666D01*
X107554761Y-79961904D01*
X107459523Y-80009523D01*
X107078571Y-80009523D01*
X106983333Y-79961904D01*
X106935714Y-79866666D01*
X106935714Y-79676190D01*
X106983333Y-79580952D01*
X107078571Y-79533333D01*
X107173809Y-79533333D01*
X107269047Y-80009523D01*
X107602380Y-79104761D02*
X106935714Y-79104761D01*
X107126190Y-79104761D02*
X107030952Y-79057142D01*
X106983333Y-79009523D01*
X106935714Y-78914285D01*
X106935714Y-78819047D01*
X106602380Y-78580952D02*
X106602380Y-77961904D01*
X106983333Y-78295238D01*
X106983333Y-78152380D01*
X107030952Y-78057142D01*
X107078571Y-78009523D01*
X107173809Y-77961904D01*
X107411904Y-77961904D01*
X107507142Y-78009523D01*
X107554761Y-78057142D01*
X107602380Y-78152380D01*
X107602380Y-78438095D01*
X107554761Y-78533333D01*
X107507142Y-78580952D01*
G04 #@! TO.C,U2*
X106388095Y-103742380D02*
X106388095Y-104551904D01*
X106435714Y-104647142D01*
X106483333Y-104694761D01*
X106578571Y-104742380D01*
X106769047Y-104742380D01*
X106864285Y-104694761D01*
X106911904Y-104647142D01*
X106959523Y-104551904D01*
X106959523Y-103742380D01*
X107388095Y-103837619D02*
X107435714Y-103790000D01*
X107530952Y-103742380D01*
X107769047Y-103742380D01*
X107864285Y-103790000D01*
X107911904Y-103837619D01*
X107959523Y-103932857D01*
X107959523Y-104028095D01*
X107911904Y-104170952D01*
X107340476Y-104742380D01*
X107959523Y-104742380D01*
X107602380Y-102154285D02*
X107602380Y-102630476D01*
X106602380Y-102630476D01*
X107602380Y-101678095D02*
X107554761Y-101773333D01*
X107507142Y-101820952D01*
X107411904Y-101868571D01*
X107126190Y-101868571D01*
X107030952Y-101820952D01*
X106983333Y-101773333D01*
X106935714Y-101678095D01*
X106935714Y-101535238D01*
X106983333Y-101440000D01*
X107030952Y-101392380D01*
X107126190Y-101344761D01*
X107411904Y-101344761D01*
X107507142Y-101392380D01*
X107554761Y-101440000D01*
X107602380Y-101535238D01*
X107602380Y-101678095D01*
X106935714Y-100487619D02*
X107745238Y-100487619D01*
X107840476Y-100535238D01*
X107888095Y-100582857D01*
X107935714Y-100678095D01*
X107935714Y-100820952D01*
X107888095Y-100916190D01*
X107554761Y-100487619D02*
X107602380Y-100582857D01*
X107602380Y-100773333D01*
X107554761Y-100868571D01*
X107507142Y-100916190D01*
X107411904Y-100963809D01*
X107126190Y-100963809D01*
X107030952Y-100916190D01*
X106983333Y-100868571D01*
X106935714Y-100773333D01*
X106935714Y-100582857D01*
X106983333Y-100487619D01*
X107602380Y-100011428D02*
X106935714Y-100011428D01*
X106602380Y-100011428D02*
X106650000Y-100059047D01*
X106697619Y-100011428D01*
X106650000Y-99963809D01*
X106602380Y-100011428D01*
X106697619Y-100011428D01*
X107554761Y-99106666D02*
X107602380Y-99201904D01*
X107602380Y-99392380D01*
X107554761Y-99487619D01*
X107507142Y-99535238D01*
X107411904Y-99582857D01*
X107126190Y-99582857D01*
X107030952Y-99535238D01*
X106983333Y-99487619D01*
X106935714Y-99392380D01*
X106935714Y-99201904D01*
X106983333Y-99106666D01*
X107554761Y-98725714D02*
X107602380Y-98582857D01*
X107602380Y-98344761D01*
X107554761Y-98249523D01*
X107507142Y-98201904D01*
X107411904Y-98154285D01*
X107316666Y-98154285D01*
X107221428Y-98201904D01*
X107173809Y-98249523D01*
X107126190Y-98344761D01*
X107078571Y-98535238D01*
X107030952Y-98630476D01*
X106983333Y-98678095D01*
X106888095Y-98725714D01*
X106792857Y-98725714D01*
X106697619Y-98678095D01*
X106650000Y-98630476D01*
X106602380Y-98535238D01*
X106602380Y-98297142D01*
X106650000Y-98154285D01*
X107602380Y-97725714D02*
X106602380Y-97725714D01*
X107602380Y-97297142D02*
X107078571Y-97297142D01*
X106983333Y-97344761D01*
X106935714Y-97440000D01*
X106935714Y-97582857D01*
X106983333Y-97678095D01*
X107030952Y-97725714D01*
X107602380Y-96820952D02*
X106935714Y-96820952D01*
X106602380Y-96820952D02*
X106650000Y-96868571D01*
X106697619Y-96820952D01*
X106650000Y-96773333D01*
X106602380Y-96820952D01*
X106697619Y-96820952D01*
X106935714Y-96487619D02*
X106935714Y-96106666D01*
X107602380Y-96344761D02*
X106745238Y-96344761D01*
X106650000Y-96297142D01*
X106602380Y-96201904D01*
X106602380Y-96106666D01*
X106935714Y-95916190D02*
X106935714Y-95535238D01*
X106602380Y-95773333D02*
X107459523Y-95773333D01*
X107554761Y-95725714D01*
X107602380Y-95630476D01*
X107602380Y-95535238D01*
X107554761Y-94820952D02*
X107602380Y-94916190D01*
X107602380Y-95106666D01*
X107554761Y-95201904D01*
X107459523Y-95249523D01*
X107078571Y-95249523D01*
X106983333Y-95201904D01*
X106935714Y-95106666D01*
X106935714Y-94916190D01*
X106983333Y-94820952D01*
X107078571Y-94773333D01*
X107173809Y-94773333D01*
X107269047Y-95249523D01*
X107602380Y-94344761D02*
X106935714Y-94344761D01*
X107126190Y-94344761D02*
X107030952Y-94297142D01*
X106983333Y-94249523D01*
X106935714Y-94154285D01*
X106935714Y-94059047D01*
X106697619Y-93773333D02*
X106650000Y-93725714D01*
X106602380Y-93630476D01*
X106602380Y-93392380D01*
X106650000Y-93297142D01*
X106697619Y-93249523D01*
X106792857Y-93201904D01*
X106888095Y-93201904D01*
X107030952Y-93249523D01*
X107602380Y-93820952D01*
X107602380Y-93201904D01*
G04 #@! TO.C,U3*
X106388095Y-118982380D02*
X106388095Y-119791904D01*
X106435714Y-119887142D01*
X106483333Y-119934761D01*
X106578571Y-119982380D01*
X106769047Y-119982380D01*
X106864285Y-119934761D01*
X106911904Y-119887142D01*
X106959523Y-119791904D01*
X106959523Y-118982380D01*
X107340476Y-118982380D02*
X107959523Y-118982380D01*
X107626190Y-119363333D01*
X107769047Y-119363333D01*
X107864285Y-119410952D01*
X107911904Y-119458571D01*
X107959523Y-119553809D01*
X107959523Y-119791904D01*
X107911904Y-119887142D01*
X107864285Y-119934761D01*
X107769047Y-119982380D01*
X107483333Y-119982380D01*
X107388095Y-119934761D01*
X107340476Y-119887142D01*
X107602380Y-117394285D02*
X107602380Y-117870476D01*
X106602380Y-117870476D01*
X107602380Y-116918095D02*
X107554761Y-117013333D01*
X107507142Y-117060952D01*
X107411904Y-117108571D01*
X107126190Y-117108571D01*
X107030952Y-117060952D01*
X106983333Y-117013333D01*
X106935714Y-116918095D01*
X106935714Y-116775238D01*
X106983333Y-116680000D01*
X107030952Y-116632380D01*
X107126190Y-116584761D01*
X107411904Y-116584761D01*
X107507142Y-116632380D01*
X107554761Y-116680000D01*
X107602380Y-116775238D01*
X107602380Y-116918095D01*
X106935714Y-115727619D02*
X107745238Y-115727619D01*
X107840476Y-115775238D01*
X107888095Y-115822857D01*
X107935714Y-115918095D01*
X107935714Y-116060952D01*
X107888095Y-116156190D01*
X107554761Y-115727619D02*
X107602380Y-115822857D01*
X107602380Y-116013333D01*
X107554761Y-116108571D01*
X107507142Y-116156190D01*
X107411904Y-116203809D01*
X107126190Y-116203809D01*
X107030952Y-116156190D01*
X106983333Y-116108571D01*
X106935714Y-116013333D01*
X106935714Y-115822857D01*
X106983333Y-115727619D01*
X107602380Y-115251428D02*
X106935714Y-115251428D01*
X106602380Y-115251428D02*
X106650000Y-115299047D01*
X106697619Y-115251428D01*
X106650000Y-115203809D01*
X106602380Y-115251428D01*
X106697619Y-115251428D01*
X107554761Y-114346666D02*
X107602380Y-114441904D01*
X107602380Y-114632380D01*
X107554761Y-114727619D01*
X107507142Y-114775238D01*
X107411904Y-114822857D01*
X107126190Y-114822857D01*
X107030952Y-114775238D01*
X106983333Y-114727619D01*
X106935714Y-114632380D01*
X106935714Y-114441904D01*
X106983333Y-114346666D01*
X107554761Y-113965714D02*
X107602380Y-113822857D01*
X107602380Y-113584761D01*
X107554761Y-113489523D01*
X107507142Y-113441904D01*
X107411904Y-113394285D01*
X107316666Y-113394285D01*
X107221428Y-113441904D01*
X107173809Y-113489523D01*
X107126190Y-113584761D01*
X107078571Y-113775238D01*
X107030952Y-113870476D01*
X106983333Y-113918095D01*
X106888095Y-113965714D01*
X106792857Y-113965714D01*
X106697619Y-113918095D01*
X106650000Y-113870476D01*
X106602380Y-113775238D01*
X106602380Y-113537142D01*
X106650000Y-113394285D01*
X107602380Y-112965714D02*
X106602380Y-112965714D01*
X107602380Y-112537142D02*
X107078571Y-112537142D01*
X106983333Y-112584761D01*
X106935714Y-112680000D01*
X106935714Y-112822857D01*
X106983333Y-112918095D01*
X107030952Y-112965714D01*
X107602380Y-112060952D02*
X106935714Y-112060952D01*
X106602380Y-112060952D02*
X106650000Y-112108571D01*
X106697619Y-112060952D01*
X106650000Y-112013333D01*
X106602380Y-112060952D01*
X106697619Y-112060952D01*
X106935714Y-111727619D02*
X106935714Y-111346666D01*
X107602380Y-111584761D02*
X106745238Y-111584761D01*
X106650000Y-111537142D01*
X106602380Y-111441904D01*
X106602380Y-111346666D01*
X106935714Y-111156190D02*
X106935714Y-110775238D01*
X106602380Y-111013333D02*
X107459523Y-111013333D01*
X107554761Y-110965714D01*
X107602380Y-110870476D01*
X107602380Y-110775238D01*
X107554761Y-110060952D02*
X107602380Y-110156190D01*
X107602380Y-110346666D01*
X107554761Y-110441904D01*
X107459523Y-110489523D01*
X107078571Y-110489523D01*
X106983333Y-110441904D01*
X106935714Y-110346666D01*
X106935714Y-110156190D01*
X106983333Y-110060952D01*
X107078571Y-110013333D01*
X107173809Y-110013333D01*
X107269047Y-110489523D01*
X107602380Y-109584761D02*
X106935714Y-109584761D01*
X107126190Y-109584761D02*
X107030952Y-109537142D01*
X106983333Y-109489523D01*
X106935714Y-109394285D01*
X106935714Y-109299047D01*
X107602380Y-108441904D02*
X107602380Y-109013333D01*
X107602380Y-108727619D02*
X106602380Y-108727619D01*
X106745238Y-108822857D01*
X106840476Y-108918095D01*
X106888095Y-109013333D01*
G04 #@! TO.C,JST-PH*
X148702857Y-116082380D02*
X148702857Y-116796666D01*
X148655238Y-116939523D01*
X148560000Y-117034761D01*
X148417142Y-117082380D01*
X148321904Y-117082380D01*
X149131428Y-117034761D02*
X149274285Y-117082380D01*
X149512380Y-117082380D01*
X149607619Y-117034761D01*
X149655238Y-116987142D01*
X149702857Y-116891904D01*
X149702857Y-116796666D01*
X149655238Y-116701428D01*
X149607619Y-116653809D01*
X149512380Y-116606190D01*
X149321904Y-116558571D01*
X149226666Y-116510952D01*
X149179047Y-116463333D01*
X149131428Y-116368095D01*
X149131428Y-116272857D01*
X149179047Y-116177619D01*
X149226666Y-116130000D01*
X149321904Y-116082380D01*
X149560000Y-116082380D01*
X149702857Y-116130000D01*
X149988571Y-116082380D02*
X150560000Y-116082380D01*
X150274285Y-117082380D02*
X150274285Y-116082380D01*
X150893333Y-116701428D02*
X151655238Y-116701428D01*
X152131428Y-117082380D02*
X152131428Y-116082380D01*
X152512380Y-116082380D01*
X152607619Y-116130000D01*
X152655238Y-116177619D01*
X152702857Y-116272857D01*
X152702857Y-116415714D01*
X152655238Y-116510952D01*
X152607619Y-116558571D01*
X152512380Y-116606190D01*
X152131428Y-116606190D01*
X153131428Y-117082380D02*
X153131428Y-116082380D01*
X153131428Y-116558571D02*
X153702857Y-116558571D01*
X153702857Y-117082380D02*
X153702857Y-116082380D01*
G04 #@! TO.C,Waveshare 10 DOF IMU Sensor (C/D) *
X145972380Y-114956190D02*
X146972380Y-114718095D01*
X146258095Y-114527619D01*
X146972380Y-114337142D01*
X145972380Y-114099047D01*
X146972380Y-113289523D02*
X146448571Y-113289523D01*
X146353333Y-113337142D01*
X146305714Y-113432380D01*
X146305714Y-113622857D01*
X146353333Y-113718095D01*
X146924761Y-113289523D02*
X146972380Y-113384761D01*
X146972380Y-113622857D01*
X146924761Y-113718095D01*
X146829523Y-113765714D01*
X146734285Y-113765714D01*
X146639047Y-113718095D01*
X146591428Y-113622857D01*
X146591428Y-113384761D01*
X146543809Y-113289523D01*
X146305714Y-112908571D02*
X146972380Y-112670476D01*
X146305714Y-112432380D01*
X146924761Y-111670476D02*
X146972380Y-111765714D01*
X146972380Y-111956190D01*
X146924761Y-112051428D01*
X146829523Y-112099047D01*
X146448571Y-112099047D01*
X146353333Y-112051428D01*
X146305714Y-111956190D01*
X146305714Y-111765714D01*
X146353333Y-111670476D01*
X146448571Y-111622857D01*
X146543809Y-111622857D01*
X146639047Y-112099047D01*
X146924761Y-111241904D02*
X146972380Y-111146666D01*
X146972380Y-110956190D01*
X146924761Y-110860952D01*
X146829523Y-110813333D01*
X146781904Y-110813333D01*
X146686666Y-110860952D01*
X146639047Y-110956190D01*
X146639047Y-111099047D01*
X146591428Y-111194285D01*
X146496190Y-111241904D01*
X146448571Y-111241904D01*
X146353333Y-111194285D01*
X146305714Y-111099047D01*
X146305714Y-110956190D01*
X146353333Y-110860952D01*
X146972380Y-110384761D02*
X145972380Y-110384761D01*
X146972380Y-109956190D02*
X146448571Y-109956190D01*
X146353333Y-110003809D01*
X146305714Y-110099047D01*
X146305714Y-110241904D01*
X146353333Y-110337142D01*
X146400952Y-110384761D01*
X146972380Y-109051428D02*
X146448571Y-109051428D01*
X146353333Y-109099047D01*
X146305714Y-109194285D01*
X146305714Y-109384761D01*
X146353333Y-109480000D01*
X146924761Y-109051428D02*
X146972380Y-109146666D01*
X146972380Y-109384761D01*
X146924761Y-109480000D01*
X146829523Y-109527619D01*
X146734285Y-109527619D01*
X146639047Y-109480000D01*
X146591428Y-109384761D01*
X146591428Y-109146666D01*
X146543809Y-109051428D01*
X146972380Y-108575238D02*
X146305714Y-108575238D01*
X146496190Y-108575238D02*
X146400952Y-108527619D01*
X146353333Y-108480000D01*
X146305714Y-108384761D01*
X146305714Y-108289523D01*
X146924761Y-107575238D02*
X146972380Y-107670476D01*
X146972380Y-107860952D01*
X146924761Y-107956190D01*
X146829523Y-108003809D01*
X146448571Y-108003809D01*
X146353333Y-107956190D01*
X146305714Y-107860952D01*
X146305714Y-107670476D01*
X146353333Y-107575238D01*
X146448571Y-107527619D01*
X146543809Y-107527619D01*
X146639047Y-108003809D01*
X146972380Y-105813333D02*
X146972380Y-106384761D01*
X146972380Y-106099047D02*
X145972380Y-106099047D01*
X146115238Y-106194285D01*
X146210476Y-106289523D01*
X146258095Y-106384761D01*
X145972380Y-105194285D02*
X145972380Y-105099047D01*
X146020000Y-105003809D01*
X146067619Y-104956190D01*
X146162857Y-104908571D01*
X146353333Y-104860952D01*
X146591428Y-104860952D01*
X146781904Y-104908571D01*
X146877142Y-104956190D01*
X146924761Y-105003809D01*
X146972380Y-105099047D01*
X146972380Y-105194285D01*
X146924761Y-105289523D01*
X146877142Y-105337142D01*
X146781904Y-105384761D01*
X146591428Y-105432380D01*
X146353333Y-105432380D01*
X146162857Y-105384761D01*
X146067619Y-105337142D01*
X146020000Y-105289523D01*
X145972380Y-105194285D01*
X146972380Y-103670476D02*
X145972380Y-103670476D01*
X145972380Y-103432380D01*
X146020000Y-103289523D01*
X146115238Y-103194285D01*
X146210476Y-103146666D01*
X146400952Y-103099047D01*
X146543809Y-103099047D01*
X146734285Y-103146666D01*
X146829523Y-103194285D01*
X146924761Y-103289523D01*
X146972380Y-103432380D01*
X146972380Y-103670476D01*
X145972380Y-102480000D02*
X145972380Y-102289523D01*
X146020000Y-102194285D01*
X146115238Y-102099047D01*
X146305714Y-102051428D01*
X146639047Y-102051428D01*
X146829523Y-102099047D01*
X146924761Y-102194285D01*
X146972380Y-102289523D01*
X146972380Y-102480000D01*
X146924761Y-102575238D01*
X146829523Y-102670476D01*
X146639047Y-102718095D01*
X146305714Y-102718095D01*
X146115238Y-102670476D01*
X146020000Y-102575238D01*
X145972380Y-102480000D01*
X146448571Y-101289523D02*
X146448571Y-101622857D01*
X146972380Y-101622857D02*
X145972380Y-101622857D01*
X145972380Y-101146666D01*
X146972380Y-100003809D02*
X145972380Y-100003809D01*
X146972380Y-99527619D02*
X145972380Y-99527619D01*
X146686666Y-99194285D01*
X145972380Y-98860952D01*
X146972380Y-98860952D01*
X145972380Y-98384761D02*
X146781904Y-98384761D01*
X146877142Y-98337142D01*
X146924761Y-98289523D01*
X146972380Y-98194285D01*
X146972380Y-98003809D01*
X146924761Y-97908571D01*
X146877142Y-97860952D01*
X146781904Y-97813333D01*
X145972380Y-97813333D01*
X146924761Y-96622857D02*
X146972380Y-96480000D01*
X146972380Y-96241904D01*
X146924761Y-96146666D01*
X146877142Y-96099047D01*
X146781904Y-96051428D01*
X146686666Y-96051428D01*
X146591428Y-96099047D01*
X146543809Y-96146666D01*
X146496190Y-96241904D01*
X146448571Y-96432380D01*
X146400952Y-96527619D01*
X146353333Y-96575238D01*
X146258095Y-96622857D01*
X146162857Y-96622857D01*
X146067619Y-96575238D01*
X146020000Y-96527619D01*
X145972380Y-96432380D01*
X145972380Y-96194285D01*
X146020000Y-96051428D01*
X146924761Y-95241904D02*
X146972380Y-95337142D01*
X146972380Y-95527619D01*
X146924761Y-95622857D01*
X146829523Y-95670476D01*
X146448571Y-95670476D01*
X146353333Y-95622857D01*
X146305714Y-95527619D01*
X146305714Y-95337142D01*
X146353333Y-95241904D01*
X146448571Y-95194285D01*
X146543809Y-95194285D01*
X146639047Y-95670476D01*
X146305714Y-94765714D02*
X146972380Y-94765714D01*
X146400952Y-94765714D02*
X146353333Y-94718095D01*
X146305714Y-94622857D01*
X146305714Y-94480000D01*
X146353333Y-94384761D01*
X146448571Y-94337142D01*
X146972380Y-94337142D01*
X146924761Y-93908571D02*
X146972380Y-93813333D01*
X146972380Y-93622857D01*
X146924761Y-93527619D01*
X146829523Y-93480000D01*
X146781904Y-93480000D01*
X146686666Y-93527619D01*
X146639047Y-93622857D01*
X146639047Y-93765714D01*
X146591428Y-93860952D01*
X146496190Y-93908571D01*
X146448571Y-93908571D01*
X146353333Y-93860952D01*
X146305714Y-93765714D01*
X146305714Y-93622857D01*
X146353333Y-93527619D01*
X146972380Y-92908571D02*
X146924761Y-93003809D01*
X146877142Y-93051428D01*
X146781904Y-93099047D01*
X146496190Y-93099047D01*
X146400952Y-93051428D01*
X146353333Y-93003809D01*
X146305714Y-92908571D01*
X146305714Y-92765714D01*
X146353333Y-92670476D01*
X146400952Y-92622857D01*
X146496190Y-92575238D01*
X146781904Y-92575238D01*
X146877142Y-92622857D01*
X146924761Y-92670476D01*
X146972380Y-92765714D01*
X146972380Y-92908571D01*
X146972380Y-92146666D02*
X146305714Y-92146666D01*
X146496190Y-92146666D02*
X146400952Y-92099047D01*
X146353333Y-92051428D01*
X146305714Y-91956190D01*
X146305714Y-91860952D01*
X147353333Y-90480000D02*
X147305714Y-90527619D01*
X147162857Y-90622857D01*
X147067619Y-90670476D01*
X146924761Y-90718095D01*
X146686666Y-90765714D01*
X146496190Y-90765714D01*
X146258095Y-90718095D01*
X146115238Y-90670476D01*
X146020000Y-90622857D01*
X145877142Y-90527619D01*
X145829523Y-90480000D01*
X146877142Y-89527619D02*
X146924761Y-89575238D01*
X146972380Y-89718095D01*
X146972380Y-89813333D01*
X146924761Y-89956190D01*
X146829523Y-90051428D01*
X146734285Y-90099047D01*
X146543809Y-90146666D01*
X146400952Y-90146666D01*
X146210476Y-90099047D01*
X146115238Y-90051428D01*
X146020000Y-89956190D01*
X145972380Y-89813333D01*
X145972380Y-89718095D01*
X146020000Y-89575238D01*
X146067619Y-89527619D01*
X145924761Y-88384761D02*
X147210476Y-89241904D01*
X146972380Y-88051428D02*
X145972380Y-88051428D01*
X145972380Y-87813333D01*
X146020000Y-87670476D01*
X146115238Y-87575238D01*
X146210476Y-87527619D01*
X146400952Y-87480000D01*
X146543809Y-87480000D01*
X146734285Y-87527619D01*
X146829523Y-87575238D01*
X146924761Y-87670476D01*
X146972380Y-87813333D01*
X146972380Y-88051428D01*
X147353333Y-87146666D02*
X147305714Y-87099047D01*
X147162857Y-87003809D01*
X147067619Y-86956190D01*
X146924761Y-86908571D01*
X146686666Y-86860952D01*
X146496190Y-86860952D01*
X146258095Y-86908571D01*
X146115238Y-86956190D01*
X146020000Y-87003809D01*
X145877142Y-87099047D01*
X145829523Y-87146666D01*
G04 #@! TD*
M02*
