G04 #@! TF.GenerationSoftware,KiCad,Pcbnew,(5.1.2)-2*
G04 #@! TF.CreationDate,2019-07-24T13:36:26-05:00*
G04 #@! TF.ProjectId,ECE 597 PCB,45434520-3539-4372-9050-43422e6b6963,rev?*
G04 #@! TF.SameCoordinates,Original*
G04 #@! TF.FileFunction,Soldermask,Bot*
G04 #@! TF.FilePolarity,Negative*
%FSLAX46Y46*%
G04 Gerber Fmt 4.6, Leading zero omitted, Abs format (unit mm)*
G04 Created by KiCad (PCBNEW (5.1.2)-2) date 2019-07-24 13:36:26*
%MOMM*%
%LPD*%
G04 APERTURE LIST*
%ADD10C,0.150000*%
%ADD11C,3.100000*%
%ADD12R,1.924000X1.924000*%
%ADD13C,1.924000*%
%ADD14C,0.100000*%
%ADD15C,1.600000*%
%ADD16O,1.600000X2.150000*%
G04 APERTURE END LIST*
D10*
X161760000Y-75080000D02*
X161760000Y-85240000D01*
X159220000Y-72540000D02*
X161760000Y-75080000D01*
X146520000Y-72540000D02*
X159220000Y-72540000D01*
X161760000Y-120800000D02*
X161760000Y-110640000D01*
X159220000Y-123340000D02*
X161760000Y-120800000D01*
X141440000Y-123340000D02*
X159220000Y-123340000D01*
X161760000Y-85240000D02*
X161760000Y-110640000D01*
X146520000Y-72540000D02*
X141440000Y-72540000D01*
X102070000Y-72540000D02*
X141440000Y-72540000D01*
X95720000Y-66190000D02*
X102070000Y-72540000D01*
X94450000Y-66190000D02*
X95720000Y-66190000D01*
X74130000Y-66190000D02*
X94450000Y-66190000D01*
X72860000Y-67460000D02*
X74130000Y-66190000D01*
X72860000Y-128420000D02*
X72860000Y-67460000D01*
X74130000Y-129690000D02*
X72860000Y-128420000D01*
X95720000Y-129690000D02*
X74130000Y-129690000D01*
X102070000Y-123340000D02*
X95720000Y-129690000D01*
X141440000Y-123340000D02*
X102070000Y-123340000D01*
D11*
G04 #@! TO.C,MK4*
X128740000Y-86510000D03*
G04 #@! TD*
D12*
G04 #@! TO.C,U6*
X91910000Y-91590000D03*
D13*
X91910000Y-95400000D03*
X91910000Y-96670000D03*
X84290000Y-68730000D03*
X84290000Y-71270000D03*
X86830000Y-71270000D03*
X86830000Y-68730000D03*
X91910000Y-68730000D03*
X94450000Y-68730000D03*
X94450000Y-71270000D03*
X94450000Y-73810000D03*
X94450000Y-76350000D03*
X94450000Y-78890000D03*
X94450000Y-81430000D03*
X94450000Y-83970000D03*
X94450000Y-86510000D03*
X94450000Y-89050000D03*
X94450000Y-91590000D03*
D12*
X94450000Y-94130000D03*
D13*
X94450000Y-96670000D03*
G04 #@! TD*
D12*
G04 #@! TO.C,U5*
X91910000Y-122070000D03*
D13*
X91910000Y-125880000D03*
X91910000Y-127150000D03*
X84290000Y-99210000D03*
X84290000Y-101750000D03*
X86830000Y-101750000D03*
X86830000Y-99210000D03*
X91910000Y-99210000D03*
X94450000Y-99210000D03*
X94450000Y-101750000D03*
X94450000Y-104290000D03*
X94450000Y-106830000D03*
X94450000Y-109370000D03*
X94450000Y-111910000D03*
X94450000Y-114450000D03*
X94450000Y-116990000D03*
X94450000Y-119530000D03*
X94450000Y-122070000D03*
D12*
X94450000Y-124610000D03*
D13*
X94450000Y-127150000D03*
G04 #@! TD*
G04 #@! TO.C,U4*
X117310000Y-76350000D03*
X117310000Y-78890000D03*
X117310000Y-81430000D03*
X117310000Y-83970000D03*
X117310000Y-86510000D03*
X117310000Y-89050000D03*
X117310000Y-91590000D03*
X117310000Y-94130000D03*
X117310000Y-96670000D03*
X117310000Y-99210000D03*
X117310000Y-101750000D03*
X117310000Y-104290000D03*
X117310000Y-106830000D03*
X117310000Y-109370000D03*
X117310000Y-111910000D03*
X117310000Y-114450000D03*
X117310000Y-116990000D03*
X117310000Y-119530000D03*
X140170000Y-119530000D03*
X140170000Y-116990000D03*
X140170000Y-114450000D03*
X140170000Y-111910000D03*
X140170000Y-109370000D03*
X140170000Y-106830000D03*
X140170000Y-104290000D03*
X140170000Y-101750000D03*
X140170000Y-99210000D03*
X140170000Y-96670000D03*
X140170000Y-94130000D03*
X140170000Y-91590000D03*
X140170000Y-89050000D03*
X140170000Y-86510000D03*
X140170000Y-83970000D03*
X140170000Y-81430000D03*
X140170000Y-78890000D03*
X140170000Y-76350000D03*
G04 #@! TD*
D11*
G04 #@! TO.C,MK3*
X76670000Y-125880000D03*
G04 #@! TD*
G04 #@! TO.C,MK1*
X76670000Y-70000000D03*
G04 #@! TD*
G04 #@! TO.C,MK2*
X128740000Y-109370000D03*
G04 #@! TD*
D13*
G04 #@! TO.C,U1*
X112230000Y-89050000D03*
X112230000Y-86510000D03*
X112230000Y-83970000D03*
X112230000Y-81430000D03*
X112230000Y-78890000D03*
X112230000Y-76350000D03*
X102070000Y-76350000D03*
X102070000Y-78890000D03*
X102070000Y-81430000D03*
X102070000Y-83970000D03*
X102070000Y-86510000D03*
X102070000Y-89050000D03*
G04 #@! TD*
G04 #@! TO.C,U2*
X102070000Y-104290000D03*
X102070000Y-101750000D03*
X102070000Y-99210000D03*
X102070000Y-96670000D03*
X102070000Y-94130000D03*
X102070000Y-91590000D03*
X112230000Y-91590000D03*
X112230000Y-94130000D03*
X112230000Y-96670000D03*
X112230000Y-99210000D03*
X112230000Y-101750000D03*
X112230000Y-104290000D03*
G04 #@! TD*
G04 #@! TO.C,U3*
X112230000Y-119530000D03*
X112230000Y-116990000D03*
X112230000Y-114450000D03*
X112230000Y-111910000D03*
X112230000Y-109370000D03*
X112230000Y-106830000D03*
X102070000Y-106830000D03*
X102070000Y-109370000D03*
X102070000Y-111910000D03*
X102070000Y-114450000D03*
X102070000Y-116990000D03*
X102070000Y-119530000D03*
G04 #@! TD*
D14*
G04 #@! TO.C,JST-PH*
G36*
X149559340Y-118456605D02*
G01*
X149591698Y-118461405D01*
X149623429Y-118469353D01*
X149654229Y-118480373D01*
X149683800Y-118494359D01*
X149711857Y-118511177D01*
X149738132Y-118530663D01*
X149762369Y-118552631D01*
X149784337Y-118576868D01*
X149803823Y-118603143D01*
X149820641Y-118631200D01*
X149834627Y-118660771D01*
X149845647Y-118691571D01*
X149853595Y-118723302D01*
X149858395Y-118755660D01*
X149860000Y-118788332D01*
X149860000Y-120271668D01*
X149858395Y-120304340D01*
X149853595Y-120336698D01*
X149845647Y-120368429D01*
X149834627Y-120399229D01*
X149820641Y-120428800D01*
X149803823Y-120456857D01*
X149784337Y-120483132D01*
X149762369Y-120507369D01*
X149738132Y-120529337D01*
X149711857Y-120548823D01*
X149683800Y-120565641D01*
X149654229Y-120579627D01*
X149623429Y-120590647D01*
X149591698Y-120598595D01*
X149559340Y-120603395D01*
X149526668Y-120605000D01*
X148593332Y-120605000D01*
X148560660Y-120603395D01*
X148528302Y-120598595D01*
X148496571Y-120590647D01*
X148465771Y-120579627D01*
X148436200Y-120565641D01*
X148408143Y-120548823D01*
X148381868Y-120529337D01*
X148357631Y-120507369D01*
X148335663Y-120483132D01*
X148316177Y-120456857D01*
X148299359Y-120428800D01*
X148285373Y-120399229D01*
X148274353Y-120368429D01*
X148266405Y-120336698D01*
X148261605Y-120304340D01*
X148260000Y-120271668D01*
X148260000Y-118788332D01*
X148261605Y-118755660D01*
X148266405Y-118723302D01*
X148274353Y-118691571D01*
X148285373Y-118660771D01*
X148299359Y-118631200D01*
X148316177Y-118603143D01*
X148335663Y-118576868D01*
X148357631Y-118552631D01*
X148381868Y-118530663D01*
X148408143Y-118511177D01*
X148436200Y-118494359D01*
X148465771Y-118480373D01*
X148496571Y-118469353D01*
X148528302Y-118461405D01*
X148560660Y-118456605D01*
X148593332Y-118455000D01*
X149526668Y-118455000D01*
X149559340Y-118456605D01*
X149559340Y-118456605D01*
G37*
D15*
X149060000Y-119530000D03*
D16*
X151060000Y-119530000D03*
X153060000Y-119530000D03*
G04 #@! TD*
D13*
G04 #@! TO.C,Waveshare 10 DOF IMU Sensor (C/D) *
X145250000Y-75080000D03*
X147790000Y-75080000D03*
X150330000Y-75080000D03*
X152870000Y-75080000D03*
D12*
X155410000Y-75080000D03*
D13*
X157950000Y-75080000D03*
G04 #@! TD*
M02*
